<?xml version="1.0" standalone="no"?>
<!DOCTYPE svg PUBLIC "-//W3C//DTD SVG 1.1//EN" "http://www.w3.org/Graphics/SVG/1.1/DTD/svg11.dtd" >
<svg>
<metadata>
Created by FontForge 20090622 at Fri Feb 22 21:01:41 2019
 By ffonts
Copyright 2015 The Benne Project Authors \(info@poststudio.net\)
</metadata>
<defs>
<font id="Benne-Regular" horiz-adv-x="0" >
  <font-face 
    font-family="Benne Text"
    font-weight="400"
    font-stretch="normal"
    units-per-em="1000"
    panose-1="0 0 5 0 0 0 0 0 0 0"
    ascent="630"
    descent="-370"
    x-height="405"
    cap-height="653"
    bbox="-441 -742 1950 1105"
    underline-thickness="50"
    underline-position="-50"
    unicode-range="U+0020-U+1F4BA"
  />
<missing-glyph horiz-adv-x="364" 
d="M298 0v666h-265v-666h265zM66 633h199v-600h-199v600z" />
    <glyph glyph-name=".notdef" horiz-adv-x="364" 
d="M298 0v666h-265v-666h265zM66 633h199v-600h-199v600z" />
    <glyph glyph-name="uni0C85" unicode="&#xc85;" horiz-adv-x="752" 
d="M535 520c100 0 172 -106 172 -240c0 -176 -120 -294 -331 -294s-331 118 -331 297c0 131 68 236 166 236c75 0 111 -62 111 -126c0 -68 -42 -120 -108 -120c-55 0 -98 35 -98 110c0 9 1 19 1 27c-21 -27 -32 -65 -32 -108c0 -131 100 -231 291 -231
c190 0 292 100 292 229c0 89 -44 154 -123 154c-41 0 -65 -20 -65 -48c0 -27 21 -52 66 -52h53v-71h-230v71h95c-12 14 -24 38 -24 69c0 48 27 97 95 97zM217 454c-28 0 -51 -6 -70 -18c-2 -8 -3 -18 -3 -27c0 -44 31 -65 76 -65c44 0 72 21 72 57c0 39 -34 53 -75 53z" />
    <glyph glyph-name="uni0C86" unicode="&#xc86;" horiz-adv-x="714" 
d="M694 402c0 -51 -29 -92 -79 -109c19 -25 35 -57 35 -100c0 -103 -90 -207 -284 -207c-201 0 -321 118 -321 294c0 134 68 239 166 239c75 0 111 -62 111 -125c0 -69 -42 -121 -109 -121c-54 0 -97 35 -97 109c0 8 0 17 2 28c-22 -27 -33 -65 -33 -108
c0 -131 100 -231 282 -231c153 0 239 65 239 140c0 30 -14 51 -32 73c-7 -1 -14 -1 -21 -1h-172v72h136c-10 18 -17 40 -17 67c0 63 37 97 88 97c65 0 106 -56 106 -117zM217 454c-28 0 -51 -6 -70 -18c-2 -8 -3 -17 -3 -28c0 -43 31 -64 76 -64c44 0 72 21 72 57
c0 39 -34 53 -75 53zM586 355c51 0 77 18 77 47s-24 52 -63 52s-61 -22 -61 -51c0 -18 8 -33 20 -48h27z" />
    <glyph glyph-name="uni0C87" unicode="&#xc87;" horiz-adv-x="678" 
d="M557 109c46 -54 71 -118 71 -163c0 -30 -11 -43 -28 -43c-21 0 -31 21 -31 52c0 37 -13 81 -39 121c-53 -57 -124 -90 -200 -90c-90 0 -153 52 -153 119c0 63 57 111 156 111c76 0 139 -29 187 -70c40 41 65 95 65 154c0 90 -52 141 -115 141c-82 0 -138 -84 -150 -158
h-10c-14 75 -64 159 -151 159c-61 0 -92 -40 -92 -82c0 -19 6 -33 13 -43l-31 -21c-21 27 -29 60 -29 92c0 79 49 131 125 131c80 0 146 -58 169 -142h2c23 84 88 142 169 142c83 0 136 -57 136 -199c0 -82 -24 -154 -64 -211zM230 125c0 -36 51 -54 110 -54
c57 0 110 19 152 51c-38 36 -90 62 -154 62c-70 0 -108 -29 -108 -59z" />
    <glyph glyph-name="uni0C88" unicode="&#xc88;" horiz-adv-x="851" 
d="M811 369c0 -58 -35 -98 -92 -117c35 -41 72 -86 72 -148c0 -74 -54 -118 -119 -118c-43 0 -64 19 -64 44c0 18 11 31 28 37s36 3 60 12c22 9 44 27 44 63c0 39 -25 70 -52 102c-17 -3 -35 -5 -54 -5h-85v-11c0 -140 -94 -242 -230 -242s-230 102 -230 242v11h-69v59h79
c16 57 52 107 101 136h-110v75h329c61 0 92 27 92 67c0 34 -22 59 -46 68l15 20c43 -16 74 -57 74 -112c0 -68 -46 -111 -117 -117c50 -29 86 -79 102 -137h106c-16 24 -28 52 -28 84c0 59 39 97 92 97c58 0 102 -45 102 -110zM319 436c-84 0 -156 -60 -178 -138h357
c-22 79 -95 138 -179 138zM716 418c-33 0 -59 -21 -59 -57c0 -22 10 -43 24 -63c66 4 92 30 92 66s-26 54 -57 54zM319 71c105 0 179 71 185 168h-370c5 -98 79 -168 185 -168z" />
    <glyph glyph-name="uni0C89" unicode="&#xc89;" horiz-adv-x="1019" 
d="M798 513c70 0 166 -98 166 -267c0 -151 -80 -260 -199 -260c-101 0 -146 79 -146 164c0 70 5 126 5 189c0 67 -34 102 -87 102c-60 0 -91 -45 -91 -102c0 -55 12 -110 12 -189c0 -108 -66 -164 -168 -164c-137 0 -245 129 -245 293c0 135 68 240 166 240
c75 0 111 -62 111 -126c0 -68 -42 -120 -108 -120c-55 0 -98 35 -98 110c0 9 1 19 1 27c-21 -27 -32 -65 -32 -108c0 -131 90 -231 202 -231c77 0 134 47 134 118c0 67 -17 123 -17 175c0 89 50 155 134 155s128 -66 128 -144c0 -63 -8 -119 -8 -168c0 -69 40 -136 121 -136
c80 0 150 66 150 180c0 93 -47 156 -86 170c-21 7 -43 2 -66 9c-16 5 -28 21 -28 40c0 22 17 43 49 43zM217 454c-28 0 -51 -6 -70 -18c-2 -8 -3 -18 -3 -27c0 -44 31 -65 76 -65c44 0 72 21 72 57c0 39 -34 53 -75 53z" />
    <glyph glyph-name="uni0C8A" unicode="&#xc8a;" horiz-adv-x="1384" 
d="M1081 519c148 0 258 -117 258 -281c0 -146 -74 -252 -186 -252c-96 0 -156 72 -157 171c1 78 41 142 113 142c55 0 80 -37 79 -69c1 -36 -25 -65 -60 -65c-33 0 -54 26 -55 62c0 6 -1 10 -6 10c-12 0 -33 -25 -33 -65c0 -59 44 -104 118 -104c90 0 152 61 152 167
c0 128 -99 206 -214 206c-107 0 -183 -70 -183 -210c0 -158 -43 -245 -143 -245c-104 0 -145 79 -145 164c0 70 5 126 5 189c0 67 -34 102 -88 102c-59 0 -90 -45 -90 -102c0 -55 12 -110 12 -189c0 -108 -66 -164 -168 -164c-137 0 -245 118 -245 290c0 138 68 243 165 243
c76 0 112 -62 112 -125c0 -69 -42 -121 -108 -121c-55 0 -98 35 -98 110c0 9 1 19 1 27c-21 -28 -32 -66 -32 -109c0 -130 90 -230 202 -230c77 0 134 47 134 118c0 67 -17 123 -17 175c0 89 50 155 134 155s128 -66 128 -144c0 -63 -8 -119 -8 -168c0 -69 34 -136 103 -136
c73 0 109 45 109 177c0 175 89 271 211 271zM217 454c-28 0 -51 -6 -70 -18c-2 -8 -3 -18 -3 -27c0 -44 31 -65 76 -65c44 0 72 21 72 57c0 39 -34 53 -75 53z" />
    <glyph glyph-name="uni0C8B" unicode="&#xc8b;" horiz-adv-x="1127" 
d="M901 514c70 0 166 -99 166 -272c0 -147 -80 -256 -189 -256c-73 0 -136 49 -167 136c-30 -82 -93 -136 -169 -136c-73 0 -137 50 -167 137c-33 -78 -96 -137 -181 -137c-83 0 -139 56 -139 125c0 65 49 116 109 116c61 0 105 -52 105 -128c0 -7 0 -17 -1 -26
c61 27 97 88 97 173c0 86 -37 147 -94 179c1 -6 1 -11 1 -16c0 -77 -44 -120 -97 -120c-58 0 -117 50 -117 118c0 64 53 112 133 112c134 0 209 -136 209 -266c0 -26 -3 -52 -9 -76c36 -79 85 -106 142 -106c88 0 163 66 163 173c0 110 -59 171 -112 190h-148v75h192
c61 0 92 27 92 67c0 34 -22 59 -46 68l15 20c43 -16 74 -57 74 -112c0 -57 -34 -98 -88 -112c32 -45 56 -112 56 -198c0 -22 -2 -42 -5 -62c36 -81 85 -109 145 -109c91 0 161 66 161 184c0 89 -47 153 -87 167c-11 4 -21 4 -32 5c-11 0 -22 1 -33 4c-16 5 -28 21 -28 40
c0 23 17 43 49 43zM244 429v8c-22 8 -46 12 -71 12c-49 0 -78 -17 -78 -44c0 -28 31 -50 73 -50c46 0 76 27 76 74zM188 57c19 0 36 2 53 6v8c0 51 -30 90 -81 90c-38 0 -67 -21 -67 -49c0 -29 30 -55 95 -55z" />
    <glyph glyph-name="uni0CE0" unicode="&#xce0;" horiz-adv-x="1488" 
d="M1191 519c142 0 252 -117 252 -287c0 -140 -74 -246 -188 -246c-94 0 -154 72 -155 171c1 78 41 142 113 142c55 0 80 -37 80 -70c0 -35 -26 -64 -61 -64c-33 0 -54 26 -54 62c0 9 -1 10 -4 10c-16 0 -36 -25 -36 -65c0 -59 44 -104 119 -104c89 0 151 61 151 165
c0 130 -99 208 -212 208c-109 0 -186 -70 -186 -210c0 -158 -32 -245 -122 -245c-79 0 -142 63 -177 136c-30 -82 -93 -136 -169 -136c-73 0 -137 50 -167 137c-33 -78 -96 -137 -181 -137c-83 0 -139 56 -139 125c0 65 49 116 109 116c61 0 105 -52 105 -128
c0 -7 0 -17 -1 -26c61 27 97 88 97 173c0 86 -37 147 -94 179c1 -6 1 -11 1 -16c0 -77 -44 -120 -97 -120c-58 0 -117 50 -117 118c0 64 53 112 133 112c134 0 209 -136 209 -266c0 -26 -3 -52 -9 -76c36 -79 85 -106 142 -106c88 0 163 66 163 173c0 110 -59 171 -112 190
h-148v75h192c61 0 92 27 92 67c0 34 -22 59 -46 68l15 20c43 -16 74 -57 74 -112c0 -57 -34 -98 -88 -112c32 -45 56 -112 56 -198c0 -23 -2 -45 -6 -66c31 -58 76 -105 145 -105c68 0 105 45 105 170c0 182 88 278 216 278zM244 429v8c-22 8 -46 12 -71 12
c-49 0 -78 -17 -78 -44c0 -28 31 -50 73 -50c46 0 76 27 76 74zM188 57c19 0 36 2 53 6v8c0 51 -30 90 -81 90c-38 0 -67 -21 -67 -49c0 -29 30 -55 95 -55z" />
    <glyph glyph-name="uni0C8C" unicode="&#xc8c;" horiz-adv-x="956" 
d="M619 -14c-154 0 -202 70 -202 145c0 68 40 104 78 138c34 30 66 59 66 104c0 42 -28 69 -77 69c-88 0 -150 -84 -163 -159h-9c-14 75 -63 159 -146 159c-58 0 -89 -40 -89 -83c0 -30 15 -54 32 -73l-22 -17c-38 39 -57 77 -57 124c0 74 49 126 121 126
c77 0 142 -58 165 -142h2c23 84 95 142 168 142c72 0 121 -55 121 -126c0 -68 -43 -109 -82 -145c-32 -30 -61 -58 -61 -96c0 -52 55 -81 160 -81c152 0 258 66 258 191c0 91 -53 146 -104 162c-16 5 -28 5 -40 5l-10 -1c-6 0 -11 1 -17 3c-17 5 -29 21 -29 40
c0 23 17 43 51 43c85 0 183 -95 183 -249c0 -145 -93 -279 -297 -279z" />
    <glyph glyph-name="uni0CE1" unicode="&#xce1;" horiz-adv-x="1360" 
d="M1007 509c238 0 308 -119 308 -270c0 -146 -74 -252 -186 -252c-96 0 -156 72 -157 171c1 78 41 142 113 142c55 0 80 -37 80 -71s-26 -63 -61 -63c-33 0 -55 26 -55 62c0 6 -2 10 -6 10c-12 0 -33 -25 -33 -65c0 -59 44 -104 118 -104c90 0 152 61 152 167
c0 110 -70 198 -264 198h-209c54 -46 88 -115 88 -198c0 -131 -92 -250 -270 -250c-164 0 -208 70 -208 150c0 63 40 99 78 133c34 30 66 59 66 104c0 42 -28 69 -77 69c-88 0 -150 -84 -163 -159h-9c-14 75 -63 159 -146 159c-58 0 -89 -40 -89 -86c0 -27 11 -50 32 -70
l-22 -17c-38 39 -57 77 -57 124c0 74 49 126 121 126c77 0 142 -58 165 -142h2c23 84 95 142 168 142c72 0 121 -55 121 -125c0 -69 -43 -110 -82 -146c-32 -30 -61 -58 -61 -96c0 -52 52 -81 169 -81c133 0 226 58 226 173c0 98 -66 171 -123 190h-6v75h277z" />
    <glyph glyph-name="uni0C8E" unicode="&#xc8e;" horiz-adv-x="719" 
d="M175 -14c-75 0 -125 70 -125 160c0 86 44 141 103 141c49 0 73 -37 84 -79l-16 -15c-9 24 -32 34 -58 34c-41 0 -73 -23 -73 -71c0 -52 36 -85 86 -85c74 0 139 74 153 150h9c13 -75 79 -150 162 -150c78 0 133 67 133 156c0 125 -112 212 -251 212c-11 0 -20 -1 -29 -2
c-7 -1 -14 -2 -21 -2s-14 1 -21 3c-15 5 -24 18 -24 34c0 24 20 47 55 47c133 0 327 -93 327 -308c0 -123 -62 -225 -165 -225c-78 0 -146 57 -169 140h-2c-23 -83 -91 -140 -158 -140z" />
    <glyph glyph-name="uni0C8F" unicode="&#xc8f;" horiz-adv-x="724" 
d="M500 71c78 0 134 47 134 194c0 195 -134 305 -252 311c-27 -55 -63 -92 -119 -92c-69 0 -111 57 -111 125c0 28 7 57 16 83l21 -11c-2 -11 -4 -24 -4 -36c0 -53 39 -88 90 -88c42 0 73 23 97 75c164 1 297 -144 297 -380c0 -184 -62 -266 -165 -266
c-78 0 -146 57 -169 140h-2c-23 -83 -91 -140 -158 -140c-75 0 -125 70 -125 160c0 86 44 141 103 141c49 0 73 -37 84 -79l-16 -15c-9 24 -32 34 -58 34c-41 0 -73 -23 -73 -71c0 -52 36 -85 86 -85c74 0 139 74 153 150h9c13 -75 79 -150 162 -150z" />
    <glyph glyph-name="uni0C90" unicode="&#xc90;" horiz-adv-x="730" 
d="M195 444c-59 0 -102 -45 -117 -112l-23 11c0 85 53 176 140 176c69 0 129 -58 148 -142h2c23 84 90 142 164 142c109 0 171 -131 171 -278c0 -153 -62 -255 -167 -255c-76 0 -144 57 -167 140h-2c-23 -83 -91 -140 -158 -140c-75 0 -124 70 -126 157c2 89 45 144 103 144
c50 0 74 -37 85 -79l-16 -15c-9 24 -34 34 -60 34c-41 0 -70 -26 -72 -71c2 -52 37 -85 88 -85c73 0 138 74 152 150h9c13 -75 79 -150 163 -150c77 0 133 67 133 176c0 116 -55 197 -140 197c-88 0 -144 -87 -156 -161h-9c-14 75 -64 161 -145 161z" />
    <glyph glyph-name="uni0C92" unicode="&#xc92;" horiz-adv-x="684" 
d="M206 -14c-66 0 -127 52 -127 137c0 70 43 115 82 155c32 33 63 66 63 106c0 43 -34 68 -76 68c-47 0 -70 -31 -70 -68c0 -14 2 -25 10 -39l-20 -15c-21 22 -29 51 -29 77c0 58 39 112 114 112c76 0 124 -54 124 -112s-48 -109 -89 -150c-34 -34 -58 -70 -58 -106
c0 -37 27 -80 81 -80c72 0 137 74 151 150h9c13 -75 79 -150 153 -150c57 0 82 45 82 85c0 27 -12 56 -36 80l21 15c34 -29 63 -79 63 -134c0 -79 -61 -131 -127 -131c-68 0 -136 57 -159 140h-2c-23 -83 -91 -140 -160 -140z" />
    <glyph glyph-name="uni0C93" unicode="&#xc93;" horiz-adv-x="684" 
d="M591 251c34 -29 63 -79 63 -134c0 -79 -61 -131 -127 -131c-68 0 -136 57 -159 140h-2c-23 -83 -91 -140 -160 -140c-66 0 -127 52 -127 137c0 70 43 115 82 155c32 33 63 66 63 106c0 43 -34 68 -76 68c-47 0 -70 -31 -70 -68c0 -14 2 -25 10 -39l-20 -15
c-21 22 -29 51 -29 77c0 51 31 100 90 110c-32 22 -54 52 -54 89c0 54 46 100 130 105l9 -22c-52 -12 -75 -43 -75 -88c0 -34 15 -60 51 -87c54 -14 87 -59 87 -107c0 -58 -48 -109 -89 -150c-34 -34 -58 -70 -58 -106c0 -37 27 -80 81 -80c72 0 137 74 151 150h9
c13 -75 79 -150 153 -150c57 0 82 45 82 85c0 27 -12 56 -36 80z" />
    <glyph glyph-name="uni0C94" unicode="&#xc94;" horiz-adv-x="714" 
d="M591 251c34 -29 63 -79 63 -134c0 -79 -61 -131 -127 -131c-68 0 -136 57 -159 140h-2c-23 -83 -91 -140 -160 -140c-66 0 -127 52 -127 137c0 70 43 115 82 155c32 33 63 66 63 106c0 43 -34 68 -76 68c-47 0 -70 -31 -70 -70c0 -12 2 -23 10 -37l-20 -15
c-21 22 -29 51 -29 77c0 42 21 82 61 101h-45v70h193c28 0 36 18 36 36c0 4 -1 9 -2 12h-227v72h350c149 0 241 -96 241 -227c0 -107 -62 -184 -148 -184c-76 0 -130 61 -130 137c0 71 47 117 102 117c46 0 71 -30 71 -59c0 -27 -21 -50 -50 -50c-26 0 -44 20 -44 51
c0 5 -1 7 -5 7c-18 0 -38 -20 -38 -56c0 -48 37 -83 94 -83c66 0 114 48 114 118c0 92 -80 157 -207 157h-91c7 -13 10 -27 10 -39c0 -46 -40 -79 -94 -79h-22c44 -19 69 -59 69 -101c0 -58 -48 -109 -89 -150c-34 -34 -58 -70 -58 -106c0 -37 27 -80 81 -80
c72 0 137 74 151 150h9c13 -75 79 -150 153 -150c57 0 82 45 82 85c0 27 -12 56 -36 80z" />
    <glyph glyph-name="uni0CBE" unicode="&#xcbe;" horiz-adv-x="430" 
d="M197 -13c-94 0 -154 72 -155 171c1 78 41 142 113 142c55 0 80 -37 80 -71s-26 -63 -61 -63c-33 0 -54 26 -54 62c0 6 -2 10 -7 10c-12 0 -33 -25 -33 -65c0 -59 44 -104 119 -104c89 0 151 61 151 167c0 110 -70 198 -264 198h-286v75h277c238 0 308 -119 308 -270
c0 -146 -74 -252 -188 -252z" />
    <glyph glyph-name="uni0CBF" unicode="&#xcbf;" 
d="M-155 679c84 0 145 -95 145 -192c0 -87 -52 -153 -174 -173l-29 61c121 14 171 56 171 118c0 26 -9 52 -24 73c-1 -58 -31 -110 -90 -110c-55 0 -94 49 -94 115c0 63 36 108 95 108zM-162 516c49 0 68 39 68 71v7c-17 12 -37 19 -60 19c-43 0 -63 -25 -63 -51
c0 -27 21 -46 55 -46z" />
    <glyph glyph-name="uni0CC0" unicode="&#xcc0;" horiz-adv-x="556" 
d="M90 679c84 0 145 -95 145 -192c0 -87 -52 -153 -174 -173l-29 61c121 14 171 56 171 118c0 26 -9 52 -24 73c-1 -58 -31 -110 -90 -110c-55 0 -94 49 -94 115c0 63 36 108 95 108zM83 516c49 0 68 39 68 71v7c-17 12 -37 19 -60 19c-43 0 -63 -25 -63 -51
c0 -27 21 -46 55 -46zM420 273c-47 0 -86 35 -86 110c0 9 0 19 1 28c-20 -29 -30 -72 -30 -128c0 -112 45 -204 144 -283v-14h-72c-70 74 -112 157 -112 279c0 160 72 254 152 254c64 0 99 -62 99 -126c0 -68 -40 -120 -96 -120zM422 454c-22 0 -40 -5 -56 -14
c-2 -9 -3 -21 -3 -31c0 -44 23 -65 62 -65c37 0 61 21 61 57c0 39 -29 53 -64 53z" />
    <glyph glyph-name="uni0CC1" unicode="&#xcc1;" horiz-adv-x="347" 
d="M98 -14c-75 0 -140 52 -170 143l7 78c37 -102 90 -136 156 -136c91 0 161 66 161 184c0 89 -47 152 -87 166c-11 4 -21 4 -32 5c-11 0 -22 1 -33 4c-16 5 -28 21 -28 40c0 23 17 43 49 43c70 0 166 -98 166 -271c0 -147 -80 -256 -189 -256z" />
    <glyph glyph-name="uni0CC2" unicode="&#xcc2;" horiz-adv-x="703" 
d="M103 -14c-87 0 -158 79 -183 159v77c31 -77 79 -151 165 -151c68 0 104 45 104 177c0 175 89 271 211 271c148 0 258 -117 258 -281c0 -146 -74 -252 -186 -252c-96 0 -156 72 -157 171c1 78 41 142 113 142c55 0 80 -37 80 -70c0 -35 -26 -64 -61 -64
c-33 0 -54 26 -54 62c0 6 -2 10 -7 10c-12 0 -33 -25 -33 -65c0 -59 44 -104 118 -104c90 0 152 61 152 167c0 128 -99 206 -214 206c-107 0 -183 -70 -183 -210c0 -158 -33 -245 -123 -245z" />
    <glyph glyph-name="uni0CC3" unicode="&#xcc3;" horiz-adv-x="47" 
d="M50 23c33 -47 68 -132 68 -217c0 -120 -61 -218 -170 -218c-94 0 -149 66 -149 152c0 73 41 154 116 154c48 0 64 -31 64 -77c0 -52 -26 -78 -67 -78c-42 0 -70 22 -70 68v9c-12 -20 -17 -44 -17 -67c0 -70 45 -108 120 -108c106 0 148 79 148 163c0 82 -39 152 -79 182
c-18 13 -27 27 -27 43c0 15 10 25 23 25c15 0 26 -11 40 -31zM-49 -181c0 25 -15 34 -43 34c-19 0 -34 -6 -47 -15c0 -5 -1 -11 -1 -15c0 -26 15 -40 47 -40c33 0 44 14 44 36z" />
    <glyph glyph-name="uni0CC4" unicode="&#xcc4;" horiz-adv-x="331" 
d="M204 60c82 0 172 -41 172 -155c0 -88 -53 -136 -113 -136c-56 0 -95 41 -95 100c0 47 22 86 67 86c34 0 49 -22 49 -42s-15 -37 -36 -37c-19 0 -32 15 -32 37c0 3 -1 5 -4 5c-7 0 -14 -19 -14 -46c0 -32 27 -53 70 -53c53 0 83 32 83 82c0 69 -57 119 -130 119h-169
c30 -40 66 -119 66 -213c0 -121 -61 -219 -170 -219c-94 0 -149 66 -149 151c0 74 41 155 117 155c47 0 63 -31 63 -74c0 -55 -26 -81 -69 -81c-40 0 -68 22 -68 68v9c-12 -20 -17 -45 -17 -69c0 -68 45 -106 120 -106c106 0 148 79 148 167c0 98 -53 206 -97 238l5 14h203z
M-49 -181c0 25 -15 34 -44 34c-19 0 -34 -6 -46 -15c0 -5 -1 -11 -1 -15c0 -26 15 -40 47 -40c33 0 44 14 44 36z" />
    <glyph glyph-name="uni0CE2" unicode="&#xce2;" 
d="M247 -247c0 -96 -61 -164 -178 -164c-90 0 -118 43 -118 92c0 45 24 66 46 85c19 15 36 30 36 57s-18 54 -54 54c-51 0 -88 -54 -97 -101h-12c-9 47 -46 101 -99 101c-32 0 -51 -20 -51 -49c0 -11 3 -21 8 -31l-22 -16c-14 18 -17 37 -17 55c0 50 27 89 79 89
c51 0 91 -37 107 -90h3c16 53 56 90 106 90c53 0 80 -42 80 -91c0 -48 -25 -68 -48 -88c-20 -15 -37 -30 -37 -53c0 -39 41 -51 96 -51c105 0 147 49 147 105c0 40 -22 84 -58 110c-18 13 -27 27 -27 43c0 15 9 25 23 25c15 0 26 -11 40 -31c40 -56 47 -109 47 -141z" />
    <glyph glyph-name="uni0CE3" unicode="&#xce3;" 
d="M337 -76c140 0 180 -70 180 -156c0 -88 -43 -150 -109 -150c-56 0 -91 42 -92 100c1 46 24 84 67 84c32 0 46 -21 46 -41c0 -21 -15 -38 -35 -38s-32 15 -32 36c0 4 -1 6 -4 6c-7 0 -19 -15 -19 -39c1 -34 26 -59 69 -59c52 0 89 36 89 97c0 64 -42 116 -155 116h-135
c23 -30 40 -71 40 -121c0 -93 -61 -171 -180 -171c-88 0 -116 43 -116 91c0 46 24 67 46 86c19 15 36 30 36 57s-18 54 -54 54c-51 0 -88 -54 -97 -101h-12c-9 47 -46 101 -99 101c-32 0 -51 -20 -51 -49c0 -11 3 -21 8 -31l-22 -16c-14 18 -17 37 -17 55c0 50 27 89 79 89
c51 0 91 -37 107 -90h3c16 53 56 90 106 90c53 0 80 -42 80 -91c0 -48 -25 -68 -48 -88c-20 -15 -37 -30 -37 -53c0 -39 41 -51 88 -51c113 0 155 59 155 126c0 69 -45 120 -79 135l10 22h184z" />
    <glyph glyph-name="uni0CC6" unicode="&#xcc6;" 
d="M-191 434l1 75c51 0 91 21 91 69c0 51 -44 65 -57 65c-4 0 -6 -4 -6 -10c0 -36 -21 -62 -57 -62c-32 0 -55 21 -55 52c0 34 28 62 81 62c59 0 137 -34 137 -128c0 -77 -54 -123 -135 -123z" />
    <glyph glyph-name="uni0CC7" unicode="&#xcc7;" horiz-adv-x="326" 
d="M-193 685c59 0 137 -34 137 -128c0 -77 -54 -123 -135 -123l1 75c51 0 91 21 91 69c0 51 -44 65 -57 65c-4 0 -6 -4 -6 -10c0 -36 -21 -62 -57 -62c-32 0 -55 21 -55 52c0 34 28 62 81 62zM190 273c-47 0 -86 35 -86 110c0 9 0 19 1 28c-20 -29 -30 -72 -30 -128
c0 -112 45 -204 144 -283v-14h-72c-70 74 -112 157 -112 279c0 160 72 254 152 254c64 0 99 -62 99 -126c0 -68 -40 -120 -96 -120zM192 454c-22 0 -40 -5 -56 -14c-2 -9 -3 -21 -3 -31c0 -44 23 -65 62 -65c37 0 61 21 61 57c0 39 -29 53 -64 53z" />
    <glyph glyph-name="uni0CC8" unicode="&#xcc8;" horiz-adv-x="88" 
d="M-162 633c0 -36 -21 -62 -57 -62c-32 0 -55 21 -55 52c0 34 28 62 81 62c59 0 137 -34 137 -128c0 -77 -54 -123 -135 -123l1 75c51 0 91 21 91 69c0 51 -44 65 -57 65c-4 0 -6 -4 -6 -10zM35 -100c40 -19 73 -68 73 -138c0 -96 -71 -174 -180 -174
c-94 0 -159 66 -159 152c0 73 41 154 115 154c46 0 65 -31 65 -77c0 -52 -26 -78 -69 -78c-40 0 -68 22 -68 68v9c-12 -20 -17 -44 -17 -67c0 -70 55 -108 135 -108c101 0 148 57 148 126c0 60 -35 114 -75 123l-6 16c41 24 61 51 61 83c0 34 -21 54 -51 63l2 21
c53 -5 89 -35 89 -82c0 -42 -28 -76 -63 -91zM-79 -181c0 25 -15 34 -43 34c-19 0 -34 -6 -47 -15c0 -5 -1 -11 -1 -15c0 -26 15 -40 47 -40c33 0 44 14 44 36z" />
    <glyph glyph-name="uni0CCA" unicode="&#xcca;" horiz-adv-x="730" 
d="M-191 434l1 75c51 0 91 21 91 69c0 51 -44 65 -57 65c-4 0 -6 -4 -6 -10c0 -36 -21 -62 -57 -62c-32 0 -55 21 -55 52c0 34 28 62 81 62c59 0 137 -34 137 -128c0 -77 -54 -123 -135 -123zM97 -14c-101 0 -188 98 -197 196l22 40c29 -77 79 -151 158 -151
c95 0 111 106 111 188c0 197 121 260 216 260c115 0 253 -95 253 -281c0 -156 -86 -252 -192 -252c-91 0 -154 70 -154 169c0 78 37 144 112 144c57 0 82 -37 82 -71s-25 -63 -60 -63c-33 0 -55 26 -55 62c0 5 -1 10 -6 10c-12 0 -21 -26 -21 -68c0 -57 42 -98 113 -98
c92 0 142 69 142 154c0 132 -122 212 -236 212c-58 0 -147 -21 -147 -173c0 -161 -30 -278 -141 -278z" />
    <glyph glyph-name="uni0CCB" unicode="&#xccb;" horiz-adv-x="1056" 
d="M-190 509c51 0 91 21 91 69c0 51 -44 65 -57 65c-4 0 -6 -4 -6 -10c0 -36 -21 -62 -57 -62c-32 0 -55 21 -55 52c0 34 28 62 81 62c59 0 137 -34 137 -128c0 -77 -54 -123 -135 -123zM407 519c115 0 253 -95 253 -281c0 -156 -86 -252 -192 -252c-91 0 -154 70 -154 169
c0 78 37 144 112 144c57 0 82 -37 82 -71s-25 -63 -60 -63c-33 0 -55 26 -55 62c0 5 -1 10 -6 10c-12 0 -21 -26 -21 -68c0 -57 42 -98 113 -98c92 0 142 69 142 154c0 132 -122 212 -236 212c-58 0 -147 -21 -147 -173c0 -161 -30 -278 -141 -278c-101 0 -188 98 -197 196
l22 40c29 -77 79 -151 158 -151c95 0 111 106 111 188c0 197 121 260 216 260zM920 273c-47 0 -86 35 -86 110c0 9 0 19 1 28c-20 -29 -30 -72 -30 -128c0 -112 45 -204 144 -283v-14h-72c-70 74 -112 157 -112 279c0 160 72 254 152 254c64 0 99 -62 99 -126
c0 -68 -40 -120 -96 -120zM922 454c-22 0 -40 -5 -56 -14c-2 -9 -3 -21 -3 -31c0 -44 23 -65 62 -65c37 0 61 21 61 57c0 39 -29 53 -64 53z" />
    <glyph glyph-name="uni0CCC" unicode="&#xccc;" horiz-adv-x="380" 
d="M41 709c220 0 309 -108 309 -271c0 -146 -74 -252 -187 -252c-95 0 -155 72 -156 171c1 78 41 142 113 142c55 0 80 -36 80 -70c0 -35 -26 -64 -61 -64c-33 0 -54 26 -55 62v3c0 4 -2 7 -6 7c-12 0 -33 -25 -33 -65c0 -59 44 -104 119 -104c89 0 151 61 151 161
c0 126 -98 205 -253 205h-146c19 -21 30 -49 30 -82c0 -72 -54 -118 -135 -118h-21v75h21c61 0 92 27 92 67c0 25 -12 46 -28 58h-179v75h345z" />
    <glyph glyph-name="uni0CD5" unicode="&#xcd5;" horiz-adv-x="346" 
d="M210 273c-47 0 -86 35 -86 110c0 9 0 19 1 28c-20 -29 -30 -72 -30 -128c0 -112 45 -204 144 -283v-14h-72c-70 74 -112 157 -112 279c0 160 72 254 152 254c64 0 99 -62 99 -126c0 -68 -40 -120 -96 -120zM212 454c-22 0 -40 -5 -56 -14c-2 -9 -3 -21 -3 -31
c0 -44 23 -65 62 -65c37 0 61 21 61 57c0 39 -29 53 -64 53z" />
    <glyph glyph-name="uni0CD6" unicode="&#xcd6;" horiz-adv-x="98" 
d="M35 -100c40 -19 73 -68 73 -138c0 -96 -71 -174 -180 -174c-94 0 -159 66 -159 152c0 73 41 154 115 154c46 0 65 -31 65 -77c0 -52 -26 -78 -69 -78c-40 0 -68 22 -68 68v9c-12 -20 -17 -44 -17 -67c0 -70 55 -108 135 -108c101 0 148 57 148 126c0 60 -35 114 -75 123
l-6 16c41 24 61 51 61 83c0 34 -21 54 -51 63l2 21c53 -5 89 -35 89 -82c0 -42 -28 -76 -63 -91zM-79 -181c0 25 -15 34 -43 34c-19 0 -34 -6 -47 -15c0 -5 -1 -11 -1 -15c0 -26 15 -40 47 -40c33 0 44 14 44 36z" />
    <glyph glyph-name="uni0C95" unicode="&#xc95;" horiz-adv-x="505" 
d="M465 360v-66h-112c42 -31 68 -82 68 -137c0 -93 -73 -171 -167 -171c-97 0 -170 78 -170 171c0 55 26 106 69 137h-113v66h194c8 12 13 26 13 43c0 11 -2 22 -6 31h-201v75h280c61 0 92 28 92 67c0 34 -22 59 -46 68l15 20c43 -16 74 -57 74 -112
c0 -72 -53 -118 -135 -118h-45c4 -11 6 -22 6 -33c0 -14 -3 -28 -9 -41h193zM374 182c0 70 -58 115 -120 115c-63 0 -122 -45 -122 -115c0 -65 50 -111 122 -111c71 0 120 46 120 111z" />
    <glyph glyph-name="uni0C96" unicode="&#xc96;" horiz-adv-x="767" 
d="M555 513c70 0 167 -98 167 -271c0 -147 -81 -256 -194 -256c-65 0 -115 40 -162 86c-41 -52 -99 -86 -172 -86c-94 0 -154 60 -154 133c0 68 52 112 128 112s131 -45 189 -87c26 37 40 85 40 141c0 112 -61 170 -131 170c-49 0 -81 -29 -81 -66c0 -20 9 -38 22 -38
c3 0 4 1 4 6c0 30 17 51 44 51c28 0 49 -23 49 -51c0 -29 -24 -57 -68 -57c-56 0 -90 50 -90 104c0 65 51 116 122 116c89 0 169 -75 169 -233c0 -59 -14 -120 -41 -170c39 -26 82 -46 134 -46c86 0 157 66 157 181c0 92 -47 158 -83 168c-26 7 -46 4 -68 10
c-18 5 -29 21 -29 40c0 23 16 43 48 43zM202 71c50 0 92 15 124 40c-47 45 -95 85 -156 85c-53 0 -76 -29 -76 -58c0 -34 31 -67 108 -67z" />
    <glyph glyph-name="uni0C97" unicode="&#xc97;" horiz-adv-x="585" 
d="M384 434c91 -74 145 -258 145 -383v-51h-78v78c0 169 -54 360 -159 360s-159 -191 -159 -360v-78h-78v51c0 125 54 309 145 383h-140v75h328c61 0 92 27 92 67c0 34 -22 59 -46 68l15 20c43 -16 74 -57 74 -112c0 -72 -54 -118 -135 -118h-4z" />
    <glyph glyph-name="uni0C98" unicode="&#xc98;" horiz-adv-x="836" 
d="M631 552c0 -72 -54 -118 -135 -118h-445v75h445c61 0 92 27 92 67c0 34 -22 59 -46 68l15 20c43 -16 74 -57 74 -112zM710 449c62 -38 91 -87 91 -139c0 -62 -40 -109 -100 -109c-27 0 -52 9 -76 45c3 -24 5 -48 5 -72c0 -90 -37 -188 -128 -188c-69 0 -138 57 -161 140
h-2c-23 -83 -98 -140 -166 -140c-74 0 -123 70 -123 161c0 85 43 140 102 140c49 0 73 -37 86 -79l-16 -15c-11 24 -36 34 -62 34c-41 0 -70 -26 -70 -72c0 -51 35 -84 86 -84c75 0 145 74 159 150h9c14 -76 79 -150 151 -150c69 0 99 70 99 131c0 68 -17 128 -37 170l23 18
c6 -9 11 -19 15 -30c37 -67 66 -85 97 -85c37 0 60 26 60 61c0 31 -18 63 -61 93zM279 331c0 32 25 59 59 59c33 0 60 -27 60 -59c0 -33 -27 -60 -60 -60c-34 0 -59 27 -59 60zM331 16h16c14 -120 43 -133 43 -177c0 -40 -25 -59 -50 -59c-28 0 -53 23 -53 59
c0 44 31 57 44 177z" />
    <glyph glyph-name="uni0C99" unicode="&#xc99;" horiz-adv-x="715" 
d="M591 251c34 -29 63 -79 63 -134c0 -79 -61 -131 -127 -131c-68 0 -136 57 -159 140h-2c-23 -83 -91 -140 -160 -140c-66 0 -127 52 -127 136c0 71 43 116 82 156c32 33 63 66 63 107c0 42 -34 67 -76 67c-47 0 -70 -31 -70 -67c0 -13 3 -25 10 -40l-20 -15
c-21 22 -29 50 -29 76c0 58 39 113 114 113c76 0 124 -53 124 -111c56 69 135 128 222 128c91 0 130 -64 130 -128c0 -48 -21 -76 -44 -100l-19 16c12 13 20 31 20 54c0 52 -41 89 -113 89c-79 0 -150 -44 -238 -160v1c-15 -18 -31 -35 -47 -51c-34 -34 -58 -70 -58 -105
c0 -38 27 -81 81 -81c72 0 137 74 151 150h9c13 -75 79 -150 153 -150c57 0 82 45 82 85c0 27 -12 56 -36 80zM345 331c0 30 23 54 53 54s53 -24 53 -54c0 -29 -23 -53 -53 -53s-53 24 -53 53z" />
    <glyph glyph-name="uni0C9A" unicode="&#xc9a;" horiz-adv-x="737" 
d="M583 394c0 -10 -2 -19 -6 -29h88v-71h-74c41 -37 63 -97 63 -159c0 -97 -61 -149 -127 -149c-68 0 -136 57 -159 140h-2c-23 -83 -91 -140 -160 -140c-66 0 -127 52 -127 136c0 71 43 116 82 156c32 33 63 66 63 107c0 42 -34 67 -76 67c-47 0 -70 -31 -70 -67
c0 -13 3 -25 10 -40l-20 -15c-21 22 -29 50 -29 76c0 58 39 113 114 113c76 0 124 -54 124 -112s-48 -109 -89 -150c-34 -34 -58 -70 -58 -105c0 -38 27 -81 81 -81c72 0 137 74 151 150h9c13 -75 78 -150 152 -150c58 0 83 45 83 92c0 48 -28 101 -71 131h-146v71h150
c7 9 10 19 10 30c0 14 -6 28 -18 39h-142v75h152c61 0 92 27 92 67c0 34 -22 59 -46 68l15 20c43 -16 74 -57 74 -112c0 -63 -41 -106 -106 -116c8 -13 13 -27 13 -42z" />
    <glyph glyph-name="uni0C9B" unicode="&#xc9b;" horiz-adv-x="790" 
d="M631 439c55 -47 94 -119 94 -215c0 -146 -62 -238 -163 -238c-80 0 -148 57 -171 140h-2c-23 -83 -91 -140 -170 -140c-102 0 -179 96 -179 266c0 140 68 267 170 267c71 0 107 -62 107 -125c0 -69 -42 -121 -108 -121c-55 0 -98 35 -98 111v10c-21 -34 -31 -81 -31 -131
c0 -114 57 -192 142 -192c81 0 149 74 163 150h9c13 -75 79 -150 161 -150c89 0 131 87 131 166c0 135 -79 197 -208 197h-48v75h161c61 0 92 27 92 67c0 34 -22 59 -46 68l15 20c43 -16 74 -57 74 -112c0 -53 -37 -99 -95 -113zM215 454c-30 0 -54 -9 -74 -25
c-1 -7 -2 -15 -2 -21c0 -43 31 -64 76 -64c44 0 72 21 72 57c0 39 -34 53 -72 53zM383 16h16c14 -120 43 -133 43 -177c0 -40 -25 -59 -50 -59c-28 0 -53 23 -53 59c0 44 31 57 44 177z" />
    <glyph glyph-name="uni0C9C" unicode="&#xc9c;" horiz-adv-x="715" 
d="M591 251c34 -29 63 -79 63 -134c0 -79 -61 -131 -127 -131c-68 0 -136 57 -159 140h-2c-23 -83 -91 -140 -160 -140c-66 0 -127 52 -127 136c0 71 43 116 82 156c32 33 63 66 63 107c0 42 -34 67 -76 67c-47 0 -70 -31 -70 -67c0 -13 3 -25 10 -40l-20 -15
c-21 22 -29 50 -29 76c0 58 39 113 114 113c43 0 77 -17 99 -43c77 -84 146 -116 211 -116c54 0 94 27 94 83c0 26 -11 51 -36 76l19 17c37 -33 59 -78 59 -122c0 -75 -53 -127 -128 -127c-63 0 -128 41 -194 114c-3 -56 -49 -104 -89 -144c-34 -34 -58 -70 -58 -105
c0 -38 27 -81 81 -81c72 0 137 74 151 150h9c13 -75 79 -150 153 -150c57 0 82 45 82 85c0 27 -12 56 -36 80z" />
    <glyph glyph-name="uni0C9D" unicode="&#xc9d;" horiz-adv-x="1221" 
d="M999 513c71 0 167 -98 167 -271c0 -147 -80 -256 -193 -256c-70 0 -133 50 -163 136c-31 -82 -94 -136 -173 -136c-65 0 -123 42 -156 117c-37 -72 -110 -117 -201 -117c-136 0 -230 100 -230 240c0 87 44 169 116 208h-116v75h325c61 0 92 27 92 67c0 34 -22 59 -46 68
l15 20c43 -16 74 -57 74 -112c0 -67 -46 -111 -118 -117c73 -39 118 -121 118 -209c0 -25 -3 -49 -9 -71c35 -62 80 -84 136 -84c88 0 158 66 158 184c0 89 -48 150 -84 165c-24 10 -45 3 -68 10c-16 5 -28 21 -28 40c0 23 17 43 49 43c70 0 166 -98 166 -271
c0 -22 -2 -42 -5 -62c36 -81 86 -109 148 -109c88 0 158 66 158 184c0 89 -47 152 -84 165c-24 8 -45 3 -68 10c-16 5 -28 21 -28 40c0 23 17 43 48 43zM280 71c109 0 185 74 185 177c0 101 -84 185 -185 185s-185 -85 -185 -186c0 -103 75 -176 185 -176zM797 16h16
c14 -120 43 -133 43 -177c0 -40 -25 -59 -51 -59c-27 0 -52 23 -52 59c0 44 31 57 44 177z" />
    <glyph glyph-name="uni0C9E" unicode="&#xc9e;" horiz-adv-x="947" 
d="M791 519c72 0 121 -52 121 -131c0 -32 -8 -65 -29 -92l-31 21c8 8 13 23 13 41c0 44 -31 84 -89 84c-82 0 -131 -81 -146 -155c-6 -63 -30 -124 -66 -175c48 -55 74 -120 74 -165c0 -31 -12 -44 -28 -44c-21 0 -31 21 -31 52c0 38 -14 84 -42 124
c-52 -56 -122 -93 -196 -93c-91 0 -154 52 -154 119c0 63 57 111 151 111c80 0 145 -30 194 -72c39 39 63 93 63 156c0 90 -52 141 -113 141c-84 0 -140 -84 -152 -158h-10c-14 75 -64 159 -154 159c-58 0 -89 -40 -89 -84c0 -18 5 -33 13 -41l-31 -21c-21 27 -29 60 -29 92
c0 79 49 131 123 131c82 0 148 -58 171 -142h2c23 84 88 142 161 142c74 0 123 -51 139 -139c23 82 89 139 165 139zM240 124c0 -35 51 -53 111 -53c57 0 110 17 152 48c-39 38 -93 65 -160 65c-65 0 -103 -29 -103 -60z" />
    <glyph glyph-name="uni0C9F" unicode="&#xc9f;" horiz-adv-x="789" 
d="M580 420c93 -24 145 -100 145 -206c0 -136 -62 -228 -173 -228c-70 0 -138 57 -161 140h-2c-23 -83 -91 -140 -161 -140c-111 0 -188 96 -188 255c0 107 45 197 117 227c-38 22 -67 56 -67 98c0 54 46 100 130 105l9 -22c-52 -12 -75 -43 -75 -88c0 -32 14 -57 46 -82h10
c71 0 107 -62 107 -128s-42 -118 -105 -118c-58 0 -101 35 -101 108c0 8 0 16 1 27c-22 -29 -32 -70 -32 -116c0 -103 57 -181 148 -181c75 0 143 74 157 150h9c13 -75 79 -150 152 -150c88 0 140 67 140 156c0 75 -47 151 -145 159l-16 39c66 39 97 84 97 132
c0 45 -29 79 -82 94l12 20c86 -8 131 -58 131 -117c0 -58 -46 -101 -103 -134zM287 361c0 39 -34 53 -72 53c-29 0 -53 -7 -73 -19c-1 -9 -3 -20 -3 -27c0 -43 31 -64 73 -64c47 0 75 21 75 57z" />
    <glyph glyph-name="uni0CA0" unicode="&#xca0;" horiz-adv-x="560" 
d="M392 435c73 -39 118 -121 118 -209c0 -140 -94 -240 -230 -240s-230 100 -230 240c0 87 44 169 116 208h-116v75h325c61 0 92 27 92 67c0 34 -22 59 -46 68l15 20c43 -16 74 -57 74 -112c0 -67 -46 -111 -118 -117zM280 71c109 0 185 74 185 177c0 101 -84 185 -185 185
s-185 -85 -185 -186c0 -103 75 -176 185 -176zM280 321c34 0 59 -26 59 -60s-25 -58 -59 -58s-60 24 -60 58s26 60 60 60z" />
    <glyph glyph-name="uni0CA1" unicode="&#xca1;" horiz-adv-x="700" 
d="M596 292c33 -47 49 -112 49 -161c0 -98 -63 -145 -132 -145c-76 0 -144 57 -167 140h-2c-23 -83 -91 -140 -162 -140c-65 0 -127 47 -127 164c0 132 75 234 170 284h-170v75h444c61 0 92 27 92 67c0 34 -22 59 -46 68l15 20c43 -16 74 -57 74 -112
c0 -72 -54 -118 -135 -118h-12c59 -30 105 -79 109 -142zM505 71c59 0 94 42 94 109c0 21 -4 43 -10 62c-16 -39 -53 -57 -91 -57c-58 0 -100 44 -100 91c0 39 29 79 88 79c25 0 47 -7 66 -20c-29 52 -109 106 -198 106c-141 0 -250 -141 -250 -260c0 -67 34 -110 87 -110
c70 0 136 74 150 150h9c14 -76 79 -150 155 -150zM563 288c-18 23 -44 38 -74 38c-34 0 -52 -19 -52 -42c0 -22 17 -41 58 -41c45 0 65 23 68 45z" />
    <glyph glyph-name="uni0CA2" unicode="&#xca2;" horiz-adv-x="700" 
d="M596 292c33 -47 49 -112 49 -161c0 -98 -63 -145 -132 -145c-76 0 -144 57 -167 140h-2c-23 -83 -91 -140 -162 -140c-65 0 -127 47 -127 164c0 132 75 234 170 284h-170v75h444c61 0 92 27 92 67c0 34 -22 59 -46 68l15 20c43 -16 74 -57 74 -112
c0 -72 -54 -118 -135 -118h-12c59 -30 105 -79 109 -142zM505 71c59 0 94 42 94 109c0 21 -4 43 -10 62c-16 -39 -53 -57 -91 -57c-58 0 -100 44 -100 91c0 39 29 79 88 79c25 0 47 -7 66 -20c-29 52 -109 106 -198 106c-140 0 -250 -141 -250 -260c0 -67 34 -110 87 -110
c70 0 136 74 150 150h9c14 -76 79 -150 155 -150zM563 288c-18 23 -44 38 -74 38c-34 0 -52 -19 -52 -42c0 -22 17 -41 58 -41c45 0 65 23 68 45zM336 16h16c14 -120 43 -133 43 -177c0 -40 -25 -59 -51 -59c-27 0 -52 23 -52 59c0 44 31 57 44 177z" />
    <glyph glyph-name="uni0CA3" unicode="&#xca3;" horiz-adv-x="789" 
d="M157 -14c-64 0 -107 50 -107 114c0 63 42 114 102 136v4c-46 11 -102 74 -102 149s58 130 133 130c76 0 138 -58 161 -142h3c23 84 91 142 175 142c124 0 203 -127 203 -284c0 -138 -74 -249 -178 -249c-81 0 -143 65 -143 162c0 89 43 139 101 139c50 0 74 -37 87 -79
l-16 -15c-11 24 -32 34 -59 34c-44 0 -73 -26 -73 -71c0 -52 39 -85 98 -85c76 0 148 57 148 174c0 112 -65 196 -164 196c-98 0 -163 -76 -176 -158h-9c-14 83 -73 158 -155 158c-55 0 -90 -34 -90 -79c0 -53 51 -96 132 -114v-24c-78 -11 -131 -52 -131 -101
c0 -33 23 -57 68 -57c43 0 76 22 97 85l23 -12c-3 -61 -41 -153 -128 -153z" />
    <glyph glyph-name="uni0CA4" unicode="&#xca4;" horiz-adv-x="594" 
d="M449 347c54 -32 90 -86 90 -156c0 -116 -95 -205 -243 -205c-151 0 -236 90 -236 183c0 35 12 71 24 89l24 -4c-7 -14 -11 -32 -11 -49c0 -76 76 -134 196 -134c129 0 200 68 200 144c0 36 -16 67 -42 89c-9 -69 -72 -115 -146 -115c-71 0 -127 41 -127 97s57 94 144 94
c30 0 59 -5 85 -14c-13 32 -44 57 -77 68h-275v75h339c61 0 92 27 92 67c0 34 -22 59 -46 68l15 20c43 -16 74 -57 74 -112c0 -72 -54 -118 -135 -118h-3c27 -18 51 -49 58 -87zM308 247c57 0 102 30 106 80c-25 11 -55 17 -87 17c-56 0 -94 -19 -94 -50
c0 -29 30 -47 75 -47z" />
    <glyph glyph-name="uni0CA5" unicode="&#xca5;" horiz-adv-x="690" 
d="M469 434c91 -49 166 -151 166 -281c0 -120 -63 -167 -127 -167c-71 0 -139 57 -162 140h-2c-23 -83 -91 -140 -162 -140c-65 0 -127 47 -127 165c0 131 75 233 166 283h-166v75h444c61 0 92 27 92 67c0 34 -22 59 -46 68l15 20c43 -16 74 -57 74 -112
c0 -72 -54 -118 -135 -118h-30zM499 71c53 0 87 43 87 109c0 120 -109 261 -241 261s-241 -141 -241 -260c0 -67 34 -110 87 -110c70 0 136 74 150 150h9c14 -76 79 -150 149 -150zM346 375c33 0 59 -27 59 -60s-26 -59 -59 -59s-59 26 -59 59s26 60 59 60zM336 16h16
c14 -120 43 -133 43 -177c0 -40 -25 -59 -51 -59c-27 0 -52 23 -52 59c0 44 31 57 44 177z" />
    <glyph glyph-name="uni0CA6" unicode="&#xca6;" horiz-adv-x="691" 
d="M469 434c91 -49 166 -151 166 -281c0 -120 -63 -167 -127 -167c-71 0 -139 57 -162 140h-2c-23 -83 -91 -140 -162 -140c-65 0 -127 47 -127 165c0 131 75 233 166 283h-166v75h444c61 0 92 27 92 67c0 34 -22 59 -46 68l15 20c43 -16 74 -57 74 -112
c0 -72 -54 -118 -135 -118h-30zM499 71c53 0 87 43 87 109c0 120 -109 261 -241 261s-241 -141 -241 -260c0 -67 34 -110 87 -110c70 0 136 74 150 150h9c14 -76 79 -150 149 -150z" />
    <glyph glyph-name="uni0CA7" unicode="&#xca7;" horiz-adv-x="690" 
d="M469 434c91 -49 166 -151 166 -281c0 -120 -63 -167 -127 -167c-71 0 -139 57 -162 140h-2c-23 -83 -91 -140 -162 -140c-65 0 -127 47 -127 165c0 131 75 233 166 283h-166v75h444c61 0 92 27 92 67c0 34 -22 59 -46 68l15 20c43 -16 74 -57 74 -112
c0 -72 -54 -118 -135 -118h-30zM499 71c53 0 87 43 87 109c0 120 -109 261 -241 261s-241 -141 -241 -260c0 -67 34 -110 87 -110c70 0 136 74 150 150h9c14 -76 79 -150 149 -150zM336 16h16c14 -120 43 -133 43 -177c0 -40 -25 -59 -51 -59c-27 0 -52 23 -52 59
c0 44 31 57 44 177z" />
    <glyph glyph-name="uni0CA8" unicode="&#xca8;" horiz-adv-x="614" 
d="M358 434c129 -40 201 -142 201 -258c0 -104 -63 -190 -153 -190c-72 0 -90 56 -109 112c-19 57 -38 114 -113 114c-66 0 -99 -41 -99 -90s32 -95 77 -110c31 -11 47 -32 47 -52c0 -17 -11 -26 -28 -26c-71 0 -131 112 -131 197c0 93 59 163 135 163c70 0 93 -57 117 -114
c23 -55 45 -109 109 -109c57 0 100 45 100 123c0 117 -101 204 -247 238l-14 2h-200v75h365c61 0 92 28 92 68c0 33 -22 58 -46 67l15 20c43 -16 74 -57 74 -112c0 -72 -53 -118 -135 -118h-57z" />
    <glyph glyph-name="uni0CAA" unicode="&#xcaa;" horiz-adv-x="684" 
d="M50 434v75h443c61 0 92 27 92 67c0 34 -22 59 -46 68l15 20c43 -16 74 -57 74 -112c0 -72 -54 -118 -135 -118h-443zM174 -14c-75 0 -124 70 -124 162c0 84 43 139 102 139c49 0 73 -37 86 -79l-16 -15c-13 23 -36 34 -62 34c-41 0 -70 -26 -70 -72c0 -51 35 -84 86 -84
c75 0 145 74 159 150h9c14 -76 78 -150 152 -150c67 0 103 60 103 140c0 39 -10 66 -26 83c-16 15 -36 18 -50 31c-9 8 -13 18 -13 29c0 23 17 40 42 40c62 0 77 -103 77 -185c0 -125 -37 -223 -128 -223c-69 0 -137 57 -160 140h-2c-23 -83 -98 -140 -165 -140zM342 271
c-34 0 -59 27 -59 60c0 32 25 59 59 59c33 0 60 -27 60 -59c0 -33 -27 -60 -60 -60z" />
    <glyph glyph-name="uni0CAB" unicode="&#xcab;" horiz-adv-x="684" 
d="M50 434v75h443c61 0 92 27 92 67c0 34 -22 59 -46 68l15 20c43 -16 74 -57 74 -112c0 -72 -54 -118 -135 -118h-443zM174 -14c-75 0 -124 70 -124 162c0 84 43 139 102 139c49 0 73 -37 86 -79l-16 -15c-13 23 -36 34 -62 34c-41 0 -70 -26 -70 -72c0 -51 35 -84 86 -84
c75 0 145 74 159 150h9c14 -76 78 -150 152 -150c67 0 103 60 103 140c0 39 -10 66 -26 83c-16 15 -36 18 -50 31c-9 8 -13 18 -13 29c0 23 17 40 42 40c62 0 77 -103 77 -185c0 -125 -37 -223 -128 -223c-69 0 -137 57 -160 140h-2c-23 -83 -98 -140 -165 -140zM342 271
c-34 0 -59 27 -59 60c0 32 25 59 59 59c33 0 60 -27 60 -59c0 -33 -27 -60 -60 -60zM339 -220c-27 0 -52 23 -52 59c0 44 31 57 44 177h16c14 -120 43 -133 43 -177c0 -40 -25 -59 -51 -59z" />
    <glyph glyph-name="uni0CAC" unicode="&#xcac;" horiz-adv-x="740" 
d="M526 -14c-67 0 -135 57 -158 140h-2c-23 -83 -91 -140 -160 -140c-66 0 -127 52 -127 136c0 71 43 116 82 156c32 33 63 66 63 107c0 42 -34 67 -76 67c-47 0 -70 -31 -70 -67c0 -13 3 -25 10 -40l-20 -15c-21 22 -29 50 -29 76c0 58 39 113 114 113
c76 0 124 -54 124 -112s-48 -109 -89 -150c-34 -34 -58 -70 -58 -105c0 -38 27 -81 81 -81c72 0 137 74 151 150h9c13 -75 79 -150 153 -150c72 0 125 58 125 164c0 89 -46 172 -83 185c-24 8 -45 3 -68 10c-16 5 -28 21 -28 40c0 23 17 43 48 43c71 0 166 -118 166 -291
c0 -123 -45 -236 -158 -236z" />
    <glyph glyph-name="uni0CAD" unicode="&#xcad;" horiz-adv-x="747" 
d="M542 434c82 -46 144 -132 144 -245c0 -105 -54 -203 -151 -203c-76 0 -144 57 -167 140h-2c-23 -83 -91 -140 -160 -140c-66 0 -127 52 -127 136c0 71 43 116 82 156c32 33 63 66 63 107c0 42 -34 67 -76 67c-47 0 -70 -31 -70 -67c0 -13 3 -25 10 -40l-20 -15
c-21 22 -29 50 -29 76c0 58 39 113 114 113c76 0 124 -54 124 -112s-48 -109 -89 -150c-34 -34 -58 -70 -58 -105c0 -38 27 -81 81 -81c72 0 137 74 151 150h9c13 -75 79 -150 161 -150c67 0 116 50 116 124c0 106 -99 229 -251 239h-37v75h191c61 0 92 27 92 67
c0 34 -22 59 -46 68l15 20c43 -16 74 -57 74 -112c0 -72 -54 -118 -135 -118h-9zM360 16h16c14 -120 43 -133 43 -177c0 -40 -25 -59 -51 -59c-27 0 -52 23 -52 59c0 44 31 57 44 177z" />
    <glyph glyph-name="uni0CAE" unicode="&#xcae;" horiz-adv-x="1037" 
d="M810 513c71 0 167 -98 167 -271c0 -147 -80 -256 -193 -256c-65 0 -124 47 -162 116c-16 -64 -54 -116 -120 -116c-69 0 -138 57 -161 140h-2c-23 -83 -98 -140 -165 -140c-75 0 -124 70 -124 161c0 85 43 140 102 140c49 0 73 -37 86 -79l-16 -15c-11 24 -36 34 -61 34
c-42 0 -71 -26 -71 -72c0 -51 35 -84 85 -84c76 0 146 74 160 150h9c14 -76 79 -150 151 -150c59 0 98 50 98 124c0 116 -99 229 -251 239h-292v75h443c61 0 92 27 92 67c0 34 -22 59 -46 68l15 20c43 -16 74 -57 74 -112c0 -72 -54 -118 -135 -118h-2
c80 -48 140 -138 140 -256v-2c37 -67 91 -105 155 -105c86 0 156 66 156 184c0 89 -47 151 -84 165c-21 8 -45 3 -68 10c-16 5 -28 21 -28 40c0 23 17 43 48 43z" />
    <glyph glyph-name="uni0CAF" unicode="&#xcaf;" horiz-adv-x="1221" 
d="M999 513c71 0 167 -98 167 -271c0 -147 -80 -256 -190 -256c-72 0 -135 50 -166 136c-31 -82 -93 -136 -170 -136c-70 0 -128 47 -159 128c-37 -78 -108 -128 -201 -128c-139 0 -230 113 -230 264c0 152 92 269 231 269s229 -117 229 -269c0 -29 -3 -57 -10 -83
c34 -71 78 -96 134 -96c91 0 161 66 161 184c0 89 -65 156 -112 179h-148v75h192c61 0 92 27 92 67c0 34 -22 59 -46 68l15 20c43 -16 74 -57 74 -112c0 -57 -34 -98 -88 -112c32 -45 56 -112 56 -198c0 -22 -2 -42 -5 -62c36 -81 85 -109 145 -109c91 0 161 66 161 184
c0 89 -47 152 -84 165c-24 8 -45 3 -65 9c-19 6 -31 22 -31 41c0 23 17 43 48 43zM280 71c101 0 192 73 192 183c0 115 -80 187 -191 187s-191 -72 -191 -182c0 -115 89 -188 190 -188z" />
    <glyph glyph-name="uni0CB0" unicode="&#xcb0;" horiz-adv-x="560" 
d="M392 435c73 -39 118 -121 118 -209c0 -140 -94 -240 -230 -240s-230 100 -230 240c0 87 44 169 116 208h-116v75h325c61 0 92 27 92 67c0 34 -22 59 -46 68l15 20c43 -16 74 -57 74 -112c0 -67 -46 -111 -118 -117zM280 71c109 0 185 74 185 177c0 101 -84 185 -185 185
s-185 -85 -185 -186c0 -103 75 -176 185 -176z" />
    <glyph glyph-name="uni0CB2" unicode="&#xcb2;" horiz-adv-x="717" 
d="M504 514c68 0 153 -98 153 -239c0 -159 -105 -288 -300 -289c-177 0 -297 118 -297 297c0 131 68 236 166 236c75 0 111 -62 111 -125c0 -69 -42 -121 -108 -121c-55 0 -98 35 -98 108c0 9 0 17 2 29c-22 -28 -33 -66 -33 -109c0 -129 99 -230 268 -230
c152 0 254 85 254 216c0 78 -36 121 -73 134c-24 8 -45 3 -68 10c-16 5 -28 21 -28 39c0 24 20 44 51 44zM235 454c-29 0 -53 -7 -72 -18c-2 -10 -4 -21 -4 -28c0 -43 31 -64 76 -64c44 0 72 21 72 57c0 39 -34 53 -72 53z" />
    <glyph glyph-name="uni0CB5" unicode="&#xcb5;" horiz-adv-x="686" 
d="M491 434c80 -48 140 -138 140 -256c0 -94 -43 -192 -134 -192c-69 0 -139 57 -162 140h-2c-23 -83 -92 -140 -159 -140c-75 0 -124 70 -124 161c0 85 44 140 102 140c50 0 74 -37 85 -79l-16 -15c-9 24 -32 34 -57 34c-42 0 -74 -23 -74 -72c0 -51 35 -84 85 -84
c76 0 140 74 154 150h9c14 -76 82 -150 154 -150c57 0 101 50 101 124c0 116 -99 229 -251 239h-292v75h443c61 0 92 27 92 67c0 34 -22 59 -46 68l15 20c43 -16 74 -57 74 -112c0 -72 -54 -118 -135 -118h-2z" />
    <glyph glyph-name="uni0CB6" unicode="&#xcb6;" horiz-adv-x="578" 
d="M413 434c66 -39 106 -108 106 -198c0 -146 -101 -250 -249 -250c-137 0 -215 80 -215 168c0 68 47 107 154 107c62 0 121 12 121 82c0 56 -38 96 -85 96c-39 0 -73 -27 -73 -62c0 -17 8 -30 17 -30c4 0 5 4 5 7c0 22 14 39 34 39c22 0 38 -18 38 -39
c0 -23 -18 -46 -54 -46c-45 0 -71 34 -71 71c0 20 7 39 23 55h-106v75h345c61 0 92 27 92 67c0 34 -22 59 -46 68l15 20c43 -16 74 -57 74 -112c0 -69 -50 -114 -125 -118zM270 71c120 0 199 67 199 186c0 116 -75 178 -156 183c32 -20 49 -57 49 -100
c0 -66 -40 -109 -153 -109c-84 0 -107 -22 -107 -53c0 -52 63 -107 168 -107z" />
    <glyph glyph-name="uni0CB7" unicode="&#xcb7;" horiz-adv-x="721" 
d="M633 552c0 -72 -54 -118 -135 -118h-443v75h443c61 0 92 27 92 67c0 34 -22 59 -46 68l15 20c43 -16 74 -57 74 -112zM697 -14c9 -11 14 -21 14 -34c0 -22 -15 -38 -37 -38c-16 0 -27 8 -37 21c-16 20 -30 54 -50 89c-20 -24 -47 -38 -81 -38c-69 0 -137 57 -160 140h-2
c-23 -83 -98 -140 -165 -140c-75 0 -124 70 -124 162c0 84 43 139 102 139c49 0 73 -37 86 -79l-16 -15c-13 23 -36 34 -62 34c-41 0 -70 -26 -70 -72c0 -51 35 -84 86 -84c75 0 145 74 159 150h9c14 -76 78 -150 152 -150c17 0 32 4 45 11l-125 160l21 18l132 -154
c20 26 30 62 30 105c0 39 -10 66 -26 83c-16 15 -36 18 -50 31c-9 8 -13 18 -13 29c0 23 17 40 42 40c62 0 77 -103 77 -185c0 -55 -7 -105 -23 -143c34 -35 68 -59 86 -80zM288 331c0 32 25 59 59 59c33 0 60 -27 60 -59c0 -33 -27 -60 -60 -60c-34 0 -59 27 -59 60z" />
    <glyph glyph-name="uni0CB8" unicode="&#xcb8;" horiz-adv-x="664" 
d="M45 434v75h434c61 0 92 27 92 67c0 34 -22 59 -46 68l15 20c43 -16 74 -57 74 -112c0 -72 -54 -118 -135 -118h-434zM309 288c-36 0 -58 26 -58 59s22 57 58 57s58 -24 58 -57s-22 -59 -58 -59zM93 -14l-29 8c0 150 60 253 155 253c133 0 150 -176 263 -176
c54 0 84 43 84 117c0 61 -26 122 -68 172l23 17c60 -58 89 -140 89 -227c0 -88 -33 -164 -112 -164c-111 0 -133 184 -280 184c-66 0 -118 -50 -125 -184z" />
    <glyph glyph-name="uni0CB9" unicode="&#xcb9;" horiz-adv-x="724" 
d="M503 340c95 0 166 -74 166 -178c0 -98 -71 -176 -166 -176c-67 0 -114 40 -141 104c-27 -64 -75 -104 -141 -104c-95 0 -166 78 -166 176c0 104 71 178 166 178c55 0 92 -20 119 -53c-4 81 -32 136 -103 147h-182v75h478c61 0 92 27 92 67c0 34 -22 59 -46 68l15 20
c43 -16 74 -57 74 -112c0 -72 -54 -118 -135 -118h-216c39 -31 57 -80 62 -154c27 37 65 60 124 60zM221 71c67 0 120 42 120 116c0 72 -52 115 -120 115c-62 0 -116 -46 -116 -115c0 -74 54 -116 116 -116zM497 71c67 0 122 42 122 116c0 69 -54 115 -122 115
c-62 0 -114 -43 -114 -115c0 -74 52 -116 114 -116z" />
    <glyph glyph-name="uni0CB1" unicode="&#xcb1;" horiz-adv-x="797" 
d="M563 519c102 0 170 -127 170 -276c0 -161 -77 -257 -176 -257c-77 0 -147 57 -170 140h-2c-23 -83 -87 -140 -166 -140c-102 0 -179 96 -179 256c0 150 68 277 170 277c71 0 107 -62 107 -125c0 -18 -3 -35 -8 -50h155c-5 15 -8 32 -8 50c0 63 36 125 107 125zM552 71
c84 0 141 78 141 194c0 100 -42 189 -135 189c-38 0 -72 -15 -72 -54c0 -35 28 -56 75 -56h50v-71h-448v71h49c47 0 75 21 75 56c0 39 -34 54 -72 54c-93 0 -135 -89 -135 -188c0 -117 57 -195 141 -195c82 0 146 74 160 150h9c13 -75 80 -150 162 -150z" />
    <glyph glyph-name="uni0CB3" unicode="&#xcb3;" horiz-adv-x="610" 
d="M600 552c0 -54 -31 -94 -81 -110c26 -19 44 -48 44 -88c0 -93 -97 -129 -182 -158c28 -20 46 -49 46 -93c0 -69 -44 -117 -116 -117c-66 0 -111 42 -111 101c0 37 18 63 45 84c-101 16 -215 48 -215 192c0 97 65 156 150 156c82 0 115 -52 115 -108
c0 -48 -24 -101 -90 -101c-56 0 -92 40 -92 100c0 9 1 17 2 25c-29 -16 -50 -42 -50 -79c0 -76 84 -93 171 -111c36 -8 72 -15 103 -27c10 4 20 7 30 11c79 28 157 56 157 124c0 47 -37 81 -107 81h-35v75h81c61 0 92 27 92 67c0 34 -22 59 -46 68l15 20
c43 -16 74 -57 74 -112zM194 454c-17 0 -33 -2 -49 -7c-1 -6 -2 -13 -2 -20c0 -33 20 -54 63 -54c39 0 59 17 59 39c0 19 -15 42 -71 42zM391 112c0 32 -42 42 -97 51c-27 -13 -45 -29 -45 -50c0 -28 29 -42 71 -42c38 0 71 12 71 41z" />
    <glyph glyph-name="uni0CDE" unicode="&#xcde;" horiz-adv-x="797" 
d="M563 519c102 0 170 -127 170 -265c0 -172 -77 -268 -177 -268c-76 0 -146 57 -169 140h-2c-23 -83 -87 -140 -166 -140c-102 0 -179 96 -179 263c0 143 68 270 170 270c71 0 107 -62 107 -125c0 -69 -42 -121 -108 -121c-55 0 -98 35 -98 108v14
c-21 -34 -31 -80 -31 -129c0 -117 57 -195 141 -195c82 0 146 74 160 150h9c13 -75 80 -150 162 -150c84 0 141 78 141 194c0 49 -10 95 -31 130v-14c0 -73 -43 -108 -97 -108c-67 0 -109 52 -109 121c0 63 36 125 107 125zM215 454c-30 0 -54 -9 -74 -25
c-1 -7 -2 -15 -2 -21c0 -43 31 -64 76 -64c44 0 72 21 72 57c0 39 -34 53 -72 53zM559 344c44 0 75 21 75 64c0 5 -1 13 -2 21c-20 16 -45 25 -75 25c-37 0 -71 -14 -71 -53c0 -36 28 -57 73 -57z" />
    <glyph glyph-name="uni0C82" unicode="&#xc82;" horiz-adv-x="524" 
d="M262 -14c-116 0 -212 123 -212 264c0 142 96 269 213 269c116 0 211 -127 211 -269c0 -141 -96 -264 -212 -264zM262 71c85 0 176 73 176 183c0 115 -81 187 -175 187c-95 0 -176 -72 -176 -182c0 -115 90 -188 175 -188z" />
    <glyph glyph-name="uni0C81" unicode="&#xc81;" 
d="M-3 781c-33 0 -57 23 -57 55c0 34 24 56 57 56c32 0 55 -22 55 -56c0 -32 -23 -55 -55 -55zM-2 611c-90 0 -148 73 -151 166h30c11 -60 48 -98 121 -98c74 0 112 38 122 98h30c-1 -93 -60 -166 -152 -166z" />
    <glyph glyph-name="uni0C83" unicode="&#xc83;" horiz-adv-x="369" 
d="M184 271c-52 0 -94 48 -94 106c0 59 42 107 94 107c53 0 95 -48 95 -107c0 -58 -42 -106 -95 -106zM184 318c33 0 60 26 60 59s-27 60 -60 60c-32 0 -59 -27 -59 -60s27 -59 59 -59zM184 -14c-52 0 -94 49 -94 107s42 107 94 107c53 0 95 -49 95 -107s-42 -107 -95 -107z
M184 34c33 0 60 25 60 59c0 33 -27 60 -60 60c-32 0 -59 -27 -59 -60c0 -34 27 -59 59 -59z" />
    <glyph glyph-name="uni0CCD" unicode="&#xccd;" horiz-adv-x="236" 
d="M66 507c82 -9 117 -65 117 -125c0 -67 -33 -117 -90 -117c-52 0 -101 55 -101 141c0 10 1 19 2 28h-252v75h279c42 68 125 106 204 125l11 -36c-60 -10 -129 -40 -170 -91zM101 334c36 0 52 21 52 51c0 27 -16 49 -79 49h-42c-1 -8 -2 -16 -2 -24c0 -41 25 -76 71 -76z
" />
    <glyph glyph-name="uni0CBC" unicode="&#xcbc;" 
d="M-339 -177c-32 0 -57 25 -57 57c0 33 25 57 57 57c33 0 57 -24 57 -57c0 -32 -24 -57 -57 -57zM-137 -177c-32 0 -57 25 -57 57c0 33 25 57 57 57c33 0 57 -24 57 -57c0 -32 -24 -57 -57 -57z" />
    <glyph glyph-name="uni0CBD" unicode="&#xcbd;" horiz-adv-x="406" 
d="M206 -14c-91 0 -159 59 -171 168l24 24c26 -52 79 -85 156 -85c63 0 96 23 96 57c0 79 -185 108 -248 181c-19 23 -25 49 -25 73c0 63 45 115 123 115h195v-82h-192c-52 0 -74 -26 -74 -53c0 -96 271 -100 271 -261c0 -83 -72 -137 -155 -137z" />
    <glyph glyph-name="uni0CE6" unicode="&#xce6;" horiz-adv-x="534" 
d="M267 -14c115 0 212 99 212 265c0 160 -86 268 -212 268s-212 -108 -212 -268c0 -166 97 -265 212 -265zM267 71c-98 0 -172 46 -172 180c0 121 63 183 172 183s172 -62 172 -183c0 -134 -74 -180 -172 -180z" />
    <glyph glyph-name="uni0CE7" unicode="&#xce7;" horiz-adv-x="534" 
d="M267 434c-109 0 -172 -62 -172 -183c0 -94 41 -151 125 -189l-48 -76c-83 79 -117 152 -117 263c0 162 86 270 212 270s212 -108 212 -270c0 -111 -34 -184 -117 -263l-48 76c84 38 125 95 125 189c0 121 -63 183 -172 183z" />
    <glyph glyph-name="uni0CE8" unicode="&#xce8;" horiz-adv-x="498" 
d="M190 379c0 -34 29 -56 73 -56c26 0 46 8 59 23l16 -20c-7 -42 -42 -83 -91 -83c-58 0 -96 58 -96 129c0 78 43 147 124 147c94 0 168 -96 168 -254c0 -160 -87 -279 -276 -279h-142v76h165c144 0 213 85 213 203c0 115 -71 174 -139 174c-43 0 -74 -24 -74 -60z" />
    <glyph glyph-name="uni0CE9" unicode="&#xce9;" horiz-adv-x="598" 
d="M562 109l16 -14c-5 -48 -38 -109 -119 -109c-68 0 -105 42 -140 87c-36 -53 -87 -87 -149 -87c-80 0 -120 56 -120 118c0 65 43 110 115 110c57 0 103 -29 147 -60c15 28 24 65 24 109c0 117 -65 176 -148 176c-43 0 -65 -16 -65 -42c0 -28 25 -43 65 -43
c30 0 54 8 67 23l16 -20c-7 -42 -47 -83 -97 -83c-52 0 -88 45 -88 116c0 72 36 129 113 129c99 0 177 -96 177 -241c0 -54 -10 -106 -28 -151c41 -30 82 -56 131 -56c32 0 61 11 83 38zM174 71c41 0 81 15 111 45c-30 34 -64 61 -119 61c-45 0 -72 -19 -72 -51
c0 -35 32 -55 80 -55z" />
    <glyph glyph-name="uni0CEA" unicode="&#xcea;" horiz-adv-x="629" 
d="M584 370c0 -103 -99 -143 -187 -174c31 -20 50 -49 50 -94c0 -68 -44 -116 -115 -116c-67 0 -112 42 -112 101c0 37 18 63 45 84c-100 17 -215 47 -215 184c0 105 65 164 151 164c81 0 114 -52 114 -105c0 -51 -24 -104 -89 -104c-57 0 -93 40 -93 100c0 9 1 17 2 25
c-29 -16 -50 -42 -50 -79c0 -75 83 -93 167 -111c37 -8 73 -16 105 -28l33 12c79 28 157 56 157 125c0 33 -17 54 -44 64c-15 6 -28 7 -39 7c-11 1 -21 2 -32 5c-16 5 -28 21 -28 41c0 22 15 42 51 42c65 0 129 -63 129 -143zM215 454c-17 0 -34 -2 -50 -7
c-1 -5 -2 -11 -2 -17c0 -36 20 -57 63 -57c39 0 59 18 59 39c0 18 -15 42 -70 42zM411 111c0 32 -44 42 -101 52c-27 -13 -44 -28 -44 -49c0 -29 32 -43 73 -43c39 0 72 12 72 40z" />
    <glyph glyph-name="uni0CEB" unicode="&#xceb;" horiz-adv-x="618" 
d="M573 416c0 -61 -30 -106 -107 -141c26 -48 59 -97 59 -154c0 -54 -29 -102 -77 -128l-38 74c45 12 76 39 76 79c0 35 -24 74 -47 119c-32 -12 -70 -23 -115 -33c-5 -126 -41 -246 -152 -246c-72 0 -112 49 -112 112c0 83 70 123 232 160v4c0 118 -54 177 -135 177
c-43 0 -65 -16 -65 -42c0 -28 25 -43 65 -43c30 0 50 9 66 23l16 -19c-6 -43 -46 -84 -95 -84c-52 0 -89 45 -89 117c0 71 36 128 111 128c97 0 157 -94 158 -254c40 9 74 18 102 28c-15 33 -26 69 -26 109c0 69 37 116 92 116c50 0 81 -41 81 -102zM451 303
c65 26 90 55 90 88s-24 48 -52 48c-30 0 -58 -18 -58 -63c0 -25 8 -49 20 -73zM160 69c64 0 119 52 130 156c-135 -32 -188 -60 -188 -108c0 -32 23 -48 58 -48z" />
    <glyph glyph-name="uni0CEC" unicode="&#xcec;" horiz-adv-x="473" 
d="M258 62h190v-76h-189c-130 0 -209 91 -209 228c0 129 69 216 165 227c3 7 5 15 5 23c0 31 -29 53 -71 53c-31 0 -54 -12 -69 -38l-12 8c0 56 39 110 101 110c53 0 90 -40 90 -102c0 -21 -4 -38 -11 -53c66 -5 111 -47 111 -120c0 -69 -40 -118 -108 -118
c-54 0 -109 32 -109 96c0 20 5 36 12 51c-39 -28 -64 -76 -64 -132c0 -85 59 -157 168 -157zM243 380c-15 0 -29 -2 -42 -6c-16 -18 -28 -35 -28 -56c0 -30 26 -51 76 -51c52 0 80 22 80 53c0 34 -33 60 -86 60z" />
    <glyph glyph-name="uni0CED" unicode="&#xced;" horiz-adv-x="483" 
d="M89 125c0 109 254 125 254 282c0 66 -45 112 -119 112c-80 0 -119 -54 -119 -112c0 -26 8 -55 29 -77l20 15c-6 8 -10 19 -10 30c0 30 26 65 75 65c40 0 71 -23 71 -64c0 -113 -240 -97 -240 -262c0 -82 59 -128 149 -128h249v76h-260c-69 0 -99 26 -99 63z" />
    <glyph glyph-name="uni0CEE" unicode="&#xcee;" horiz-adv-x="628" 
d="M542 434c-54 0 -81 -24 -81 -60c0 -30 19 -57 39 -86c27 -38 56 -79 56 -139c0 -98 -81 -163 -205 -163c-171 0 -291 118 -291 297c0 131 68 236 166 236c75 0 111 -62 111 -128s-42 -118 -108 -118c-55 0 -98 37 -98 111c0 8 0 17 1 26c-22 -27 -32 -65 -32 -106
c0 -133 110 -234 261 -234c99 0 147 47 147 107c0 39 -20 68 -41 99c-23 34 -47 69 -47 119c0 70 46 113 116 113h47v-74h-41zM232 454c-28 0 -51 -6 -70 -17c-1 -9 -3 -19 -3 -29c0 -43 31 -64 76 -64c44 0 72 21 72 57c0 39 -34 53 -75 53z" />
    <glyph glyph-name="uni0CEF" unicode="&#xcef;" horiz-adv-x="552" 
d="M225 434c-83 0 -134 -39 -134 -98c0 -38 21 -69 55 -89c19 66 72 103 133 103c65 0 101 -42 101 -95c0 -54 -37 -104 -119 -104c-30 0 -59 7 -86 19c10 -54 49 -86 101 -97c15 -3 28 -4 39 -4c12 -1 22 -2 32 -6c14 -6 23 -20 23 -35c0 -21 -18 -42 -60 -42
c-80 0 -172 82 -172 203v3c-49 37 -83 94 -83 161c0 93 67 155 166 155h271v-74h-267zM279 318c-51 0 -90 -32 -102 -85c22 -8 48 -12 75 -12c64 0 92 23 92 49c0 23 -21 48 -65 48z" />
    <glyph glyph-name="space" unicode=" " horiz-adv-x="240" 
 />
    <glyph glyph-name="indianrupee" horiz-adv-x="503" 
d="M517 25c10 0 15 -4 15 -11c0 -25 -44 -35 -81 -35c-125 0 -205 131 -242 188c-19 28 -55 97 -92 97c-13 0 -24 2 -32 6c-9 4 -13 8 -13 13c0 7 5 11 16 11c15 0 31 -5 56 -5c66 0 113 51 120 145h-196c-7 0 -14 4 -14 16c0 11 8 28 24 28h187c-6 112 -61 144 -190 144
c-21 0 -25 5 -25 14c0 13 10 20 29 20c20 1 39 1 49 2h1v0h262c7 0 13 -5 13 -17c0 -13 -15 -27 -31 -27h-101c46 -31 81 -77 83 -136h36c7 0 13 -5 13 -17c0 -13 -15 -27 -31 -27h-21c-12 -71 -59 -127 -133 -153c42 -64 53 -80 100 -135c26 -32 54 -61 83 -88
c32 -28 60 -33 115 -33z" />
    <glyph glyph-name="uni25CC" unicode="&#x25cc;" horiz-adv-x="660" 
d="M329 530c-25 0 -44 19 -44 43s19 43 44 43c24 0 43 -19 43 -43s-19 -43 -43 -43zM207 586c27 0 43 -23 43 -44c0 -26 -23 -43 -44 -43c-26 0 -43 23 -43 44c0 27 24 43 44 43zM412 541c0 23 20 43 44 43s43 -20 43 -43s-19 -44 -43 -44c-22 0 -44 21 -44 44zM112 493
c22 0 43 -20 43 -43s-19 -44 -43 -44c-23 0 -44 19 -44 43s20 44 44 44zM507 449c0 26 24 43 43 43c26 0 44 -24 44 -43c0 -24 -20 -44 -44 -44s-43 19 -43 44zM33 322c0 25 19 44 43 44s43 -19 43 -44c0 -24 -19 -43 -43 -43s-43 19 -43 43zM542 322c0 25 19 44 43 44
s43 -19 43 -44c0 -24 -19 -43 -43 -43s-43 19 -43 43zM553 239c23 0 43 -20 43 -44s-20 -43 -43 -43s-44 19 -44 43c0 22 21 44 44 44zM65 195c0 27 23 43 44 43c26 0 43 -23 43 -44c0 -26 -23 -43 -44 -43c-27 0 -43 24 -43 44zM461 144c26 0 43 -24 43 -43
c0 -26 -24 -44 -43 -44c-24 0 -44 20 -44 44s19 43 44 43zM158 100c0 22 20 43 43 43s44 -19 44 -43c0 -23 -19 -44 -43 -44s-44 20 -44 44zM329 21c-25 0 -44 19 -44 43s19 43 44 43c24 0 43 -19 43 -43s-19 -43 -43 -43z" />
    <glyph glyph-name="uni0CB00CCD" horiz-adv-x="517" 
d="M223 434c-103 0 -132 -31 -132 -69s30 -72 117 -72h70h58h25v-73h-112c-91 0 -116 -42 -116 -78c0 -35 23 -59 64 -69c31 -8 55 -2 70 -10c14 -7 23 -19 23 -36c0 -20 -18 -41 -54 -41c-70 0 -138 60 -138 154c0 41 14 73 37 98c-50 25 -80 74 -80 131
c0 75 46 139 164 139h273v-74h-269z" />
    <glyph glyph-name="uni0CCD0C95" horiz-adv-x="34" 
d="M151 -159v-42h-68c28 -21 44 -56 44 -96c0 -67 -43 -115 -112 -115c-70 0 -113 48 -113 115c0 40 16 75 44 96h-71v42h129c13 27 18 62 18 90c0 38 -9 59 -19 68c-13 10 -16 18 -16 28c0 14 9 24 23 24c21 0 41 -24 41 -92c0 -45 -8 -81 -26 -118h126zM94 -282
c0 57 -34 86 -79 86s-80 -29 -80 -86c0 -50 27 -77 80 -77c52 0 79 27 79 77z" />
    <glyph glyph-name="uni0CCD0C96" horiz-adv-x="48" 
d="M48 25c35 -49 70 -134 70 -249c0 -137 -49 -188 -109 -188c-41 0 -75 24 -107 51c-27 -33 -66 -51 -109 -51c-52 0 -89 25 -89 79c0 42 23 66 74 66c48 0 82 -21 114 -44c14 22 22 52 22 89c0 87 -42 106 -77 106s-54 -20 -54 -42c0 -14 6 -23 13 -23c1 0 2 0 2 3
c0 19 10 32 29 32c18 0 31 -9 31 -28c0 -22 -17 -41 -46 -41c-33 0 -55 24 -55 61c0 46 33 79 83 79c57 0 104 -43 104 -147c0 -43 -8 -80 -23 -109c24 -16 48 -28 78 -28c49 0 94 33 94 143c0 102 -39 172 -79 202c-18 13 -27 27 -27 42c0 16 9 26 23 26
c15 0 26 -11 38 -29zM-210 -359c32 0 59 8 79 24c-27 22 -55 40 -88 40c-25 0 -46 -10 -46 -32s18 -32 55 -32z" />
    <glyph glyph-name="uni0CCD0C97" 
d="M-39 -104c-40 0 -95 -65 -95 -216v-92h-54v76c0 144 77 261 149 261s150 -117 150 -261v-76h-55v92c0 151 -53 216 -95 216z" />
    <glyph glyph-name="uni0CCD0C98" horiz-adv-x="50" 
d="M208 -68c43 -23 63 -63 63 -105c0 -47 -26 -71 -69 -71c-21 0 -47 6 -67 45c2 -18 3 -37 3 -58c0 -87 -23 -155 -89 -155c-45 0 -94 32 -108 89h-6c-14 -57 -63 -89 -111 -89c-57 0 -84 44 -84 113c0 64 22 95 65 95c40 0 60 -26 68 -56l-17 -12c-9 15 -22 28 -44 28
c-25 0 -44 -17 -44 -54c0 -40 23 -61 56 -61c54 0 97 56 107 110h14c10 -54 49 -110 101 -110c51 0 67 53 67 113c0 122 -59 202 -99 232c-18 13 -27 27 -27 43c0 15 9 25 23 25c15 0 26 -11 40 -31c20 -29 49 -73 68 -137c24 -66 52 -78 77 -78c28 0 41 16 41 40
s-13 45 -42 67zM-70 -396h18c8 -73 27 -79 27 -107c0 -27 -18 -41 -36 -41s-34 14 -34 41c0 28 17 34 25 107z" />
    <glyph glyph-name="uni0CCD0C99" 
d="M75 -243c22 -18 40 -52 40 -90c0 -52 -33 -79 -75 -79c-49 0 -91 36 -105 89h-4c-15 -53 -57 -89 -105 -89c-45 0 -75 33 -75 81c0 47 29 80 55 108c20 22 37 41 37 63c0 25 -13 41 -45 41s-48 -16 -48 -41c0 -12 4 -21 7 -26l-13 -9c-13 13 -19 26 -19 46
c0 40 25 74 78 74c52 0 74 -34 74 -69c35 43 86 79 143 79s79 -35 79 -77c0 -30 -12 -53 -30 -68l-13 13c9 8 17 21 17 40c0 30 -21 48 -63 48c-57 0 -105 -32 -161 -106c-8 -10 -16 -20 -24 -29c-21 -25 -41 -48 -41 -73c0 -23 18 -42 48 -42c48 0 85 47 93 96h15
c9 -49 46 -96 96 -96c32 0 48 19 48 48c0 22 -9 40 -25 54zM-82 -194c0 22 13 34 34 34s35 -12 35 -34s-14 -34 -35 -34s-34 12 -34 34z" />
    <glyph glyph-name="uni0CCD0C9A" 
d="M122 -172v-46h-39c25 -25 35 -68 35 -102c0 -59 -31 -92 -78 -92c-49 0 -91 36 -105 89h-4c-15 -53 -57 -89 -105 -89c-45 0 -75 33 -75 81c0 47 29 80 55 108c20 22 37 41 37 63c0 25 -13 41 -45 41s-48 -16 -48 -41c0 -12 4 -21 7 -26l-13 -9c-13 13 -19 26 -19 46
c0 40 25 74 78 74c52 0 74 -34 74 -69c0 -40 -27 -71 -52 -100c-21 -25 -41 -48 -41 -73c0 -23 18 -42 48 -42c48 0 85 47 93 96h15c9 -49 46 -96 96 -96c34 0 51 21 51 55c0 33 -17 67 -43 86h-96v46h174z" />
    <glyph glyph-name="uni0CCD0C9B" 
d="M3 23c42 -60 91 -159 91 -279c0 -78 -22 -157 -103 -157c-55 0 -97 36 -110 88h-7c-13 -52 -55 -88 -108 -88c-69 0 -112 62 -112 157c0 100 45 181 121 181c47 0 63 -31 63 -74c0 -55 -26 -81 -69 -81c-40 0 -68 22 -68 68v6c-12 -22 -17 -51 -17 -83
c0 -71 28 -121 84 -121c54 0 93 47 102 96h15c8 -49 48 -96 101 -96c60 0 81 60 81 118c0 102 -62 196 -104 227c-17 13 -26 27 -26 42c0 16 10 26 24 26s28 -10 42 -30zM-190 -150c0 25 -15 34 -43 34c-19 0 -35 -6 -47 -16c-1 -5 -1 -10 -1 -14c0 -26 15 -40 47 -40
c33 0 44 14 44 36zM-133 -396h18c8 -73 27 -79 27 -110c0 -24 -18 -38 -36 -38s-34 14 -34 39c0 30 17 36 25 109z" />
    <glyph glyph-name="uni0CCD0C9C" 
d="M75 -243c22 -18 40 -52 40 -90c0 -52 -33 -79 -75 -79c-49 0 -91 36 -105 89h-4c-15 -53 -57 -89 -105 -89c-45 0 -75 33 -75 81c0 47 29 80 55 108c20 22 37 41 37 63c0 25 -13 41 -45 41s-48 -16 -48 -41c0 -12 4 -21 7 -26l-13 -9c-13 13 -19 26 -19 46
c0 40 25 74 78 74c30 0 51 -12 62 -28c49 -55 87 -74 127 -74c35 0 60 18 60 52c0 18 -7 33 -21 50l14 11c23 -21 34 -50 34 -78c0 -49 -34 -80 -80 -80c-41 0 -81 25 -122 70c-4 -36 -29 -65 -52 -92c-21 -25 -41 -48 -41 -73c0 -23 18 -42 48 -42c48 0 85 47 93 96h15
c9 -49 46 -96 96 -96c32 0 48 19 48 48c0 22 -9 40 -25 54z" />
    <glyph glyph-name="uni0CCD0C9D" 
d="M214 -75c44 0 109 -62 109 -170c0 -98 -55 -167 -126 -167c-49 0 -86 32 -106 69c-22 -42 -60 -69 -103 -69c-40 0 -76 23 -97 66c-25 -40 -70 -66 -130 -66c-95 0 -152 69 -152 153c0 93 59 158 152 158c95 0 154 -65 154 -158c0 -19 -3 -38 -9 -55
c19 -33 43 -45 75 -45c60 0 106 43 106 116c0 62 -31 101 -54 109c-15 5 -29 3 -43 7c-10 2 -19 13 -19 25c0 15 11 27 32 27c44 0 109 -62 109 -175c0 -19 -2 -37 -7 -54c13 -36 40 -55 83 -55c64 0 110 43 110 118c0 60 -31 99 -54 107c-15 5 -29 3 -43 7
c-10 2 -19 13 -19 25c0 15 11 27 32 27zM-239 -359c70 0 117 49 117 114c0 71 -50 111 -117 111c-66 0 -114 -40 -114 -111c0 -65 45 -114 114 -114zM81 -396h18c8 -73 27 -79 27 -110c0 -24 -18 -38 -36 -38s-34 14 -34 39c0 30 17 36 25 109z" />
    <glyph glyph-name="uni0CCD0C9E" 
d="M169 -75c53 0 84 -41 84 -88c0 -22 -7 -40 -20 -55l-22 15c5 5 9 15 9 29c0 18 -11 51 -54 51c-50 0 -84 -46 -90 -89v-6c0 -50 -11 -89 -30 -119c19 -29 28 -62 28 -93c0 -27 -8 -37 -21 -37c-14 0 -18 11 -18 29c0 24 -5 48 -16 69c-32 -30 -75 -43 -121 -43
c-65 0 -100 29 -100 78c0 48 35 72 97 72c56 0 98 -19 128 -47c14 21 22 48 22 84c0 69 -32 102 -76 102c-56 0 -89 -54 -98 -101h-11c-9 47 -46 101 -102 101c-31 0 -48 -16 -48 -49c0 -11 3 -21 8 -31l-22 -16c-14 18 -17 37 -17 54c0 51 27 90 79 90c51 0 91 -37 107 -90
h3c15 53 49 90 101 90c45 0 81 -29 97 -77c14 44 56 77 103 77zM-99 -359c38 0 71 7 95 24c-24 26 -58 43 -104 43c-39 0 -61 -12 -61 -32c0 -23 22 -35 70 -35z" />
    <glyph glyph-name="uni0CCD0C9F" horiz-adv-x="80" 
d="M58 -139c56 -15 92 -49 92 -128c0 -88 -45 -145 -110 -145c-54 0 -97 36 -110 88h-7c-13 -52 -55 -88 -108 -88c-69 0 -112 62 -112 157c0 100 45 181 121 181c47 0 63 -31 63 -74c0 -55 -26 -81 -69 -81c-40 0 -68 22 -68 68v6c-12 -22 -17 -51 -17 -83
c0 -71 28 -121 84 -121c54 0 93 47 102 96h15c8 -49 48 -96 101 -96c51 0 84 43 84 95c0 50 -30 95 -90 104l-12 24l-1 1c42 24 61 51 61 83c0 34 -21 54 -51 63l2 21c53 -5 89 -35 89 -82c0 -40 -26 -73 -59 -89zM-141 -149c0 25 -15 34 -43 34c-19 0 -35 -6 -47 -16
c-1 -5 -1 -10 -1 -14c0 -26 15 -40 47 -40c33 0 44 14 44 36zM-83 -396h18c8 -73 27 -79 27 -110c0 -24 -18 -38 -36 -38s-34 14 -34 39c0 30 17 36 25 109z" />
    <glyph glyph-name="uni0CCD0CA0" 
d="M-40 -412c-95 0 -152 69 -152 153c0 93 59 158 152 158c95 0 154 -65 154 -158c0 -84 -56 -153 -154 -153zM-40 -359c70 0 117 49 117 114c0 71 -50 111 -117 111c-66 0 -114 -40 -114 -111c0 -65 45 -114 114 -114zM-41 -280c-21 0 -34 13 -34 34c0 22 13 34 34 34
s35 -12 35 -34c0 -21 -14 -34 -35 -34z" />
    <glyph glyph-name="uni0CCD0CA1" 
d="M125 -196c24 -30 38 -71 38 -112c0 -70 -41 -104 -91 -104c-52 0 -98 36 -113 89h-4c-14 -53 -57 -89 -108 -89c-53 0 -93 40 -93 121c0 125 99 216 209 216c82 0 161 -50 162 -121zM68 -359c44 0 62 37 62 73c0 18 -5 37 -13 53c-13 -26 -41 -39 -70 -39
c-44 0 -69 29 -69 63c0 32 21 58 62 58c17 0 33 -4 47 -12c-20 31 -69 56 -123 56c-100 0 -173 -86 -173 -174c0 -36 10 -78 60 -78c52 0 90 47 99 96h16c8 -49 53 -96 102 -96zM96 -203c-15 15 -33 24 -53 24c-21 0 -33 -12 -33 -26c0 -13 9 -28 38 -28c27 0 43 13 48 30z
" />
    <glyph glyph-name="uni0CCD0CA2" 
d="M125 -196c24 -30 38 -71 38 -112c0 -70 -41 -104 -91 -104c-52 0 -98 36 -113 89h-4c-14 -53 -57 -89 -107 -89c-54 0 -94 40 -94 121c0 125 99 216 209 216c82 0 160 -50 162 -121zM68 -359c44 0 62 37 62 73c0 18 -5 37 -13 53c-13 -26 -41 -39 -70 -39
c-44 0 -69 29 -69 63c0 32 21 58 62 58c17 0 33 -4 47 -12c-20 31 -69 56 -124 56c-99 0 -172 -86 -172 -177c0 -33 10 -75 59 -75c53 0 91 47 100 96h16c8 -49 53 -96 102 -96zM96 -203c-15 15 -33 24 -53 24c-21 0 -33 -12 -33 -26c0 -13 9 -28 37 -28s44 13 49 30z
M-52 -396h18c8 -73 27 -79 27 -110c0 -24 -18 -38 -36 -38s-34 14 -34 39c0 30 17 36 25 109z" />
    <glyph glyph-name="uni0CCD0CA3" 
d="M-210 -412c-44 0 -72 33 -72 77c0 36 19 72 63 81c-40 9 -63 39 -63 86c0 59 35 93 82 93c49 0 87 -37 101 -91h5c15 54 56 91 110 91c77 0 128 -78 128 -178c0 -85 -38 -159 -116 -159c-57 0 -91 42 -91 102c0 56 31 88 70 88c30 0 47 -19 56 -46l-14 -13
c-7 14 -18 21 -39 21c-30 0 -43 -14 -43 -43c0 -37 20 -56 57 -56c53 0 95 37 95 110c0 71 -39 126 -103 126c-60 0 -99 -49 -105 -102h-12c-10 53 -43 102 -95 102c-35 0 -56 -22 -56 -54c0 -34 27 -60 82 -71v-12c-53 -11 -82 -34 -82 -64c0 -21 14 -35 45 -35
c28 0 46 13 57 50l16 -6c-1 -39 -17 -97 -76 -97z" />
    <glyph glyph-name="uni0CCD0CA4" horiz-adv-x="1" 
d="M-47 -75c43 0 77 -38 77 -87c0 -46 -30 -98 -102 -98h-310c-5 0 -9 10 -9 27s4 27 9 27h265c-6 11 -10 24 -10 41c0 50 36 90 80 90zM-47 -206c25 0 52 10 52 39c0 25 -20 44 -52 44s-56 -18 -56 -47c0 -12 4 -25 16 -36h40z" />
    <glyph glyph-name="uni0CCD0CA5" horiz-adv-x="1" 
d="M-40 -323h-5c-13 -52 -57 -89 -108 -89c-53 0 -93 41 -93 121c0 125 98 217 204 216c104 1 204 -91 204 -216c0 -80 -40 -121 -93 -121c-51 0 -96 37 -109 89zM-50 -263h16c8 -47 43 -96 98 -96c51 0 61 42 61 75c0 91 -73 177 -167 177s-167 -86 -167 -177
c0 -33 10 -75 59 -75c53 0 92 49 100 96zM-43 -220c-23 0 -36 14 -36 37s13 36 36 36s35 -13 35 -36s-12 -37 -35 -37zM-33 -396h-18c-8 -73 -25 -79 -25 -109c0 -25 16 -39 34 -39s36 14 36 38c0 31 -19 37 -27 110z" />
    <glyph glyph-name="uni0CCD0CA6" 
d="M-40 -323h-5c-13 -52 -57 -89 -108 -89c-53 0 -93 41 -93 121c0 125 98 217 204 216c104 1 204 -91 204 -216c0 -80 -40 -121 -93 -121c-51 0 -96 37 -109 89zM-50 -263h16c8 -47 43 -96 98 -96c51 0 61 42 61 75c0 91 -73 177 -167 177s-167 -86 -167 -177
c0 -33 10 -75 59 -75c53 0 92 49 100 96z" />
    <glyph glyph-name="uni0CCD0CA7" 
d="M-40 -323h-5c-13 -52 -57 -89 -108 -89c-53 0 -93 41 -93 121c0 125 98 217 204 216c104 1 204 -91 204 -216c0 -80 -40 -121 -93 -121c-51 0 -96 37 -109 89zM-50 -263h16c8 -47 43 -96 98 -96c51 0 61 42 61 75c0 91 -73 177 -167 177s-167 -86 -167 -177
c0 -33 10 -75 59 -75c53 0 92 49 100 96zM-36 -396h-18c-8 -73 -25 -79 -25 -109c0 -25 16 -39 34 -39s36 14 36 38c0 31 -19 37 -27 110z" />
    <glyph glyph-name="uni0CCD0CA8" horiz-adv-x="51" 
d="M165 -379c22 0 31 -12 31 -26c0 -16 -12 -27 -32 -27c-60 0 -96 40 -126 86c-33 -25 -73 -39 -112 -39c-79 0 -120 55 -120 118c0 61 38 102 97 102c76 0 99 -69 134 -129c33 27 56 68 56 120c0 68 -39 130 -79 160c-18 13 -27 27 -27 42c0 16 9 26 24 26
c14 0 26 -9 41 -29c23 -31 66 -114 66 -199c0 -65 -24 -117 -59 -153c24 -30 55 -52 106 -52zM-73 -332c30 0 62 8 89 24c-33 56 -63 111 -117 111c-37 0 -62 -27 -62 -64c0 -44 36 -71 90 -71z" />
    <glyph glyph-name="uni0CCD0CAA" horiz-adv-x="63" 
d="M113 -246c0 122 -59 202 -99 232c-18 13 -27 27 -27 43c0 15 10 25 24 25s25 -11 39 -31c33 -47 88 -132 88 -275c0 -92 -25 -160 -90 -160c-44 0 -93 32 -107 89h-6c-14 -57 -63 -89 -111 -89c-57 0 -84 44 -84 109c0 68 22 99 65 99c40 0 60 -26 68 -56l-17 -12
c-9 15 -22 28 -44 28c-25 0 -44 -17 -44 -54c0 -40 23 -61 56 -61c54 0 97 56 107 110h14c10 -54 49 -110 101 -110c51 0 67 53 67 113z" />
    <glyph glyph-name="uni0CCD0CAB" horiz-adv-x="63" 
d="M113 -246c0 122 -59 202 -99 232c-18 13 -27 27 -27 43c0 15 10 25 24 25s25 -11 39 -31c33 -47 88 -132 88 -275c0 -92 -25 -160 -90 -160c-44 0 -93 32 -107 89h-6c-14 -57 -63 -89 -111 -89c-57 0 -84 44 -84 109c0 68 22 99 65 99c40 0 60 -26 68 -56l-17 -12
c-9 15 -22 28 -44 28c-25 0 -44 -17 -44 -54c0 -40 23 -61 56 -61c54 0 97 56 107 110h14c10 -54 49 -110 101 -110c51 0 67 53 67 113zM-52 -396h-18c-8 -73 -25 -79 -25 -107c0 -27 16 -41 34 -41s36 14 36 41c0 28 -19 34 -27 107z" />
    <glyph glyph-name="uni0CCD0CAC" horiz-adv-x="63" 
d="M-59 -323h-6c-14 -56 -58 -89 -103 -89c-46 0 -76 33 -76 82c0 83 92 120 92 175c0 20 -13 37 -45 37s-48 -17 -48 -44c0 -7 2 -15 7 -24l-13 -9c-13 13 -19 32 -19 50c0 36 25 70 77 70c53 0 75 -34 75 -70c0 -73 -93 -118 -93 -172c0 -23 18 -42 47 -42
c49 0 86 56 94 110h15c10 -54 49 -110 101 -110c51 0 67 53 67 113c0 122 -59 202 -99 232c-18 13 -27 27 -27 43c0 15 9 25 23 25c15 0 26 -11 40 -31c33 -47 88 -132 88 -279c0 -88 -25 -156 -90 -156c-44 0 -93 32 -107 89z" />
    <glyph glyph-name="uni0CCD0CAD" horiz-adv-x="63" 
d="M-59 -323h-6c-14 -56 -58 -89 -103 -89c-46 0 -76 33 -76 82c0 83 92 120 92 175c0 20 -13 37 -45 37s-48 -17 -48 -44c0 -7 2 -15 7 -24l-13 -9c-13 13 -19 32 -19 50c0 36 25 70 77 70c53 0 75 -34 75 -70c0 -73 -93 -118 -93 -172c0 -23 18 -42 47 -42
c49 0 86 56 94 110h15c10 -54 49 -110 101 -110c51 0 67 53 67 113c0 122 -59 202 -99 232c-18 13 -27 27 -27 43c0 15 9 25 23 25c15 0 26 -11 40 -31c33 -47 88 -132 88 -279c0 -88 -25 -156 -90 -156c-44 0 -93 32 -107 89zM-52 -396h-18c-8 -73 -25 -79 -25 -109
c0 -25 16 -39 34 -39s36 14 36 38c0 31 -19 37 -27 110z" />
    <glyph glyph-name="uni0CCD0CAE" horiz-adv-x="50" 
d="M198 -228c9 -13 15 -29 15 -50c0 -72 -72 -134 -180 -134c-107 0 -189 60 -189 143c0 63 47 106 106 124c11 18 25 34 38 49c19 21 35 41 35 59c0 13 -8 24 -18 33c-13 10 -18 21 -18 32c0 16 11 26 24 26c21 0 42 -25 42 -69c0 -47 -25 -75 -47 -101l-19 -22
c8 1 15 1 23 1c75 0 108 -34 108 -69c0 -38 -39 -72 -93 -72c-55 0 -89 35 -89 81c0 4 0 9 1 13c-35 -15 -59 -41 -59 -74c0 -52 61 -98 155 -98c89 0 154 43 154 94c0 13 -4 23 -9 32zM10 -170c-14 0 -27 -1 -40 -4c-1 -5 -2 -10 -2 -15c0 -27 15 -48 55 -48
c33 0 53 15 53 34s-20 33 -66 33z" />
    <glyph glyph-name="uni0CCD0CAF" horiz-adv-x="107" 
d="M81 -251c0 -83 -45 -161 -146 -161c-73 0 -120 42 -120 101c0 45 28 71 53 95c20 19 39 37 39 61c0 20 -13 37 -46 37c-32 0 -47 -17 -47 -42c0 -11 3 -20 8 -26l-13 -9c-14 11 -19 28 -19 46c0 40 24 74 76 74s75 -34 75 -69c0 -38 -27 -65 -52 -91
c-21 -22 -42 -43 -42 -68c0 -28 27 -56 90 -56c74 0 114 39 114 111c0 49 -19 79 -38 109c-17 27 -34 54 -34 95c0 49 25 92 70 92c39 0 67 -31 67 -69c0 -12 -3 -26 -8 -38l-13 2c3 37 -14 55 -38 55c-29 0 -46 -25 -46 -55c0 -13 3 -24 9 -37c18 -38 61 -75 61 -157z" />
    <glyph glyph-name="uni0CCD0CB0" horiz-adv-x="41" 
d="M-282 -247c-56 0 -105 8 -145 23l-4 -20c41 -27 100 -47 180 -47c175 0 308 113 308 256c0 55 -20 89 -46 89c-14 0 -24 -10 -24 -26c0 -13 5 -24 17 -31s18 -27 18 -56c0 -144 -148 -188 -304 -188z" />
    <glyph glyph-name="uni0CCD0CB2" 
d="M-80 -277c12 65 58 138 147 138c53 0 81 -27 81 -71c0 -19 -5 -34 -12 -45l16 -13c16 21 24 48 24 77c0 61 -38 116 -112 116c-78 0 -128 -59 -145 -131h-5c-17 72 -67 131 -144 131c-75 0 -114 -55 -114 -116c0 -29 9 -56 25 -77l15 13c-7 10 -12 26 -12 44
c0 48 32 72 83 72c88 0 133 -73 144 -138h9z" />
    <glyph glyph-name="uni0CCD0CB5" horiz-adv-x="47" 
d="M-18 -129c52 -29 92 -83 92 -160c0 -81 -43 -123 -93 -123c-44 0 -93 32 -107 89h-6c-14 -57 -63 -89 -111 -89c-57 0 -84 44 -84 109c0 68 22 99 65 99c40 0 60 -26 68 -56l-17 -12c-9 15 -22 28 -44 28c-25 0 -44 -17 -44 -54c0 -40 23 -61 56 -61c54 0 97 56 107 110
h14c10 -54 50 -110 101 -110c31 0 62 21 62 79c0 83 -63 144 -160 150h-55v47h140c49 0 68 24 68 50c0 27 -20 58 -49 81l15 17c46 -35 67 -71 67 -108c0 -46 -32 -80 -85 -86z" />
    <glyph glyph-name="uni0CCD0CB6" horiz-adv-x="44" 
d="M79 -136c34 -29 51 -76 51 -126c0 -102 -71 -150 -163 -150c-62 0 -101 23 -101 73c0 48 36 60 76 73c48 15 104 34 110 116c-15 11 -32 17 -50 17c-46 0 -71 -20 -71 -39c0 -14 5 -21 11 -21c2 0 3 1 3 3c0 13 9 24 23 24c13 0 23 -11 23 -25c0 -16 -13 -28 -37 -28
c-30 0 -48 19 -48 45c0 33 30 68 91 68c20 0 38 -4 54 -12c-4 54 -26 101 -44 114s-25 22 -25 34s9 22 22 22c38 0 75 -84 75 -176v-12zM-35 -359c90 0 138 42 138 104c0 29 -11 59 -28 82c-17 -87 -80 -104 -127 -118c-30 -8 -53 -15 -53 -37c0 -12 11 -31 70 -31z" />
    <glyph glyph-name="uni0CCD0CB7" horiz-adv-x="56" 
d="M123 -158c72 -124 90 -201 90 -284c0 -17 -8 -30 -24 -30c-18 0 -24 15 -24 40c0 54 -3 128 -33 199v-23c0 -88 -25 -156 -89 -156c-45 0 -94 32 -108 89h-6c-14 -57 -63 -89 -111 -89c-57 0 -84 44 -84 109c0 68 22 99 65 99c40 0 60 -26 68 -56l-17 -12
c-9 15 -22 28 -44 28c-25 0 -44 -17 -44 -54c0 -40 23 -61 56 -61c54 0 97 56 107 110h14c10 -54 49 -110 101 -110c51 0 67 53 67 113c0 122 -59 202 -99 232c-18 13 -27 27 -27 43c0 15 10 25 24 25s25 -11 39 -31c25 -35 62 -92 79 -181z" />
    <glyph glyph-name="uni0CCD0CB8" horiz-adv-x="66" 
d="M107 -235c0 111 -59 191 -99 221c-18 13 -27 27 -27 43c0 15 10 25 23 25c15 0 26 -11 40 -31c33 -47 88 -123 88 -259c0 -101 -32 -149 -87 -149c-84 0 -88 116 -172 116c-42 0 -74 -31 -80 -116l-22 14c0 95 42 151 99 151c78 0 90 -112 167 -112c37 0 70 25 70 97z
" />
    <glyph glyph-name="uni0CCD0CB9" 
d="M30 -106c71 0 122 -52 122 -125c0 -74 -51 -130 -119 -130c-48 0 -83 29 -102 75c-19 -46 -54 -75 -102 -75c-68 0 -119 56 -119 130c0 73 51 125 122 125c50 0 80 -26 99 -63c19 37 49 63 99 63zM-176 -300c52 0 92 29 92 80s-38 79 -87 79c-52 0 -83 -33 -83 -84
c0 -50 29 -75 78 -75zM38 -300c49 0 78 25 78 75c0 51 -31 84 -83 84c-49 0 -87 -28 -87 -79s40 -80 92 -80z" />
    <glyph glyph-name="uni0CCD0CB1" 
d="M29 -75c76 0 121 -81 121 -182c0 -94 -43 -155 -112 -155c-53 0 -95 36 -108 89h-7c-13 -53 -55 -89 -108 -89c-69 0 -112 61 -112 155c0 101 45 182 121 182c47 0 63 -31 63 -74c0 -14 -2 -27 -5 -37h89c-3 10 -5 23 -5 37c0 43 16 74 63 74zM-141 -151
c0 25 -15 35 -41 35c-20 0 -37 -6 -49 -17c-1 -4 -1 -8 -1 -13c0 -26 15 -40 47 -40c33 0 44 14 44 35zM35 -116c-26 0 -41 -10 -41 -35c0 -21 11 -35 44 -35c32 0 47 14 47 40c0 5 0 9 -1 13c-12 11 -29 17 -49 17zM36 -359c56 0 84 49 84 120c0 31 -5 60 -17 82v-6
c0 -47 -28 -67 -67 -67h-1v0h-218c-39 0 -67 20 -67 67v6c-12 -22 -17 -51 -17 -82c0 -71 28 -120 84 -120c54 0 93 47 102 96h15c9 -49 48 -96 102 -96z" />
    <glyph glyph-name="uni0CCD0CB3" horiz-adv-x="70" 
d="M103 -96c0 -87 -61 -134 -110 -170c31 -13 54 -33 54 -74c0 -50 -27 -72 -73 -72c-42 0 -71 19 -71 61c0 22 8 41 21 57c-62 10 -131 30 -131 114c0 67 44 105 99 105c52 0 72 -34 72 -68c0 -30 -16 -64 -57 -64c-36 0 -58 25 -58 62c0 6 1 12 2 17
c-20 -10 -33 -27 -33 -51c0 -48 51 -58 105 -69l42 -9c6 5 13 10 20 15c45 31 91 64 91 125s-46 110 -66 120c-12 6 -18 15 -18 26c0 14 10 23 23 23c37 0 88 -70 88 -148zM-96 -116c-12 0 -23 -1 -34 -4c-1 -5 -2 -10 -2 -15c0 -18 12 -33 42 -33c23 0 35 9 35 26
c0 16 -11 26 -41 26zM24 -335c0 24 -32 30 -72 36c-11 -11 -18 -22 -18 -34c0 -20 19 -26 46 -26c24 0 44 5 44 24z" />
    <glyph glyph-name="uni0CCD0CDE" 
d="M31 -75c75 0 122 -81 122 -179c0 -97 -45 -158 -114 -158c-53 0 -95 36 -108 89h-6c-13 -53 -55 -89 -108 -89c-69 0 -114 61 -114 158c0 98 47 179 122 179c46 0 63 -31 63 -78c0 -51 -24 -77 -69 -77c-39 0 -68 20 -68 67v7c-12 -22 -17 -50 -17 -81
c0 -73 30 -122 85 -122s93 47 101 96h15c8 -49 47 -96 102 -96s85 49 85 122c0 31 -5 59 -17 81v-7c0 -47 -29 -67 -68 -67c-45 0 -69 26 -69 77c0 47 17 78 63 78zM-140 -151c0 25 -14 35 -41 35c-20 0 -37 -6 -49 -17c-1 -5 -1 -9 -1 -13c0 -26 17 -40 49 -40s42 14 42 35
zM38 -186c32 0 49 14 49 40c0 4 0 8 -1 13c-12 11 -29 17 -49 17c-27 0 -41 -10 -41 -35c0 -21 10 -35 42 -35z" />
    <glyph glyph-name="knKSSAc2" horiz-adv-x="34" 
d="M-98 -295c0 39 16 73 43 94h-70v42h129c13 27 18 62 18 90c0 38 -9 59 -19 68c-13 10 -16 18 -16 28c0 14 9 24 23 24c21 0 41 -24 41 -92c0 -45 -8 -81 -26 -118h125v-42h-67c28 -21 44 -55 44 -94c0 -69 -43 -117 -112 -117c-70 0 -113 48 -113 117zM15 -359
c52 0 79 27 79 79c0 55 -34 84 -79 84s-80 -29 -80 -84c0 -52 27 -79 80 -79zM201 -460c49 -105 76 -170 76 -234c0 -35 -8 -48 -24 -48c-18 0 -24 15 -24 64c0 26 -2 74 -17 128c0 -64 -23 -142 -87 -142c-41 0 -90 32 -104 89h-6c-14 -57 -63 -89 -112 -89
c-56 0 -83 44 -83 111c0 66 22 97 65 97c40 0 60 -26 68 -56l-17 -12c-9 15 -22 28 -44 28c-25 0 -44 -17 -44 -53c0 -41 23 -62 56 -62c54 0 97 56 107 110h14c10 -54 49 -110 100 -110c52 0 61 58 61 108c0 46 -7 67 -25 80c-11 8 -16 17 -16 28c0 12 6 18 16 18
c18 0 31 -23 40 -55z" />
    <glyph glyph-name="knTAc2_RAc2" horiz-adv-x="131" 
d="M101 -51c31 0 41 -45 41 -95c0 -154 -92 -299 -332 -299c-92 0 -156 22 -204 54l6 22c44 -18 100 -25 156 -25c183 0 348 72 348 214c0 45 -16 65 -26 76c-8 8 -12 19 -12 29c0 14 8 24 23 24zM-382 -260c-5 0 -9 10 -9 27s4 27 9 27h265c-6 11 -10 24 -10 40
c0 51 36 91 80 91c43 0 77 -38 77 -87c0 -46 -30 -98 -102 -98h-310zM-103 -170c0 -12 4 -25 16 -36h40c25 0 52 10 52 39c0 25 -20 44 -53 44c-31 0 -55 -18 -55 -47z" />
    <glyph glyph-name="knKAA" horiz-adv-x="909" 
d="M556 509c238 0 308 -119 308 -270c0 -146 -74 -252 -188 -252c-94 0 -154 72 -155 171c1 78 41 142 113 142c55 0 80 -37 80 -71s-26 -63 -61 -63c-33 0 -54 26 -54 62c0 6 -2 10 -7 10c-12 0 -33 -25 -33 -65c0 -59 44 -104 119 -104c89 0 151 61 151 167
c0 110 -70 198 -264 198h-286h-4c4 -11 6 -22 6 -33c0 -14 -3 -28 -9 -41h193v-66h-112c42 -31 68 -82 68 -137c0 -93 -73 -171 -167 -171c-97 0 -170 78 -170 171c0 55 26 106 69 137h-113v66h194c8 12 13 26 13 43c0 11 -2 22 -6 31h-201v75h280h236zM374 182
c0 70 -58 115 -120 115c-63 0 -122 -45 -122 -115c0 -65 50 -111 122 -111c71 0 120 46 120 111z" />
    <glyph glyph-name="knKHAA" horiz-adv-x="1194" 
d="M841 509c238 0 308 -119 308 -270c0 -146 -74 -252 -188 -252c-94 0 -154 72 -155 171c1 78 41 142 113 142c55 0 80 -37 80 -71s-26 -63 -61 -63c-33 0 -54 26 -54 62c0 6 -2 10 -7 10c-12 0 -33 -25 -33 -65c0 -59 44 -104 119 -104c89 0 151 61 151 167
c0 110 -70 198 -264 198h-180c31 -46 52 -111 52 -192c0 -147 -81 -256 -194 -256c-65 0 -115 40 -162 86c-41 -52 -99 -86 -172 -86c-94 0 -154 60 -154 133c0 68 52 112 128 112s131 -45 189 -87c26 37 40 85 40 141c0 112 -61 170 -131 170c-49 0 -81 -29 -81 -66
c0 -20 9 -38 22 -38c3 0 4 1 4 6c0 30 17 51 44 51c28 0 49 -23 49 -51c0 -29 -24 -57 -68 -57c-56 0 -90 50 -90 104c0 65 51 116 122 116c89 0 169 -75 169 -233c0 -59 -14 -120 -41 -170c39 -26 82 -46 134 -46c86 0 157 66 157 181c0 92 -47 158 -83 168
c-26 7 -46 4 -68 10c-18 5 -29 21 -29 40c0 23 16 43 48 43c8 0 17 -1 26 -4h260zM202 71c50 0 92 15 124 40c-47 45 -95 85 -156 85c-53 0 -76 -29 -76 -58c0 -34 31 -67 108 -67z" />
    <glyph glyph-name="knGAA" horiz-adv-x="1000" 
d="M647 509c238 0 308 -119 308 -270c0 -146 -74 -252 -188 -252c-94 0 -154 72 -155 171c1 78 41 142 113 142c55 0 80 -37 80 -71s-26 -63 -61 -63c-33 0 -54 26 -54 62c0 6 -2 10 -7 10c-12 0 -33 -25 -33 -65c0 -59 44 -104 119 -104c89 0 151 61 151 167
c0 110 -70 198 -264 198h-272c91 -74 145 -258 145 -383v-51h-78v78c0 169 -54 360 -159 360s-159 -191 -159 -360v-78h-78v51c0 125 54 309 145 383h-140v75h328h259z" />
    <glyph glyph-name="knGHAA" horiz-adv-x="1212" 
d="M859 509c238 0 308 -119 308 -270c0 -146 -74 -252 -188 -252c-94 0 -154 72 -155 171c1 78 41 142 113 142c55 0 80 -37 80 -71s-26 -63 -61 -63c-33 0 -54 26 -54 62c0 6 -2 10 -7 10c-12 0 -33 -25 -33 -65c0 -59 44 -104 119 -104c89 0 151 61 151 167
c0 110 -70 198 -264 198h-386h-431v75h471h337zM746 400c31 -18 55 -60 55 -109c0 -61 -36 -100 -82 -100c-30 0 -64 16 -93 54c3 -22 4 -43 4 -64c0 -97 -37 -195 -128 -195c-69 0 -138 57 -161 140h-2c-23 -83 -98 -140 -166 -140c-74 0 -123 70 -123 161
c0 85 43 140 102 140c49 0 73 -37 86 -79l-16 -15c-11 24 -36 34 -62 34c-41 0 -70 -26 -70 -72c0 -51 35 -84 86 -84c75 0 145 74 159 150h9c14 -76 79 -150 151 -150c69 0 99 70 99 144c0 55 -17 115 -37 157l23 18l6 -10v0c1 -1 1 -3 2 -4l9 -20c35 -72 63 -91 95 -91
c37 0 60 25 60 63c0 22 -8 45 -28 58zM338 271c-34 0 -59 27 -59 60c0 32 25 59 59 59c33 0 60 -27 60 -59c0 -33 -27 -60 -60 -60zM331 16h16c14 -120 43 -133 43 -177c0 -40 -25 -59 -50 -59c-28 0 -53 23 -53 59c0 44 31 57 44 177z" />
    <glyph glyph-name="knNGAA" horiz-adv-x="1133" 
d="M780 509c238 0 308 -119 308 -270c0 -146 -74 -252 -188 -252c-94 0 -154 72 -155 171c1 78 41 142 113 142c55 0 80 -37 80 -71s-26 -63 -61 -63c-33 0 -54 26 -54 62c0 6 -2 10 -7 10c-12 0 -33 -25 -33 -65c0 -59 44 -104 119 -104c89 0 151 61 151 167
c0 110 -70 198 -264 198h-162c1 -9 2 -17 2 -26c0 -48 -21 -76 -44 -100l-19 16c12 13 20 31 20 54c0 52 -41 89 -113 89c-79 0 -150 -44 -238 -160v1c-15 -18 -31 -35 -47 -51c-34 -34 -58 -70 -58 -105c0 -38 27 -81 81 -81c72 0 137 74 151 150h9
c13 -75 79 -150 153 -150c57 0 82 45 82 85c0 27 -12 56 -36 80l21 15c34 -29 63 -79 63 -134c0 -79 -61 -131 -127 -131c-68 0 -136 57 -159 140h-2c-23 -83 -91 -140 -160 -140c-66 0 -127 52 -127 136c0 71 43 116 82 156c32 33 63 66 63 107c0 42 -34 67 -76 67
c-47 0 -70 -31 -70 -67c0 -13 3 -25 10 -40l-20 -15c-21 22 -29 50 -29 76c0 58 39 113 114 113c76 0 124 -53 124 -111c56 69 135 128 222 128c37 0 65 -10 86 -27h195zM345 331c0 30 23 54 53 54s53 -24 53 -54c0 -29 -23 -53 -53 -53s-53 24 -53 53z" />
    <glyph glyph-name="knCAA" horiz-adv-x="1150" 
d="M797 509c238 0 308 -119 308 -270c0 -146 -74 -252 -188 -252c-94 0 -154 72 -155 171c1 78 41 142 113 142c55 0 80 -37 80 -71s-26 -63 -61 -63c-33 0 -54 26 -54 62c0 6 -2 10 -7 10c-12 0 -33 -25 -33 -65c0 -59 44 -104 119 -104c89 0 151 61 151 167
c0 110 -70 198 -264 198h-234c7 -12 11 -26 11 -40c0 -10 -2 -19 -6 -29h88v-71h-74c41 -37 63 -97 63 -159c0 -97 -61 -149 -127 -149c-68 0 -136 57 -159 140h-2c-23 -83 -91 -140 -160 -140c-66 0 -127 52 -127 136c0 71 43 116 82 156c32 33 63 66 63 107
c0 42 -34 67 -76 67c-47 0 -70 -31 -70 -67c0 -13 3 -25 10 -40l-20 -15c-21 22 -29 50 -29 76c0 58 39 113 114 113c76 0 124 -54 124 -112s-48 -109 -89 -150c-34 -34 -58 -70 -58 -105c0 -38 27 -81 81 -81c72 0 137 74 151 150h9c13 -75 78 -150 152 -150
c58 0 83 45 83 92c0 48 -28 101 -71 131h-146v71h150c7 9 10 19 10 30c0 14 -6 28 -18 39h-142v75h152h256z" />
    <glyph glyph-name="knCHAA" horiz-adv-x="1194" 
d="M841 509c238 0 308 -119 308 -270c0 -146 -74 -252 -188 -252c-94 0 -154 72 -155 171c1 78 41 142 113 142c55 0 80 -37 80 -71s-26 -63 -61 -63c-33 0 -54 26 -54 62c0 6 -2 10 -7 10c-12 0 -33 -25 -33 -65c0 -59 44 -104 119 -104c89 0 151 61 151 167
c0 110 -70 198 -264 198h-214c53 -47 89 -117 89 -210c0 -146 -62 -238 -163 -238c-80 0 -148 57 -171 140h-2c-23 -83 -91 -140 -170 -140c-102 0 -179 96 -179 266c0 140 68 267 170 267c71 0 107 -62 107 -125c0 -69 -42 -121 -108 -121c-55 0 -98 35 -98 111v10
c-21 -34 -31 -81 -31 -131c0 -114 57 -192 142 -192c81 0 149 74 163 150h9c13 -75 79 -150 161 -150c89 0 131 87 131 166c0 135 -79 197 -208 197h-48v75h161h250zM215 454c-30 0 -54 -9 -74 -25c-1 -7 -2 -15 -2 -21c0 -43 31 -64 76 -64c44 0 72 21 72 57
c0 39 -34 53 -72 53zM383 16h16c14 -120 43 -133 43 -177c0 -40 -25 -59 -50 -59c-28 0 -53 23 -53 59c0 44 31 57 44 177z" />
    <glyph glyph-name="knJAA" horiz-adv-x="1146" 
d="M793 509c238 0 308 -119 308 -270c0 -146 -74 -252 -188 -252c-94 0 -154 72 -155 171c1 78 41 142 113 142c55 0 80 -37 80 -71s-26 -63 -61 -63c-33 0 -54 26 -54 62c0 6 -2 10 -7 10c-12 0 -33 -25 -33 -65c0 -59 44 -104 119 -104c89 0 151 61 151 167
c0 110 -70 198 -264 198h-207c1 -7 1 -13 1 -20c0 -75 -53 -127 -128 -127c-62 0 -126 39 -191 111c-5 -54 -50 -102 -89 -141c-34 -34 -58 -70 -58 -105c0 -38 27 -81 81 -81c72 0 137 74 151 150h9c13 -75 79 -150 153 -150c57 0 82 45 82 85c0 27 -12 56 -36 80l21 15
c34 -29 63 -79 63 -134c0 -79 -61 -131 -127 -131c-68 0 -136 57 -159 140h-2c-23 -83 -91 -140 -160 -140c-66 0 -127 52 -127 136c0 71 43 116 82 156c32 33 63 66 63 107c0 42 -34 67 -76 67c-47 0 -70 -31 -70 -67c0 -13 3 -25 10 -40l-20 -15c-21 22 -29 50 -29 76
c0 58 39 113 114 113c50 0 88 -23 108 -56c73 -74 138 -103 199 -103c51 0 90 24 94 74h-130v75h369z" />
    <glyph glyph-name="knJHAA" horiz-adv-x="1625" 
d="M1272 509c238 0 308 -119 308 -270c0 -146 -74 -252 -188 -252c-94 0 -154 72 -155 171c1 78 41 142 113 142c55 0 80 -37 80 -71s-26 -63 -61 -63c-33 0 -54 26 -54 62c0 6 -2 10 -7 10c-12 0 -33 -25 -33 -65c0 -59 44 -104 119 -104c89 0 151 61 151 167
c0 110 -70 198 -264 198h-164c29 -49 49 -113 49 -192c0 -147 -80 -256 -193 -256c-70 0 -133 50 -163 136c-31 -82 -94 -136 -173 -136c-65 0 -123 42 -156 117c-37 -72 -110 -117 -201 -117c-136 0 -230 100 -230 240c0 87 44 169 116 208h-116v75h325c61 0 92 27 92 67
c0 34 -22 59 -46 68l15 20c43 -16 74 -57 74 -112c0 -67 -46 -111 -118 -117c73 -39 118 -121 118 -209c0 -25 -3 -49 -9 -71c35 -62 80 -84 136 -84c88 0 158 66 158 184c0 89 -48 150 -84 165c-24 10 -45 3 -68 10c-16 5 -28 21 -28 40c0 23 17 43 49 43
c70 0 166 -98 166 -271c0 -22 -2 -42 -5 -62c36 -81 86 -109 148 -109c88 0 158 66 158 184c0 89 -48 160 -85 173c-17 6 -32 6 -48 6h-50v75h324zM280 71c109 0 185 74 185 177c0 101 -84 185 -185 185s-185 -85 -185 -186c0 -103 75 -176 185 -176zM797 16h16
c14 -120 43 -133 43 -177c0 -40 -25 -59 -51 -59c-27 0 -52 23 -52 59c0 44 31 57 44 177z" />
    <glyph glyph-name="knNYAA" horiz-adv-x="1343" 
d="M990 509c238 0 308 -119 308 -270c0 -146 -74 -252 -188 -252c-94 0 -154 72 -155 171c1 78 41 142 113 142c55 0 80 -37 80 -71s-26 -63 -61 -63c-33 0 -54 26 -54 62c0 6 -2 10 -7 10c-12 0 -33 -25 -33 -65c0 -59 44 -104 119 -104c89 0 151 61 151 167
c0 110 -70 198 -264 198h-93c4 -14 6 -29 6 -46c0 -32 -8 -65 -29 -92l-31 21c8 8 13 23 13 41c0 44 -31 84 -89 84c-82 0 -131 -81 -146 -155c-6 -63 -30 -124 -66 -175c48 -55 74 -120 74 -165c0 -31 -12 -44 -28 -44c-21 0 -31 21 -31 52c0 38 -14 84 -42 124
c-52 -56 -122 -93 -196 -93c-91 0 -154 52 -154 119c0 63 57 111 151 111c80 0 145 -30 194 -72c39 39 63 93 63 156c0 90 -52 141 -113 141c-84 0 -140 -84 -152 -158h-10c-14 75 -64 159 -154 159c-58 0 -89 -40 -89 -84c0 -18 5 -33 13 -41l-31 -21c-21 27 -29 60 -29 92
c0 79 49 131 123 131c82 0 148 -58 171 -142h2c23 84 88 142 161 142c74 0 123 -51 139 -139c23 82 89 139 165 139c19 0 36 -3 51 -10h148zM240 124c0 -35 51 -53 111 -53c57 0 110 17 152 48c-39 38 -93 65 -160 65c-65 0 -103 -29 -103 -60z" />
    <glyph glyph-name="knTTAA" horiz-adv-x="1216" 
d="M863 509c238 0 308 -119 308 -270c0 -146 -74 -252 -188 -252c-94 0 -154 72 -155 171c1 78 41 142 113 142c55 0 80 -37 80 -71s-26 -63 -61 -63c-33 0 -54 26 -54 62c0 6 -2 10 -7 10c-12 0 -33 -25 -33 -65c0 -59 44 -104 119 -104c89 0 151 61 151 167
c0 110 -70 198 -264 198h-230c61 -51 98 -141 98 -230c0 -126 -62 -218 -173 -218c-70 0 -138 57 -161 140h-2c-23 -83 -91 -140 -161 -140c-111 0 -188 96 -188 255c0 107 45 197 117 227c-38 22 -67 56 -67 98c0 54 46 100 130 105l9 -22c-52 -12 -75 -43 -75 -88
c0 -32 14 -57 46 -82h10c71 0 107 -62 107 -128s-42 -118 -105 -118c-58 0 -101 35 -101 108c0 8 0 16 1 27c-22 -29 -32 -70 -32 -116c0 -103 57 -181 148 -181c75 0 143 74 157 150h9c13 -75 79 -150 152 -150c88 0 140 67 140 147c0 84 -59 208 -157 216h-8v75h327z
M302 361c0 39 -34 53 -72 53c-29 0 -53 -7 -73 -19c-1 -9 -3 -20 -3 -27c0 -43 31 -64 73 -64c47 0 75 21 75 57z" />
    <glyph glyph-name="knTTHAA" horiz-adv-x="1000" 
d="M647 509c238 0 308 -119 308 -270c0 -146 -74 -252 -188 -252c-94 0 -154 72 -155 171c1 78 41 142 113 142c55 0 80 -37 80 -71s-26 -63 -61 -63c-33 0 -54 26 -54 62c0 6 -2 10 -7 10c-12 0 -33 -25 -33 -65c0 -59 44 -104 119 -104c89 0 151 61 151 167
c0 110 -70 198 -264 198h-257c72 -39 116 -121 116 -208c0 -140 -94 -240 -230 -240s-230 100 -230 240c0 87 44 169 116 208h-116v75h325h267zM470 248c0 101 -84 185 -185 185s-185 -85 -185 -186c0 -103 75 -176 185 -176c109 0 185 74 185 177zM225 261
c0 34 26 60 60 60s59 -26 59 -60s-25 -58 -59 -58s-60 24 -60 58z" />
    <glyph glyph-name="knDDAA" horiz-adv-x="1131" 
d="M778 509c238 0 308 -119 308 -270c0 -146 -74 -252 -188 -252c-94 0 -154 72 -155 171c1 78 41 142 113 142c55 0 80 -37 80 -71s-26 -63 -61 -63c-33 0 -54 26 -54 62c0 6 -2 10 -7 10c-12 0 -33 -25 -33 -65c0 -59 44 -104 119 -104c89 0 151 61 151 167
c0 110 -70 198 -264 198h-300c59 -30 105 -79 109 -142c33 -47 49 -112 49 -161c0 -98 -63 -145 -132 -145c-76 0 -144 57 -167 140h-2c-23 -83 -91 -140 -162 -140c-65 0 -127 47 -127 164c0 132 75 234 170 284h-170v75h444h279zM552 335c-29 52 -109 106 -198 106
c-141 0 -250 -141 -250 -260c0 -67 34 -110 87 -110c70 0 136 74 150 150h9c14 -76 79 -150 155 -150c59 0 94 42 94 109c0 21 -4 43 -10 62c-16 -39 -53 -57 -91 -57c-58 0 -100 44 -100 91c0 39 29 79 88 79c25 0 47 -7 66 -20zM563 288c-18 23 -44 38 -74 38
c-34 0 -52 -19 -52 -42c0 -22 17 -41 58 -41c45 0 65 23 68 45z" />
    <glyph glyph-name="knDDHAA" horiz-adv-x="1131" 
d="M778 509c238 0 308 -119 308 -270c0 -146 -74 -252 -188 -252c-94 0 -154 72 -155 171c1 78 41 142 113 142c55 0 80 -37 80 -71s-26 -63 -61 -63c-33 0 -54 26 -54 62c0 6 -2 10 -7 10c-12 0 -33 -25 -33 -65c0 -59 44 -104 119 -104c89 0 151 61 151 167
c0 110 -70 198 -264 198h-300c59 -30 105 -79 109 -142c33 -47 49 -112 49 -161c0 -98 -63 -145 -132 -145c-76 0 -144 57 -167 140h-2c-23 -83 -91 -140 -162 -140c-65 0 -127 47 -127 164c0 132 75 234 170 284h-170v75h444h279zM552 335c-29 52 -109 106 -198 106
c-141 0 -250 -141 -250 -260c0 -67 34 -110 87 -110c70 0 136 74 150 150h9c14 -76 79 -150 155 -150c59 0 94 42 94 109c0 21 -4 43 -10 62c-16 -39 -53 -57 -91 -57c-58 0 -100 44 -100 91c0 39 29 79 88 79c25 0 47 -7 66 -20zM563 288c-18 23 -44 38 -74 38
c-34 0 -52 -19 -52 -42c0 -22 17 -41 58 -41c45 0 65 23 68 45zM336 16h16c14 -120 43 -133 43 -177c0 -40 -25 -59 -51 -59c-27 0 -52 23 -52 59c0 44 31 57 44 177z" />
    <glyph glyph-name="knNNAA" horiz-adv-x="1176" 
d="M943 -13c-94 0 -154 72 -155 171c1 78 41 142 113 142c55 0 80 -37 80 -71s-26 -63 -61 -63c-33 0 -54 26 -54 62c0 6 -2 10 -7 10c-12 0 -33 -25 -33 -65c0 -65 44 -113 119 -113c89 0 151 65 151 176c0 110 -70 198 -264 198h-774v75h765c238 0 308 -119 308 -270
c0 -146 -74 -252 -188 -252zM156 186v2c-47 6 -106 47 -106 106s58 101 133 101c76 0 128 -45 161 -109h3c33 64 91 109 175 109c124 0 203 -97 203 -213c0 -111 -74 -196 -178 -196c-81 0 -143 50 -143 128c0 64 41 110 99 110c50 0 76 -35 89 -68l-16 -12
c-12 16 -36 26 -64 26c-39 0 -68 -19 -68 -51c0 -37 39 -59 97 -59c77 0 149 41 149 125c0 79 -64 132 -169 132c-92 0 -158 -41 -171 -103h-9c-14 63 -73 103 -157 103c-53 0 -86 -15 -86 -49c0 -37 39 -62 120 -73v-18c-87 -11 -119 -39 -119 -71c0 -27 22 -46 65 -46
c44 0 77 20 98 62l23 -9c-3 -56 -41 -127 -122 -127c-70 0 -113 51 -113 100c0 50 44 86 106 100z" />
    <glyph glyph-name="knTAA" horiz-adv-x="1004" 
d="M651 509c238 0 308 -119 308 -270c0 -146 -74 -252 -188 -252c-94 0 -154 72 -155 171c1 78 41 142 113 142c55 0 80 -37 80 -71s-26 -63 -61 -63c-33 0 -54 26 -54 62c0 6 -2 10 -7 10c-12 0 -33 -25 -33 -65c0 -59 44 -104 119 -104c89 0 151 61 151 167
c0 110 -70 198 -264 198h-269c27 -18 51 -49 58 -87c54 -32 90 -86 90 -156c0 -116 -95 -205 -243 -205c-151 0 -236 90 -236 183c0 35 12 71 24 89l24 -4c-7 -14 -11 -32 -11 -49c0 -76 76 -134 196 -134c129 0 200 68 200 144c0 36 -16 67 -42 89
c-9 -69 -72 -115 -146 -115c-71 0 -127 41 -127 97s57 94 144 94c30 0 59 -5 85 -14c-13 32 -44 57 -77 68h-275v75h339h257zM308 247c57 0 102 30 106 80c-25 11 -55 17 -87 17c-56 0 -94 -19 -94 -50c0 -29 30 -47 75 -47z" />
    <glyph glyph-name="knTHAA" horiz-adv-x="1119" 
d="M766 509c238 0 308 -119 308 -270c0 -146 -74 -252 -188 -252c-94 0 -154 72 -155 171c1 78 41 142 113 142c55 0 80 -37 80 -71s-26 -63 -61 -63c-33 0 -54 26 -54 62c0 6 -2 10 -7 10c-12 0 -33 -25 -33 -65c0 -59 44 -104 119 -104c89 0 151 61 151 167
c0 110 -70 198 -264 198h-306c91 -49 166 -151 166 -281c0 -120 -63 -167 -127 -167c-71 0 -139 57 -162 140h-2c-23 -83 -91 -140 -162 -140c-65 0 -127 47 -127 165c0 131 75 233 166 283h-166v75h444h267zM586 180c0 120 -109 261 -241 261s-241 -141 -241 -260
c0 -67 34 -110 87 -110c70 0 136 74 150 150h9c14 -76 79 -150 149 -150c53 0 87 43 87 109zM287 315c0 33 26 60 59 60s59 -27 59 -60s-26 -59 -59 -59s-59 26 -59 59zM336 16h16c14 -120 43 -133 43 -177c0 -40 -25 -59 -51 -59c-27 0 -52 23 -52 59c0 44 31 57 44 177z
" />
    <glyph glyph-name="knDAA" horiz-adv-x="1119" 
d="M766 509c238 0 308 -119 308 -270c0 -146 -74 -252 -188 -252c-94 0 -154 72 -155 171c1 78 41 142 113 142c55 0 80 -37 80 -71s-26 -63 -61 -63c-33 0 -54 26 -54 62c0 6 -2 10 -7 10c-12 0 -33 -25 -33 -65c0 -59 44 -104 119 -104c89 0 151 61 151 167
c0 110 -70 198 -264 198h-306c91 -49 166 -151 166 -281c0 -120 -63 -167 -127 -167c-71 0 -139 57 -162 140h-2c-23 -83 -91 -140 -162 -140c-65 0 -127 47 -127 165c0 131 75 233 166 283h-166v75h444h267zM586 180c0 120 -109 261 -241 261s-241 -141 -241 -260
c0 -67 34 -110 87 -110c70 0 136 74 150 150h9c14 -76 79 -150 149 -150c53 0 87 43 87 109z" />
    <glyph glyph-name="knDHAA" horiz-adv-x="1119" 
d="M766 509c238 0 308 -119 308 -270c0 -146 -74 -252 -188 -252c-94 0 -154 72 -155 171c1 78 41 142 113 142c55 0 80 -37 80 -71s-26 -63 -61 -63c-33 0 -54 26 -54 62c0 6 -2 10 -7 10c-12 0 -33 -25 -33 -65c0 -59 44 -104 119 -104c89 0 151 61 151 167
c0 110 -70 198 -264 198h-306c91 -49 166 -151 166 -281c0 -120 -63 -167 -127 -167c-71 0 -139 57 -162 140h-2c-23 -83 -91 -140 -162 -140c-65 0 -127 47 -127 165c0 131 75 233 166 283h-166v75h444h267zM586 180c0 120 -109 261 -241 261s-241 -141 -241 -260
c0 -67 34 -110 87 -110c70 0 136 74 150 150h9c14 -76 79 -150 149 -150c53 0 87 43 87 109zM336 16h16c14 -120 43 -133 43 -177c0 -40 -25 -59 -51 -59c-27 0 -52 23 -52 59c0 44 31 57 44 177z" />
    <glyph glyph-name="knNAA" horiz-adv-x="1035" 
d="M682 509c238 0 308 -119 308 -270c0 -146 -74 -252 -188 -252c-94 0 -154 72 -155 171c1 78 41 142 113 142c55 0 80 -37 80 -71s-26 -63 -61 -63c-33 0 -54 26 -54 62c0 6 -2 10 -7 10c-12 0 -33 -25 -33 -65c0 -59 44 -104 119 -104c89 0 151 61 151 167
c0 110 -70 198 -264 198h-326h-7c129 -40 201 -142 201 -258c0 -104 -63 -190 -153 -190c-72 0 -90 56 -109 112c-19 57 -38 114 -113 114c-66 0 -99 -41 -99 -90s32 -95 77 -110c31 -11 47 -32 47 -52c0 -17 -11 -26 -28 -26c-11 0 -24 4 -38 12c-53 31 -93 108 -93 185
c0 93 59 163 135 163c70 0 93 -57 117 -114c23 -55 45 -109 109 -109c57 0 100 45 100 123c0 117 -101 204 -247 238l-14 2h-200v75h365h267z" />
    <glyph glyph-name="knPAA" horiz-adv-x="1115" 
d="M762 509c238 0 308 -119 308 -270c0 -146 -74 -252 -188 -252c-94 0 -154 72 -155 171c1 78 41 142 113 142c55 0 80 -37 80 -71s-26 -63 -61 -63c-33 0 -54 26 -54 62c0 6 -2 10 -7 10c-12 0 -33 -25 -33 -65c0 -59 44 -104 119 -104c89 0 151 61 151 167
c0 110 -70 198 -264 198h-326h-395v75h443h269zM552 394c62 0 77 -103 77 -185c0 -125 -37 -223 -128 -223c-69 0 -137 57 -160 140h-2c-23 -83 -98 -140 -165 -140c-75 0 -124 70 -124 162c0 84 43 139 102 139c49 0 73 -37 86 -79l-16 -15c-13 23 -36 34 -62 34
c-41 0 -70 -26 -70 -72c0 -51 35 -84 86 -84c75 0 145 74 159 150h9c14 -76 78 -150 152 -150c67 0 103 60 103 140c0 39 -10 66 -26 83c-16 15 -36 18 -50 31c-9 8 -13 18 -13 29c0 23 17 40 42 40zM402 331c0 -33 -27 -60 -60 -60c-34 0 -59 27 -59 60c0 32 25 59 59 59
c33 0 60 -27 60 -59z" />
    <glyph glyph-name="knPHAA" horiz-adv-x="1114" 
d="M761 509c238 0 308 -119 308 -270c0 -146 -74 -252 -188 -252c-94 0 -154 72 -155 171c1 78 41 142 113 142c55 0 80 -37 80 -71s-26 -63 -61 -63c-33 0 -54 26 -54 62c0 6 -2 10 -7 10c-12 0 -33 -25 -33 -65c0 -59 44 -104 119 -104c89 0 151 61 151 167
c0 110 -70 198 -264 198h-326h-394v75h443h268zM552 394c62 0 77 -103 77 -185c0 -125 -37 -223 -128 -223c-69 0 -137 57 -160 140h-2c-23 -83 -98 -140 -165 -140c-75 0 -124 70 -124 162c0 84 43 139 102 139c49 0 73 -37 86 -79l-16 -15c-13 23 -36 34 -62 34
c-41 0 -70 -26 -70 -72c0 -51 35 -84 86 -84c75 0 145 74 159 150h9c14 -76 78 -150 152 -150c67 0 103 60 103 140c0 39 -10 66 -26 83c-16 15 -36 18 -50 31c-9 8 -13 18 -13 29c0 23 17 40 42 40zM402 331c0 -33 -27 -60 -60 -60c-34 0 -59 27 -59 60c0 32 25 59 59 59
c33 0 60 -27 60 -59zM331 16h16c14 -120 43 -133 43 -177c0 -40 -25 -59 -51 -59c-27 0 -52 23 -52 59c0 44 31 57 44 177z" />
    <glyph glyph-name="knBAA" horiz-adv-x="1138" 
d="M785 509c238 0 308 -119 308 -270c0 -146 -74 -252 -188 -252c-94 0 -154 72 -155 171c1 78 41 142 113 142c55 0 80 -37 80 -71s-26 -63 -61 -63c-33 0 -54 26 -54 62c0 6 -2 10 -7 10c-12 0 -33 -25 -33 -65c0 -59 44 -104 119 -104c89 0 151 61 151 167
c0 110 -70 198 -264 198h-253c82 -47 145 -137 145 -263c0 -87 -54 -185 -156 -185c-71 0 -139 57 -162 140h-2c-23 -83 -91 -140 -160 -140c-66 0 -127 52 -127 136c0 71 43 116 82 156c32 33 63 66 63 107c0 42 -34 67 -76 67c-47 0 -70 -31 -70 -67c0 -13 3 -25 10 -40
l-20 -15c-21 22 -29 50 -29 76c0 58 39 113 114 113c76 0 124 -54 124 -112s-48 -109 -89 -150c-34 -34 -58 -70 -58 -105c0 -38 27 -81 81 -81c72 0 137 74 151 150h9c13 -75 79 -150 152 -150c76 0 125 50 125 132c0 98 -99 221 -251 231h-37v75h191h234z" />
    <glyph glyph-name="knBHAA" horiz-adv-x="1165" 
d="M812 509c238 0 308 -119 308 -270c0 -146 -74 -252 -188 -252c-94 0 -154 72 -155 171c1 78 41 142 113 142c55 0 80 -37 80 -71s-26 -63 -61 -63c-33 0 -54 26 -54 62c0 6 -2 10 -7 10c-12 0 -33 -25 -33 -65c0 -59 44 -104 119 -104c89 0 151 61 151 167
c0 110 -70 198 -264 198h-280c82 -47 145 -137 145 -263c0 -87 -54 -185 -156 -185c-71 0 -139 57 -162 140h-2c-23 -83 -91 -140 -160 -140c-66 0 -127 52 -127 136c0 71 43 116 82 156c32 33 63 66 63 107c0 42 -34 67 -76 67c-47 0 -70 -31 -70 -67c0 -13 3 -25 10 -40
l-20 -15c-21 22 -29 50 -29 76c0 58 39 113 114 113c76 0 124 -54 124 -112s-48 -109 -89 -150c-34 -34 -58 -70 -58 -105c0 -38 27 -81 81 -81c72 0 137 74 151 150h9c13 -75 79 -150 152 -150c76 0 125 50 125 132c0 98 -99 221 -251 231h-37v75h191h261zM360 16h16
c14 -120 43 -133 43 -177c0 -40 -25 -59 -51 -59c-27 0 -52 23 -52 59c0 44 31 57 44 177z" />
    <glyph glyph-name="knMAA" horiz-adv-x="1454" 
d="M1101 509c238 0 308 -119 308 -270c0 -146 -74 -252 -188 -252c-94 0 -154 72 -155 171c1 78 41 142 113 142c55 0 80 -37 80 -71s-26 -63 -61 -63c-33 0 -54 26 -54 62c0 6 -2 10 -7 10c-12 0 -33 -25 -33 -65c0 -59 44 -104 119 -104c89 0 151 61 151 167
c0 110 -70 198 -264 198h-186c31 -45 53 -109 53 -192c0 -147 -80 -256 -193 -256c-65 0 -124 47 -162 116c-16 -64 -54 -116 -120 -116c-69 0 -138 57 -161 140h-2c-23 -83 -98 -140 -165 -140c-75 0 -124 70 -124 161c0 85 43 140 102 140c49 0 73 -37 86 -79l-16 -15
c-11 24 -36 34 -61 34c-42 0 -71 -26 -71 -72c0 -51 35 -84 85 -84c76 0 146 74 160 150h9c14 -76 79 -150 151 -150c59 0 98 50 98 124c0 116 -99 229 -251 239h-292v75h443c61 0 92 27 92 67c0 34 -22 59 -46 68l15 20c43 -16 74 -57 74 -112c0 -72 -54 -118 -135 -118h-2
c80 -48 140 -138 140 -256v-2c37 -67 91 -105 155 -105c86 0 156 66 156 184c0 90 -49 179 -137 179h-6v75h302z" />
    <glyph glyph-name="knYAA" horiz-adv-x="1649" 
d="M1296 509c238 0 308 -119 308 -270c0 -146 -74 -252 -188 -252c-94 0 -154 72 -155 171c1 78 41 142 113 142c55 0 80 -37 80 -71s-26 -63 -61 -63c-33 0 -54 26 -54 62c0 6 -2 10 -7 10c-12 0 -33 -25 -33 -65c0 -59 44 -104 119 -104c89 0 151 61 151 167
c0 110 -70 198 -264 198h-186c31 -45 53 -109 53 -192c0 -147 -80 -256 -193 -256c-70 0 -134 54 -170 133c-31 -81 -93 -133 -169 -133c-70 0 -128 47 -159 128c-37 -78 -108 -128 -201 -128c-139 0 -230 113 -230 264c0 152 92 269 231 269s229 -117 229 -269
c0 -29 -3 -57 -10 -83c34 -71 78 -96 134 -96c91 0 161 66 161 184c0 89 -65 156 -112 179h-148v75h192c61 0 92 27 92 67c0 34 -22 59 -46 68l15 20c43 -16 74 -57 74 -112c0 -57 -34 -98 -88 -112c32 -45 56 -112 56 -198c0 -22 -2 -44 -5 -64c37 -68 91 -107 156 -107
c86 0 156 66 156 184c0 90 -49 179 -137 179h-6v75h302zM280 71c101 0 192 73 192 183c0 115 -80 187 -191 187s-191 -72 -191 -182c0 -115 89 -188 190 -188z" />
    <glyph glyph-name="knRAA" horiz-adv-x="983" 
d="M630 509c238 0 308 -119 308 -270c0 -146 -74 -252 -188 -252c-94 0 -154 72 -155 171c1 78 41 142 113 142c55 0 80 -37 80 -71s-26 -63 -61 -63c-33 0 -54 26 -54 62c0 6 -2 10 -7 10c-12 0 -33 -25 -33 -65c0 -59 44 -104 119 -104c89 0 151 61 151 167
c0 110 -70 198 -264 198h-245c72 -39 116 -121 116 -208c0 -140 -94 -240 -230 -240s-230 100 -230 240c0 87 44 169 116 208h-116v75h325h255zM465 248c0 101 -84 185 -185 185s-185 -85 -185 -186c0 -103 75 -176 185 -176c109 0 185 74 185 177z" />
    <glyph glyph-name="knLAA" horiz-adv-x="1181" 
d="M828 509c238 0 308 -119 308 -270c0 -146 -74 -252 -188 -252c-94 0 -154 72 -155 171c1 78 41 142 113 142c55 0 80 -37 80 -71s-26 -63 -61 -63c-33 0 -54 26 -54 62c0 6 -2 10 -7 10c-12 0 -33 -25 -33 -65c0 -59 44 -104 119 -104c89 0 151 61 151 167
c0 110 -70 198 -264 198h-226c27 -39 46 -92 46 -153c0 -165 -105 -294 -300 -295c-177 0 -297 118 -297 297c0 131 68 236 166 236c75 0 111 -62 111 -125c0 -69 -42 -121 -108 -121c-55 0 -98 35 -98 108c0 9 0 17 2 29c-22 -28 -33 -66 -33 -109c0 -129 99 -230 268 -230
c152 0 254 85 254 222c0 72 -50 128 -128 144v72h1v0h333zM235 454c-29 0 -53 -7 -72 -18c-2 -10 -4 -21 -4 -28c0 -43 31 -64 76 -64c44 0 72 21 72 57c0 39 -34 53 -72 53z" />
    <glyph glyph-name="knVAA" horiz-adv-x="1114" 
d="M761 509c238 0 308 -119 308 -270c0 -146 -74 -252 -188 -252c-94 0 -154 72 -155 171c1 78 41 142 113 142c55 0 80 -37 80 -71s-26 -63 -61 -63c-33 0 -54 26 -54 62c0 6 -2 10 -7 10c-12 0 -33 -25 -33 -65c0 -59 44 -104 119 -104c89 0 151 61 151 167
c0 110 -70 198 -264 198h-279c80 -48 140 -138 140 -256c0 -94 -43 -192 -134 -192c-69 0 -139 57 -162 140h-2c-23 -83 -92 -140 -159 -140c-75 0 -124 70 -124 161c0 85 44 140 102 140c50 0 74 -37 85 -79l-16 -15c-9 24 -32 34 -57 34c-42 0 -74 -23 -74 -72
c0 -51 35 -84 85 -84c76 0 140 74 154 150h9c14 -76 82 -150 154 -150c57 0 101 50 101 124c0 116 -99 229 -251 239h-292v75h443h268z" />
    <glyph glyph-name="knSHAA" horiz-adv-x="1009" 
d="M656 509c238 0 308 -119 308 -270c0 -146 -74 -252 -188 -252c-94 0 -154 72 -155 171c1 78 41 142 113 142c55 0 80 -37 80 -71s-26 -63 -61 -63c-33 0 -54 26 -54 62c0 6 -2 10 -7 10c-12 0 -33 -25 -33 -65c0 -59 44 -104 119 -104c89 0 151 61 151 167
c0 110 -70 198 -264 198h-252c66 -39 106 -108 106 -198c0 -146 -101 -250 -249 -250c-137 0 -215 80 -215 168c0 68 47 107 154 107c62 0 121 12 121 82c0 56 -38 96 -85 96c-39 0 -73 -27 -73 -62c0 -17 8 -30 17 -30c4 0 5 4 5 7c0 22 14 39 34 39c22 0 38 -18 38 -39
c0 -23 -18 -46 -54 -46c-45 0 -71 34 -71 71c0 20 7 39 23 55h-106v75h345h253zM469 257c0 99 -54 158 -120 177h-10v2c-9 2 -17 3 -26 4c32 -20 49 -57 49 -100c0 -66 -40 -109 -153 -109c-84 0 -107 -22 -107 -53c0 -52 63 -107 168 -107c120 0 199 67 199 186z" />
    <glyph glyph-name="knSSAA" horiz-adv-x="1129" 
d="M776 509c238 0 308 -119 308 -270c0 -146 -74 -252 -188 -252c-94 0 -154 72 -155 171c1 78 41 142 113 142c55 0 80 -37 80 -71s-26 -63 -61 -63c-33 0 -54 26 -54 62c0 6 -2 10 -7 10c-12 0 -33 -25 -33 -65c0 -59 44 -104 119 -104c89 0 151 61 151 167
c0 110 -70 198 -264 198h-326h-404v75h443h278zM611 66c34 -35 68 -59 86 -80c9 -11 14 -21 14 -34c0 -22 -15 -38 -37 -38c-16 0 -27 8 -37 21c-16 20 -30 54 -50 89c-20 -24 -47 -38 -81 -38c-69 0 -137 57 -160 140h-2c-23 -83 -98 -140 -165 -140
c-75 0 -124 70 -124 162c0 84 43 139 102 139c49 0 73 -37 86 -79l-16 -15c-13 23 -36 34 -62 34c-41 0 -70 -26 -70 -72c0 -51 35 -84 86 -84c75 0 145 74 159 150h9c14 -76 78 -150 152 -150c17 0 32 4 45 11l-125 160l21 18l132 -154c20 26 30 62 30 105
c0 39 -10 66 -26 83c-16 15 -36 18 -50 31c-9 8 -13 18 -13 29c0 23 17 40 42 40c62 0 77 -103 77 -185c0 -55 -7 -105 -23 -143zM407 331c0 -33 -27 -60 -60 -60c-34 0 -59 27 -59 60c0 32 25 59 59 59c33 0 60 -27 60 -59z" />
    <glyph glyph-name="knSAA" horiz-adv-x="1099" 
d="M746 509c238 0 308 -119 308 -270c0 -146 -74 -252 -188 -252c-94 0 -154 72 -155 171c1 78 41 142 113 142c55 0 80 -37 80 -71s-26 -63 -61 -63c-33 0 -54 26 -54 62c0 6 -2 10 -7 10c-12 0 -33 -25 -33 -65c0 -59 44 -104 119 -104c89 0 151 61 151 167
c0 110 -70 198 -264 198h-326h-384v75h434h267zM367 347c0 -33 -22 -59 -58 -59s-58 26 -58 59s22 57 58 57s58 -24 58 -57zM521 377c60 -58 89 -140 89 -227c0 -88 -33 -164 -112 -164c-111 0 -133 184 -280 184c-66 0 -118 -50 -125 -184l-29 8c0 150 60 253 155 253
c133 0 150 -176 263 -176c54 0 84 43 84 117c0 61 -26 122 -68 172z" />
    <glyph glyph-name="knHAA" horiz-adv-x="1149" 
d="M796 509c238 0 308 -119 308 -270c0 -146 -74 -252 -188 -252c-94 0 -154 72 -155 171c1 78 41 142 113 142c55 0 80 -37 80 -71s-26 -63 -61 -63c-33 0 -54 26 -54 62c0 6 -2 10 -7 10c-12 0 -33 -25 -33 -65c0 -59 44 -104 119 -104c89 0 151 61 151 167
c0 110 -70 198 -264 198h-326h-162c39 -31 57 -80 62 -154c27 37 65 60 124 60c95 0 166 -74 166 -178c0 -98 -71 -176 -166 -176c-67 0 -114 40 -141 104c-27 -64 -75 -104 -141 -104c-95 0 -166 78 -166 176c0 104 71 178 166 178c55 0 92 -20 119 -53
c-4 81 -32 136 -103 147h-182v75h478h263zM221 71c67 0 120 42 120 116c0 72 -52 115 -120 115c-62 0 -116 -46 -116 -115c0 -74 54 -116 116 -116zM497 302c-62 0 -114 -43 -114 -115c0 -74 52 -116 114 -116c67 0 122 42 122 116c0 69 -54 115 -122 115z" />
    <glyph glyph-name="knRRAA" horiz-adv-x="1224" 
d="M871 509c238 0 308 -119 308 -270c0 -146 -74 -252 -188 -252c-94 0 -154 72 -155 171c1 78 41 142 113 142c55 0 80 -37 80 -71s-26 -63 -61 -63c-33 0 -54 26 -54 62c0 6 -2 10 -7 10c-12 0 -33 -25 -33 -65c0 -59 44 -104 119 -104c89 0 151 61 151 167
c0 110 -70 198 -264 198h-192c29 -50 45 -118 45 -191c0 -161 -77 -257 -176 -257c-77 0 -147 57 -170 140h-2c-23 -83 -87 -140 -166 -140c-102 0 -179 96 -179 256c0 150 68 277 170 277c71 0 107 -62 107 -125c0 -18 -3 -35 -8 -50h155c-5 15 -8 32 -8 50
c0 63 36 125 107 125c17 0 33 -3 48 -10h260zM552 71c84 0 141 78 141 194c0 100 -42 189 -135 189c-38 0 -72 -15 -72 -54c0 -35 28 -56 75 -56h50v-71h-448v71h49c47 0 75 21 75 56c0 39 -34 54 -72 54c-93 0 -135 -89 -135 -188c0 -117 57 -195 141 -195
c82 0 146 74 160 150h9c13 -75 80 -150 162 -150z" />
    <glyph glyph-name="knLLAA" horiz-adv-x="994" 
d="M641 509c238 0 308 -119 308 -270c0 -146 -74 -252 -188 -252c-94 0 -154 72 -155 171c1 78 41 142 113 142c55 0 80 -37 80 -71s-26 -63 -61 -63c-33 0 -54 26 -54 62c0 6 -2 10 -7 10c-12 0 -33 -25 -33 -65c0 -59 44 -104 119 -104c89 0 151 61 151 167
c0 110 -70 198 -264 198h-121c20 -19 34 -45 34 -80c0 -93 -97 -129 -182 -158c28 -20 46 -49 46 -93c0 -69 -44 -117 -116 -117c-66 0 -111 42 -111 101c0 37 18 63 45 84c-101 16 -215 48 -215 192c0 97 65 156 150 156c82 0 115 -52 115 -108c0 -48 -24 -101 -90 -101
c-56 0 -92 40 -92 100c0 9 1 17 2 25c-29 -16 -50 -42 -50 -79c0 -76 84 -93 171 -111c36 -8 72 -15 103 -27c10 4 20 7 30 11c79 28 157 56 157 124c0 47 -37 81 -107 81h-35v75h257zM194 454c-17 0 -33 -2 -49 -7c-1 -6 -2 -13 -2 -20c0 -33 20 -54 63 -54
c39 0 59 17 59 39c0 19 -15 42 -71 42zM391 112c0 32 -42 42 -97 51c-27 -13 -45 -29 -45 -50c0 -28 29 -42 71 -42c38 0 71 12 71 41z" />
    <glyph glyph-name="knLLLAA" horiz-adv-x="1224" 
d="M871 509c238 0 308 -119 308 -270c0 -146 -74 -252 -188 -252c-94 0 -154 72 -155 171c1 78 41 142 113 142c55 0 80 -37 80 -71s-26 -63 -61 -63c-33 0 -54 26 -54 62c0 6 -2 10 -7 10c-12 0 -33 -25 -33 -65c0 -59 44 -104 119 -104c89 0 151 61 151 167
c0 110 -70 198 -264 198h-191c28 -49 44 -113 44 -180c0 -172 -77 -268 -177 -268c-76 0 -146 57 -169 140h-2c-23 -83 -87 -140 -166 -140c-102 0 -179 96 -179 263c0 143 68 270 170 270c71 0 107 -62 107 -125c0 -69 -42 -121 -108 -121c-55 0 -98 35 -98 108v14
c-21 -34 -31 -80 -31 -129c0 -117 57 -195 141 -195c82 0 146 74 160 150h9c13 -75 80 -150 162 -150c84 0 141 78 141 194c0 49 -10 95 -31 130v-14c0 -73 -43 -108 -97 -108c-67 0 -109 52 -109 121c0 63 36 125 107 125c17 0 33 -4 48 -10h260zM215 454
c-30 0 -54 -9 -74 -25c-1 -7 -2 -15 -2 -21c0 -43 31 -64 76 -64c44 0 72 21 72 57c0 39 -34 53 -72 53zM559 344c44 0 75 21 75 64c0 5 -1 13 -2 21c-20 16 -45 25 -75 25c-37 0 -71 -14 -71 -53c0 -36 28 -57 73 -57z" />
    <glyph glyph-name="knKI" horiz-adv-x="505" 
d="M465 360v-66h-112c42 -31 68 -81 68 -135c0 -95 -73 -173 -167 -173c-97 0 -170 78 -170 173c0 54 26 104 69 135h-113v66h145c121 14 191 71 191 132c0 25 -9 50 -24 71c-1 -59 -31 -112 -90 -112c-55 0 -94 49 -94 115c0 63 36 108 95 108c84 0 145 -93 145 -187
c0 -51 -18 -95 -58 -127h115zM256 511c49 0 68 39 68 71v8c-17 11 -37 18 -60 18c-43 0 -63 -25 -63 -51c0 -27 21 -46 55 -46zM374 186c0 66 -58 111 -120 111c-63 0 -122 -45 -122 -111c0 -69 50 -115 122 -115c71 0 120 46 120 115z" />
    <glyph glyph-name="knKHI" horiz-adv-x="793" 
d="M562 679c100 0 176 -137 176 -379c0 -215 -85 -314 -200 -314c-70 0 -122 41 -171 87c-41 -52 -100 -87 -173 -87c-94 0 -154 60 -154 133c0 68 52 112 128 112s131 -45 189 -87c26 37 40 85 40 141c0 112 -61 170 -131 170c-49 0 -81 -29 -81 -66c0 -20 9 -38 22 -38
c3 0 4 1 4 6c0 30 17 51 44 51c28 0 49 -23 49 -51c0 -29 -24 -57 -68 -57c-56 0 -90 50 -90 104c0 65 51 116 122 116c89 0 169 -75 169 -233c0 -59 -14 -120 -41 -170c39 -26 82 -46 134 -46c107 0 168 76 168 240c0 117 -20 196 -50 243c-5 -53 -34 -98 -89 -98
s-94 49 -94 115c0 59 31 108 97 108zM553 516c49 0 68 39 68 71c-20 18 -41 26 -63 26c-41 0 -60 -25 -60 -51c0 -27 21 -46 55 -46zM202 71c51 0 92 15 124 41c-47 44 -95 84 -156 84c-53 0 -76 -29 -76 -58c0 -34 31 -67 108 -67z" />
    <glyph glyph-name="knGI" horiz-adv-x="595" 
d="M535 113c3 -24 4 -49 4 -72v-41h-78v78c0 169 -54 360 -159 360s-159 -191 -159 -360v-78h-78v41c0 134 48 297 130 377c-6 -1 -13 -1 -20 -1c-69 0 -120 33 -120 109c0 73 48 118 120 118c198 0 343 -348 360 -531zM302 466c38 0 72 -16 102 -43
c-66 121 -143 172 -199 172c-41 0 -72 -26 -72 -75c0 -31 12 -71 70 -71c15 0 33 3 54 9c15 5 29 8 45 8z" />
    <glyph glyph-name="knGHI" horiz-adv-x="836" 
d="M339 451c-55 0 -94 49 -94 115c0 63 36 108 95 108c84 0 145 -93 145 -187c0 -87 -52 -153 -174 -173l-49 46c121 14 191 71 191 132c0 25 -9 50 -24 71c-1 -59 -31 -112 -90 -112zM341 608c-43 0 -63 -25 -63 -51c0 -27 21 -46 55 -46c49 0 68 39 68 71v8
c-17 11 -37 18 -60 18zM710 449c62 -38 91 -87 91 -139c0 -62 -40 -109 -100 -109c-27 0 -52 9 -76 45c3 -24 5 -48 5 -72c0 -90 -37 -188 -128 -188c-69 0 -138 57 -161 140h-2c-23 -83 -98 -140 -166 -140c-74 0 -123 70 -123 161c0 85 43 140 102 140c49 0 73 -37 86 -79
l-16 -15c-11 24 -36 34 -62 34c-41 0 -70 -26 -70 -72c0 -51 35 -84 86 -84c75 0 145 74 159 150h9c14 -76 79 -150 151 -150c69 0 99 70 99 131c0 68 -17 128 -37 170l23 18c6 -9 11 -19 15 -30c37 -67 66 -85 97 -85c37 0 60 26 60 61c0 31 -18 63 -61 93zM331 16h16
c14 -120 43 -133 43 -177c0 -40 -25 -59 -50 -59c-28 0 -53 23 -53 59c0 44 31 57 44 177z" />
    <glyph glyph-name="knNGI" horiz-adv-x="852" 
d="M585 308l-19 16c12 13 20 31 20 54c0 52 -41 89 -113 89c-79 0 -150 -44 -238 -160v1c-15 -18 -31 -35 -47 -51c-34 -34 -58 -70 -58 -105c0 -38 27 -81 81 -81c72 0 137 74 151 150h9c13 -75 79 -150 153 -150c57 0 82 45 82 85c0 27 -12 56 -36 80l21 15
c34 -29 63 -79 63 -134c0 -79 -61 -131 -127 -131c-68 0 -136 57 -159 140h-2c-23 -83 -91 -140 -160 -140c-66 0 -127 52 -127 136c0 71 43 116 82 156c32 33 63 66 63 107c0 42 -34 67 -76 67c-47 0 -70 -31 -70 -67c0 -13 3 -25 10 -40l-20 -15c-21 22 -29 50 -29 76
c0 58 39 113 114 113c76 0 124 -53 124 -111c56 69 135 128 222 128c78 0 118 -48 128 -102c123 6 183 46 183 116c0 25 -9 50 -24 71c-1 -59 -31 -112 -90 -112c-55 0 -94 49 -94 115c0 63 36 108 95 108c84 0 145 -93 145 -187c0 -110 -73 -169 -219 -177
c-7 -25 -22 -43 -38 -60zM690 569c49 0 68 39 68 71v8c-17 11 -37 18 -60 18c-43 0 -63 -25 -63 -51c0 -27 21 -46 55 -46zM345 331c0 30 23 54 53 54s53 -24 53 -54c0 -29 -23 -53 -53 -53s-53 24 -53 53z" />
    <glyph glyph-name="knCI" horiz-adv-x="736" 
d="M665 365v-71h-74c41 -37 63 -97 63 -159c0 -97 -61 -149 -127 -149c-68 0 -136 57 -159 140h-2c-23 -83 -91 -140 -160 -140c-66 0 -127 52 -127 136c0 71 43 116 82 156c32 33 63 66 63 107c0 42 -34 67 -76 67c-47 0 -70 -31 -70 -67c0 -13 3 -25 10 -40l-20 -15
c-21 22 -29 50 -29 76c0 58 39 113 114 113c76 0 124 -54 124 -112s-48 -109 -89 -150c-34 -34 -58 -70 -58 -105c0 -38 27 -81 81 -81c72 0 137 74 151 150h9c13 -75 78 -150 152 -150c58 0 83 45 83 92c0 48 -28 101 -71 131h-146v71h29c121 14 191 71 191 132
c0 25 -9 50 -24 71c-1 -59 -31 -112 -90 -112c-55 0 -94 49 -94 115c0 63 36 108 95 108c84 0 145 -93 145 -187c0 -49 -24 -93 -68 -127h92zM489 516c49 0 68 39 68 71v8c-17 11 -37 18 -60 18c-43 0 -63 -25 -63 -51c0 -27 21 -46 55 -46z" />
    <glyph glyph-name="knCHI" horiz-adv-x="790" 
d="M507 724c109 0 219 -173 219 -424c0 -196 -63 -314 -164 -314c-80 0 -148 57 -171 140h-2c-23 -83 -91 -140 -170 -140c-102 0 -179 96 -179 266c0 140 68 267 170 267c71 0 107 -62 107 -125c0 -69 -42 -121 -108 -121c-55 0 -98 35 -98 111v10
c-21 -34 -31 -81 -31 -131c0 -114 57 -192 142 -192c81 0 149 74 163 150h9c13 -75 79 -150 161 -150c89 0 131 96 131 239c0 144 -40 245 -90 299c-1 -56 -31 -108 -90 -108c-55 0 -94 49 -94 114c0 64 36 109 95 109zM501 561c48 0 67 37 67 68v6c-22 15 -44 23 -65 23
c-38 0 -58 -25 -58 -51c0 -27 21 -46 56 -46zM215 454c-30 0 -54 -9 -74 -25c-1 -7 -2 -15 -2 -21c0 -43 31 -64 76 -64c44 0 72 21 72 57c0 39 -34 53 -72 53zM383 16h16c14 -120 43 -133 43 -177c0 -40 -25 -59 -50 -59c-28 0 -53 23 -53 59c0 44 31 57 44 177z" />
    <glyph glyph-name="knJI" horiz-adv-x="715" 
d="M591 251c34 -29 63 -79 63 -134c0 -79 -61 -131 -127 -131c-68 0 -136 57 -159 140h-2c-23 -83 -91 -140 -160 -140c-66 0 -127 52 -127 136c0 71 43 116 82 156c32 33 63 66 63 107c0 42 -34 67 -76 67c-47 0 -70 -31 -70 -67c0 -13 3 -25 10 -40l-20 -15
c-21 22 -29 50 -29 76c0 58 39 113 114 113c47 0 83 -20 104 -49c75 -80 141 -110 211 -110c85 0 141 46 141 124c0 31 -9 59 -24 82c-1 -59 -31 -110 -90 -110c-55 0 -94 49 -94 115c0 63 36 108 95 108c84 0 145 -93 145 -220c0 -90 -30 -172 -156 -172
c-74 0 -142 40 -208 113c-4 -55 -50 -104 -89 -143c-34 -34 -58 -70 -58 -105c0 -38 27 -81 81 -81c72 0 137 74 151 150h9c13 -75 79 -150 153 -150c57 0 82 45 82 85c0 27 -12 56 -36 80zM489 516c49 0 68 39 68 71v8c-17 11 -37 18 -60 18c-43 0 -63 -25 -63 -51
c0 -27 21 -46 55 -46z" />
    <glyph glyph-name="knJHI" horiz-adv-x="1221" 
d="M999 513c71 0 167 -98 167 -271c0 -147 -80 -256 -193 -256c-70 0 -133 50 -163 136c-31 -82 -94 -136 -173 -136c-65 0 -123 42 -156 117c-37 -72 -110 -117 -201 -117c-136 0 -230 100 -230 240c0 78 35 152 94 194c-53 10 -94 44 -94 111c0 68 48 113 134 113
c184 0 259 -178 307 -321c12 -30 19 -63 19 -97c0 -25 -3 -49 -9 -71c35 -62 80 -84 136 -84c88 0 158 66 158 184c0 89 -48 150 -84 165c-24 10 -45 3 -68 10c-16 5 -28 21 -28 40c0 23 17 43 49 43c70 0 166 -98 166 -271c0 -22 -2 -42 -5 -62c36 -81 86 -109 148 -109
c88 0 158 66 158 184c0 89 -47 152 -84 165c-24 8 -45 3 -68 10c-16 5 -28 21 -28 40c0 23 17 43 48 43zM213 595c-47 0 -85 -24 -85 -73c0 -31 17 -73 61 -73c6 0 11 0 17 2c23 7 48 10 74 10c41 0 78 -8 110 -25c13 -7 25 -15 36 -24c-60 124 -135 183 -213 183zM280 71
c109 0 185 74 185 177c0 101 -84 185 -185 185s-185 -85 -185 -186c0 -103 75 -176 185 -176zM797 16h16c14 -120 43 -133 43 -177c0 -40 -25 -59 -51 -59c-27 0 -52 23 -52 59c0 44 31 57 44 177z" />
    <glyph glyph-name="knNYI" horiz-adv-x="1111" 
d="M1101 545c0 -103 -64 -161 -190 -174c-2 -27 -11 -53 -28 -75l-31 21c8 8 13 23 13 41c0 44 -31 84 -89 84c-82 0 -131 -81 -146 -155c-6 -63 -30 -124 -66 -175c48 -55 74 -120 74 -165c0 -31 -12 -44 -28 -44c-21 0 -31 21 -31 52c0 38 -14 84 -42 124
c-52 -56 -122 -93 -196 -93c-91 0 -154 52 -154 119c0 63 57 111 151 111c80 0 145 -30 194 -72c39 39 63 93 63 156c0 90 -52 141 -113 141c-84 0 -140 -84 -152 -158h-10c-14 75 -64 159 -154 159c-58 0 -89 -40 -89 -84c0 -18 5 -33 13 -41l-31 -21c-21 27 -29 60 -29 92
c0 79 49 131 123 131c82 0 148 -58 171 -142h2c23 84 88 142 161 142c74 0 123 -51 139 -139c23 82 89 139 165 139c56 0 99 -32 114 -84c110 9 164 49 164 115c0 25 -9 50 -24 71c-1 -59 -31 -112 -90 -112c-55 0 -94 49 -94 115c0 63 36 108 95 108c84 0 145 -93 145 -187
zM949 569c49 0 68 39 68 71v8c-17 11 -37 18 -60 18c-43 0 -63 -25 -63 -51c0 -27 21 -46 55 -46zM240 124c0 -35 51 -53 111 -53c57 0 110 17 152 48c-39 38 -93 65 -160 65c-65 0 -103 -29 -103 -60z" />
    <glyph glyph-name="knTTI" horiz-adv-x="761" 
d="M621 404c67 -33 104 -101 104 -190c0 -136 -62 -228 -173 -228c-70 0 -138 57 -161 140h-2c-23 -83 -91 -140 -161 -140c-111 0 -188 96 -188 255c0 107 45 197 117 227c-38 22 -67 56 -67 98c0 54 46 100 130 105l9 -22c-52 -12 -75 -43 -75 -88c0 -32 14 -57 46 -82h10
c71 0 107 -62 107 -128s-42 -118 -105 -118c-58 0 -101 35 -101 108c0 8 0 16 1 27c-22 -29 -32 -70 -32 -116c0 -103 57 -181 148 -181c75 0 143 74 157 150h9c13 -75 79 -150 152 -150c88 0 140 67 140 156c0 68 -39 138 -121 155c-18 -4 -37 -8 -59 -10l-30 58
c123 11 191 49 191 120c0 25 -9 50 -24 71c-1 -59 -31 -112 -90 -112c-55 0 -94 49 -94 115c0 63 36 108 95 108c84 0 145 -93 145 -187c0 -65 -26 -112 -78 -141zM547 569c49 0 68 39 68 71v8c-17 11 -37 18 -60 18c-43 0 -63 -25 -63 -51c0 -27 21 -46 55 -46zM287 361
c0 39 -34 53 -72 53c-29 0 -53 -7 -73 -19c-1 -9 -3 -20 -3 -27c0 -43 31 -64 73 -64c47 0 75 21 75 57z" />
    <glyph glyph-name="knTTHI" horiz-adv-x="560" 
d="M491 323c12 -30 19 -63 19 -97c0 -140 -94 -240 -230 -240s-230 100 -230 240c0 78 35 152 94 194c-53 10 -94 44 -94 111c0 68 48 113 134 113c184 0 259 -178 307 -321zM213 595c-47 0 -85 -24 -85 -73c0 -31 17 -73 61 -73c6 0 11 0 17 2c23 7 48 10 74 10
c41 0 78 -8 110 -25c13 -7 25 -15 36 -24c-60 124 -135 183 -213 183zM280 71c109 0 185 74 185 177c0 101 -84 185 -185 185s-185 -85 -185 -186c0 -103 75 -176 185 -176zM280 321c34 0 59 -26 59 -60s-25 -58 -59 -58s-60 24 -60 58s26 60 60 60z" />
    <glyph glyph-name="knDDI" horiz-adv-x="700" 
d="M596 292c33 -47 49 -112 49 -161c0 -98 -63 -145 -132 -145c-76 0 -144 57 -167 140h-2c-23 -83 -91 -140 -162 -140c-65 0 -127 47 -127 164c0 118 60 213 141 267c-70 1 -129 34 -129 114c0 68 48 113 134 113c165 0 336 -152 385 -308c5 -14 9 -28 10 -44zM226 449
c18 0 34 2 49 6c26 8 53 12 79 12c52 0 112 -17 159 -48c-77 118 -203 176 -286 176c-49 0 -82 -27 -82 -70c0 -36 22 -76 81 -76zM505 71c59 0 94 42 94 109c0 21 -4 43 -10 62c-16 -39 -53 -57 -91 -57c-58 0 -100 44 -100 91c0 39 29 79 88 79c25 0 47 -7 66 -20
c-29 52 -109 106 -198 106c-140 0 -250 -141 -250 -260c0 -67 34 -110 87 -110c70 0 136 74 150 150h9c14 -76 79 -150 155 -150zM563 288c-18 23 -44 38 -74 38c-34 0 -52 -19 -52 -42c0 -22 17 -41 58 -41c45 0 65 23 68 45z" />
    <glyph glyph-name="knDDHI" horiz-adv-x="700" 
d="M596 292c33 -47 49 -112 49 -161c0 -98 -63 -145 -132 -145c-76 0 -144 57 -167 140h-2c-23 -83 -91 -140 -162 -140c-65 0 -127 47 -127 164c0 118 60 213 141 267c-70 1 -129 34 -129 114c0 68 48 113 134 113c165 0 336 -152 385 -308c5 -14 9 -28 10 -44zM226 449
c18 0 34 2 49 6c26 8 53 12 79 12c52 0 112 -17 159 -48c-77 118 -203 176 -286 176c-49 0 -82 -27 -82 -70c0 -36 22 -76 81 -76zM505 71c59 0 94 42 94 109c0 21 -4 43 -10 62c-16 -39 -53 -57 -91 -57c-58 0 -100 44 -100 91c0 39 29 79 88 79c25 0 47 -7 66 -20
c-29 52 -109 106 -198 106c-140 0 -250 -141 -250 -260c0 -67 34 -110 87 -110c70 0 136 74 150 150h9c14 -76 79 -150 155 -150zM563 288c-18 23 -44 38 -74 38c-34 0 -52 -19 -52 -42c0 -22 17 -41 58 -41c45 0 65 23 68 45zM336 16h16c14 -120 43 -133 43 -177
c0 -40 -25 -59 -51 -59c-27 0 -52 23 -52 59c0 44 31 57 44 177z" />
    <glyph glyph-name="knNNI" horiz-adv-x="896" 
d="M883 545c0 -100 -61 -158 -180 -174c14 -40 22 -87 22 -136c0 -138 -74 -249 -178 -249c-81 0 -143 65 -143 162c0 89 43 139 101 139c50 0 74 -37 87 -79l-16 -15c-11 24 -32 34 -59 34c-44 0 -73 -26 -73 -71c0 -52 39 -85 98 -85c76 0 148 57 148 174
c0 112 -65 196 -164 196c-98 0 -163 -76 -176 -158h-9c-14 83 -73 158 -155 158c-55 0 -90 -34 -90 -79c0 -53 51 -96 132 -114v-24c-78 -11 -131 -52 -131 -101c0 -33 23 -57 68 -57c43 0 76 22 97 85l23 -12c-3 -61 -41 -153 -128 -153c-64 0 -107 50 -107 114
c0 63 42 114 102 136v4c-46 11 -102 74 -102 149s58 130 133 130c76 0 138 -58 161 -142h3c23 84 91 142 175 142c63 0 114 -32 149 -85c121 6 180 47 180 116c0 25 -9 50 -24 71c-1 -59 -31 -112 -90 -112c-55 0 -94 49 -94 115c0 63 36 108 95 108c84 0 145 -93 145 -187z
M731 569c49 0 68 39 68 71v8c-17 11 -37 18 -60 18c-43 0 -63 -25 -63 -51c0 -27 21 -46 55 -46z" />
    <glyph glyph-name="knTI" horiz-adv-x="589" 
d="M457 341c47 -33 77 -84 77 -149c0 -115 -95 -204 -243 -204c-151 0 -236 90 -236 187c0 35 11 64 24 85l24 -4c-6 -13 -11 -32 -11 -51c0 -74 76 -132 196 -132c129 0 200 68 200 144c0 35 -15 64 -39 86c-22 -71 -73 -112 -146 -112c-74 0 -130 41 -130 97s57 94 144 94
c38 0 74 -8 105 -22c2 12 3 24 3 36c0 73 -34 150 -90 190c1 -6 1 -12 1 -18c0 -58 -30 -112 -89 -112c-56 0 -95 49 -95 114c0 64 36 109 97 109c116 0 211 -143 211 -294c0 -16 -1 -30 -3 -44zM308 585c0 5 0 11 -2 17c-16 7 -35 11 -54 11c-47 0 -67 -25 -67 -51
c0 -27 21 -46 56 -46c48 0 67 37 67 69zM301 249c56 0 94 31 112 78c-26 12 -57 19 -91 19c-56 0 -94 -19 -94 -51c0 -28 30 -46 73 -46z" />
    <glyph glyph-name="knTHI" horiz-adv-x="690" 
d="M605 289c19 -41 30 -86 30 -136c0 -120 -63 -167 -127 -167c-71 0 -139 57 -162 140h-2c-23 -83 -91 -140 -162 -140c-65 0 -127 47 -127 165s60 212 139 266c-68 1 -127 34 -127 114c0 68 48 113 134 113c170 0 346 -209 404 -355zM225 449c16 0 37 3 60 11l-1 -1
c20 5 41 8 61 8c51 0 104 -18 151 -50c-76 103 -188 178 -264 178c-56 0 -87 -27 -87 -69c0 -37 22 -77 80 -77zM499 71c53 0 87 43 87 109c0 120 -109 261 -241 261s-241 -141 -241 -260c0 -67 34 -110 87 -110c70 0 136 74 150 150h9c14 -76 79 -150 149 -150zM346 375
c33 0 59 -27 59 -60s-26 -59 -59 -59s-59 26 -59 59s26 60 59 60zM336 16h16c14 -120 43 -133 43 -177c0 -40 -25 -59 -51 -59c-27 0 -52 23 -52 59c0 44 31 57 44 177z" />
    <glyph glyph-name="knDI" horiz-adv-x="690" 
d="M605 289c19 -41 30 -86 30 -136c0 -120 -63 -167 -127 -167c-71 0 -139 57 -162 140h-2c-23 -83 -91 -140 -162 -140c-65 0 -127 47 -127 165s60 212 139 266c-68 1 -127 34 -127 114c0 68 48 113 134 113c170 0 346 -209 404 -355zM225 449c16 0 37 3 60 11l-1 -1
c20 5 41 8 61 8c51 0 104 -18 151 -50c-76 103 -188 178 -264 178c-56 0 -87 -27 -87 -69c0 -37 22 -77 80 -77zM499 71c53 0 87 43 87 109c0 120 -109 261 -241 261s-241 -141 -241 -260c0 -67 34 -110 87 -110c70 0 136 74 150 150h9c14 -76 79 -150 149 -150z" />
    <glyph glyph-name="knDHI" horiz-adv-x="690" 
d="M605 289c19 -41 30 -86 30 -136c0 -120 -63 -167 -127 -167c-71 0 -139 57 -162 140h-2c-23 -83 -91 -140 -162 -140c-65 0 -127 47 -127 165s60 212 139 266c-68 1 -127 34 -127 114c0 68 48 113 134 113c170 0 346 -209 404 -355zM225 449c16 0 37 3 60 11l-1 -1
c20 5 41 8 61 8c51 0 104 -18 151 -50c-76 103 -188 178 -264 178c-56 0 -87 -27 -87 -69c0 -37 22 -77 80 -77zM499 71c53 0 87 43 87 109c0 120 -109 261 -241 261s-241 -141 -241 -260c0 -67 34 -110 87 -110c70 0 136 74 150 150h9c14 -76 79 -150 149 -150zM336 16h16
c14 -120 43 -133 43 -177c0 -40 -25 -59 -51 -59c-27 0 -52 23 -52 59c0 44 31 57 44 177z" />
    <glyph glyph-name="knNI" horiz-adv-x="615" 
d="M284 679c130 0 272 -232 272 -464c0 -143 -60 -229 -148 -229c-146 0 -76 226 -225 226c-65 0 -98 -41 -98 -90s32 -95 83 -112c25 -9 41 -28 41 -47c0 -20 -11 -29 -29 -29c-70 0 -130 114 -130 197c0 93 59 163 135 163c137 0 97 -223 226 -223c57 0 100 45 100 166
c0 162 -64 283 -137 340v-9c0 -58 -30 -112 -89 -112c-56 0 -95 49 -95 114c0 64 36 109 94 109zM346 583c0 4 0 8 -1 12c-22 12 -43 18 -64 18c-38 0 -58 -25 -58 -48c0 -30 21 -49 55 -49c49 0 68 37 68 67z" />
    <glyph glyph-name="knPI" horiz-adv-x="684" 
d="M341 456c-55 0 -94 49 -94 115c0 63 36 108 95 108c84 0 145 -93 145 -187c0 -83 -70 -155 -193 -180l-30 53c121 14 191 71 191 132c0 25 -9 50 -24 71c-1 -59 -31 -112 -90 -112zM343 613c-43 0 -63 -25 -63 -51c0 -27 21 -46 55 -46c49 0 68 39 68 71v8
c-17 11 -37 18 -60 18zM552 394c62 0 77 -103 77 -185c0 -125 -37 -223 -128 -223c-69 0 -137 57 -160 140h-2c-23 -83 -98 -140 -165 -140c-75 0 -124 70 -124 162c0 84 43 139 102 139c49 0 73 -37 86 -79l-16 -15c-13 23 -36 34 -62 34c-41 0 -70 -26 -70 -72
c0 -51 35 -84 86 -84c75 0 145 74 159 150h9c14 -76 78 -150 152 -150c67 0 103 60 103 140c0 39 -10 66 -26 83c-16 15 -36 18 -50 31c-9 8 -13 18 -13 29c0 23 17 40 42 40z" />
    <glyph glyph-name="knPHI" horiz-adv-x="684" 
d="M341 456c-55 0 -94 49 -94 115c0 63 36 108 95 108c84 0 145 -93 145 -187c0 -83 -70 -155 -193 -180l-30 53c121 14 191 71 191 132c0 25 -9 50 -24 71c-1 -59 -31 -112 -90 -112zM343 613c-43 0 -63 -25 -63 -51c0 -27 21 -46 55 -46c49 0 68 39 68 71v8
c-17 11 -37 18 -60 18zM552 394c62 0 77 -103 77 -185c0 -125 -37 -223 -128 -223c-69 0 -137 57 -160 140h-2c-23 -83 -98 -140 -165 -140c-75 0 -124 70 -124 162c0 84 43 139 102 139c49 0 73 -37 86 -79l-16 -15c-13 23 -36 34 -62 34c-41 0 -70 -26 -70 -72
c0 -51 35 -84 86 -84c75 0 145 74 159 150h9c14 -76 78 -150 152 -150c67 0 103 60 103 140c0 39 -10 66 -26 83c-16 15 -36 18 -50 31c-9 8 -13 18 -13 29c0 23 17 40 42 40zM331 16h16c14 -120 43 -133 43 -177c0 -40 -25 -59 -51 -59c-27 0 -52 23 -52 59
c0 44 31 57 44 177z" />
    <glyph glyph-name="knBI" horiz-adv-x="740" 
d="M412 679c130 0 272 -232 272 -455c0 -125 -45 -238 -150 -238c-75 0 -143 57 -166 140h-2c-23 -83 -91 -140 -160 -140c-66 0 -127 52 -127 136c0 71 43 116 82 156c32 33 63 66 63 107c0 42 -34 67 -76 67c-47 0 -70 -31 -70 -67c0 -13 3 -25 10 -40l-20 -15
c-21 22 -29 50 -29 76c0 58 39 113 114 113c76 0 124 -54 124 -112s-48 -109 -89 -150c-34 -34 -58 -70 -58 -105c0 -38 27 -81 81 -81c72 0 137 74 151 150h9c13 -75 79 -150 157 -150c68 0 111 58 111 182c0 151 -64 268 -137 324v-9c0 -58 -30 -112 -89 -112
c-56 0 -95 49 -95 114c0 64 36 109 94 109zM474 583c0 4 0 8 -1 13c-22 11 -43 17 -64 17c-38 0 -58 -25 -58 -48c0 -30 21 -49 55 -49c49 0 68 37 68 67z" />
    <glyph glyph-name="knBHI" horiz-adv-x="740" 
d="M412 679c130 0 272 -232 272 -455c0 -125 -45 -238 -150 -238c-75 0 -143 57 -166 140h-2c-23 -83 -91 -140 -160 -140c-66 0 -127 52 -127 136c0 71 43 116 82 156c32 33 63 66 63 107c0 42 -34 67 -76 67c-47 0 -70 -31 -70 -67c0 -13 3 -25 10 -40l-20 -15
c-21 22 -29 50 -29 76c0 58 39 113 114 113c76 0 124 -54 124 -112s-48 -109 -89 -150c-34 -34 -58 -70 -58 -105c0 -38 27 -81 81 -81c72 0 137 74 151 150h9c13 -75 79 -150 157 -150c68 0 111 58 111 182c0 151 -64 268 -137 324v-9c0 -58 -30 -112 -89 -112
c-56 0 -95 49 -95 114c0 64 36 109 94 109zM474 583c0 4 0 8 -1 13c-22 11 -43 17 -64 17c-38 0 -58 -25 -58 -48c0 -30 21 -49 55 -49c49 0 68 37 68 67zM360 16h16c14 -120 43 -133 43 -177c0 -40 -25 -59 -51 -59c-27 0 -52 23 -52 59c0 44 31 57 44 177z" />
    <glyph glyph-name="knMI" horiz-adv-x="1037" 
d="M810 513c71 0 167 -98 167 -271c0 -147 -80 -256 -185 -256c-72 0 -143 51 -170 118c-17 -68 -55 -118 -120 -118c-69 0 -138 57 -161 140h-2c-23 -83 -98 -140 -165 -140c-75 0 -124 70 -124 161c0 85 43 140 102 140c49 0 73 -37 86 -79l-16 -15c-11 24 -36 34 -61 34
c-42 0 -71 -26 -71 -72c0 -51 35 -84 85 -84c76 0 146 74 160 150h9c14 -76 79 -150 151 -150c59 0 98 50 98 154c-2 131 -67 243 -140 297v-10c0 -58 -30 -112 -89 -112c-56 0 -95 49 -95 114c0 64 36 109 94 109c130 0 269 -220 269 -427v-19c30 -67 86 -106 152 -106
c88 0 158 66 158 184c0 89 -47 152 -84 165c-24 8 -45 3 -68 10c-16 5 -28 21 -28 40c0 23 17 43 48 43zM425 527c0 4 0 9 -1 13c-22 11 -43 17 -64 17c-38 0 -58 -25 -58 -48c0 -30 21 -49 55 -49c49 0 68 37 68 67z" />
    <glyph glyph-name="knYI" horiz-adv-x="1221" 
d="M999 513c71 0 167 -98 167 -271c0 -147 -80 -256 -190 -256c-74 0 -139 53 -169 144c-33 -96 -94 -144 -167 -144c-70 0 -128 47 -159 128c-37 -78 -108 -128 -201 -128c-139 0 -230 113 -230 264c0 152 92 269 231 269s229 -117 229 -269c0 -29 -3 -57 -10 -83
c34 -71 78 -96 134 -96c91 0 161 66 161 259c0 106 -20 179 -50 225c-4 -54 -34 -99 -89 -99s-94 49 -94 115c0 59 31 108 93 108c104 0 179 -137 179 -361c0 -49 -4 -93 -12 -132c37 -86 87 -115 148 -115c91 0 161 66 161 184c0 89 -47 152 -84 165c-24 8 -45 3 -65 9
c-19 6 -31 22 -31 41c0 23 17 43 48 43zM650 516c49 0 68 39 68 71c-21 18 -44 26 -67 26c-37 0 -56 -25 -56 -51c0 -27 21 -46 55 -46zM280 71c101 0 192 73 192 183c0 115 -80 187 -191 187s-191 -72 -191 -182c0 -115 89 -188 190 -188z" />
    <glyph glyph-name="knRI" horiz-adv-x="560" 
d="M491 323c12 -30 19 -63 19 -97c0 -140 -94 -240 -230 -240s-230 100 -230 240c0 78 35 152 94 194c-53 10 -94 44 -94 111c0 68 48 113 134 113c184 0 259 -178 307 -321zM213 595c-47 0 -85 -24 -85 -73c0 -31 17 -73 61 -73c6 0 11 0 17 2c23 7 48 10 74 10
c41 0 78 -8 110 -25c13 -7 25 -15 36 -24c-60 124 -135 183 -213 183zM280 71c109 0 185 74 185 177c0 101 -84 185 -185 185s-185 -85 -185 -186c0 -103 75 -176 185 -176z" />
    <glyph glyph-name="knLI" horiz-adv-x="717" 
d="M492 679c126 0 165 -192 165 -325c0 -217 -107 -368 -296 -368c-182 0 -301 119 -301 297c0 131 68 236 166 236c75 0 111 -62 111 -125c0 -69 -42 -121 -108 -121c-55 0 -98 35 -98 108c0 9 0 17 2 29c-22 -28 -33 -66 -33 -109c0 -129 99 -230 265 -230
c156 0 252 87 252 296c0 69 -11 142 -39 191c-3 -54 -33 -102 -89 -102s-95 49 -95 114c0 64 36 109 98 109zM482 516c49 0 68 37 68 67c0 3 0 6 -1 9c-16 13 -35 21 -59 21c-43 0 -63 -25 -63 -51c0 -27 21 -46 55 -46zM235 454c-29 0 -53 -7 -72 -18c-2 -10 -4 -21 -4 -28
c0 -43 31 -64 76 -64c44 0 72 21 72 57c0 39 -34 53 -72 53z" />
    <glyph glyph-name="knVI" horiz-adv-x="692" 
d="M363 623c130 0 269 -220 269 -427c0 -111 -38 -210 -130 -210c-69 0 -138 57 -161 140h-2c-23 -83 -98 -140 -165 -140c-75 0 -124 70 -124 161c0 85 43 140 102 140c49 0 73 -37 86 -79l-16 -15c-11 24 -36 34 -61 34c-42 0 -71 -26 -71 -72c0 -51 35 -84 85 -84
c76 0 146 74 160 150h9c14 -76 79 -150 151 -150c59 0 98 50 98 154c-2 131 -67 243 -140 297v-10c0 -58 -30 -112 -89 -112c-56 0 -95 49 -95 114c0 64 36 109 94 109zM425 527c0 4 0 9 -1 13c-22 11 -43 17 -64 17c-38 0 -58 -25 -58 -48c0 -30 21 -49 55 -49
c49 0 68 37 68 67z" />
    <glyph glyph-name="knSHI" horiz-adv-x="560" 
d="M351 462c101 -26 169 -108 169 -226c0 -146 -101 -250 -249 -250c-137 0 -215 80 -215 164c0 72 57 111 139 111c100 0 136 49 136 133c0 15 -1 31 -3 46c-15 2 -31 4 -48 4c-67 0 -107 -32 -107 -67c0 -17 8 -30 17 -30c4 0 5 4 5 7c0 22 14 39 34 39
c22 0 38 -18 38 -39c0 -23 -18 -46 -54 -46c-45 0 -71 34 -71 71c0 46 41 92 137 92c15 0 29 -1 43 -3c-16 64 -51 120 -93 155v-10c0 -58 -30 -112 -89 -112c-56 0 -95 49 -95 114c0 64 36 109 94 109c109 0 189 -140 212 -262zM201 628c0 5 0 9 -1 14
c-20 10 -40 16 -60 16c-42 0 -62 -25 -62 -51c0 -27 21 -46 55 -46c49 0 68 37 68 67zM271 71c120 0 199 67 199 186c0 88 -44 150 -114 175c1 -14 2 -27 2 -39c0 -96 -45 -162 -162 -162c-70 0 -93 -22 -93 -53c0 -52 63 -107 168 -107z" />
    <glyph glyph-name="knSSI" horiz-adv-x="721" 
d="M341 456c-55 0 -94 49 -94 115c0 63 36 108 95 108c84 0 145 -93 145 -187c0 -83 -70 -155 -193 -180l-30 53c121 14 191 71 191 132c0 25 -9 50 -24 71c-1 -59 -31 -112 -90 -112zM343 613c-43 0 -63 -25 -63 -51c0 -27 21 -46 55 -46c49 0 68 39 68 71v8
c-17 11 -37 18 -60 18zM697 -14c9 -11 14 -21 14 -34c0 -22 -15 -38 -37 -38c-16 0 -27 8 -37 21c-16 20 -30 54 -50 89c-20 -24 -47 -38 -81 -38c-69 0 -137 57 -160 140h-2c-23 -83 -98 -140 -165 -140c-75 0 -124 70 -124 162c0 84 43 139 102 139c49 0 73 -37 86 -79
l-16 -15c-13 23 -36 34 -62 34c-41 0 -70 -26 -70 -72c0 -51 35 -84 86 -84c75 0 145 74 159 150h9c14 -76 78 -150 152 -150c17 0 32 4 45 11l-125 160l21 18l132 -154c20 26 30 62 30 105c0 39 -10 66 -26 83c-16 15 -36 18 -50 31c-9 8 -13 18 -13 29c0 23 17 40 42 40
c62 0 77 -103 77 -185c0 -55 -7 -105 -23 -143c34 -35 68 -59 86 -80z" />
    <glyph glyph-name="knSI" horiz-adv-x="660" 
d="M317 456c-55 0 -94 49 -94 115c0 63 36 108 95 108c84 0 145 -93 145 -187c0 -83 -70 -155 -193 -180l-30 53c121 14 191 71 191 132c0 25 -9 50 -24 71c-1 -59 -31 -112 -90 -112zM319 613c-43 0 -63 -25 -63 -51c0 -27 21 -46 55 -46c49 0 68 39 68 71v8
c-17 11 -37 18 -60 18zM521 377c60 -58 89 -140 89 -227c0 -88 -33 -164 -112 -164c-111 0 -133 184 -280 184c-66 0 -118 -50 -125 -184l-29 8c0 150 60 253 155 253c133 0 150 -176 263 -176c54 0 84 43 84 117c0 61 -26 122 -68 172z" />
    <glyph glyph-name="knHI" horiz-adv-x="724" 
d="M503 340c95 0 166 -74 166 -178c0 -98 -71 -176 -166 -176c-67 0 -114 40 -141 104c-27 -64 -75 -104 -141 -104c-95 0 -166 78 -166 176c0 85 48 150 117 171c105 32 179 83 179 164c0 25 -9 50 -24 71c-1 -59 -31 -112 -90 -112c-55 0 -94 49 -94 115
c0 63 36 108 95 108c84 0 145 -93 145 -187c0 -70 -43 -124 -109 -159c41 -13 68 -42 88 -80c27 52 69 87 141 87zM231 516c49 0 68 39 68 71v8c-17 11 -37 18 -60 18c-43 0 -63 -25 -63 -51c0 -27 21 -46 55 -46zM221 71c67 0 120 42 120 116c0 72 -52 115 -120 115
c-62 0 -116 -46 -116 -115c0 -74 54 -116 116 -116zM497 71c67 0 122 42 122 116c0 69 -54 115 -122 115c-62 0 -114 -43 -114 -115c0 -74 52 -116 114 -116z" />
    <glyph glyph-name="knRRI" horiz-adv-x="878" 
d="M883 545c0 -97 -57 -154 -169 -172c12 -39 19 -83 19 -130c0 -161 -77 -257 -176 -257c-77 0 -147 57 -170 140h-2c-23 -83 -87 -140 -166 -140c-102 0 -179 96 -179 256c0 150 68 277 170 277c71 0 107 -62 107 -125c0 -18 -3 -35 -8 -50h155c-5 15 -8 32 -8 50
c0 63 36 125 107 125c51 0 94 -32 124 -84c110 9 164 49 164 115c0 25 -9 50 -24 71c-1 -59 -31 -112 -90 -112c-55 0 -94 49 -94 115c0 63 36 108 95 108c84 0 145 -93 145 -187zM731 569c49 0 68 39 68 71v8c-17 11 -37 18 -60 18c-43 0 -63 -25 -63 -51
c0 -27 21 -46 55 -46zM552 71c84 0 141 78 141 194c0 100 -42 189 -135 189c-38 0 -72 -15 -72 -54c0 -35 28 -56 75 -56h50v-71h-448v71h49c47 0 75 21 75 56c0 39 -34 54 -72 54c-93 0 -135 -89 -135 -188c0 -117 57 -195 141 -195c82 0 146 74 160 150h9
c13 -75 80 -150 162 -150z" />
    <glyph glyph-name="knLLI" horiz-adv-x="587" 
d="M577 459c0 -161 -119 -213 -214 -252c38 -20 64 -51 64 -104c0 -69 -44 -117 -116 -117c-66 0 -111 42 -111 106c0 34 13 59 35 80c-98 18 -205 52 -205 191c0 97 65 156 150 156c82 0 115 -52 115 -108c0 -48 -24 -101 -90 -101c-56 0 -92 40 -92 100c0 9 1 17 2 25
c-29 -16 -50 -42 -50 -79c0 -76 83 -93 170 -111h1c28 -6 57 -12 83 -20c16 7 34 14 52 22c76 32 174 89 174 204c0 34 -9 82 -37 118v-1c0 -58 -30 -112 -89 -112c-56 0 -95 49 -95 114c0 64 36 109 94 109c90 0 159 -95 159 -220zM412 516c49 0 68 37 68 67c0 4 0 8 -1 12
c-17 11 -38 18 -64 18c-38 0 -58 -25 -58 -48c0 -30 21 -49 55 -49zM194 454c-17 0 -33 -2 -49 -7c-1 -6 -2 -13 -2 -20c0 -33 20 -54 63 -54c39 0 59 17 59 39c0 19 -15 42 -71 42zM391 112c0 35 -50 44 -112 54c-19 -14 -30 -29 -30 -50c0 -31 29 -45 71 -45
c38 0 71 12 71 41z" />
    <glyph glyph-name="knLLLI" horiz-adv-x="878" 
d="M883 545c0 -97 -56 -154 -168 -172c12 -36 18 -77 18 -119c0 -172 -77 -268 -177 -268c-76 0 -146 57 -169 140h-2c-23 -83 -87 -140 -166 -140c-102 0 -179 96 -179 263c0 143 68 270 170 270c71 0 107 -62 107 -125c0 -69 -42 -121 -108 -121c-55 0 -98 35 -98 108v14
c-21 -34 -31 -80 -31 -129c0 -117 57 -195 141 -195c82 0 146 74 160 150h9c13 -75 80 -150 162 -150c84 0 141 78 141 194c0 49 -10 95 -31 130v-14c0 -73 -43 -108 -97 -108c-67 0 -109 52 -109 121c0 63 36 125 107 125c52 0 95 -33 125 -83c109 8 163 48 163 114
c0 25 -9 50 -24 71c-1 -59 -31 -112 -90 -112c-55 0 -94 49 -94 115c0 63 36 108 95 108c84 0 145 -93 145 -187zM731 569c49 0 68 39 68 71v8c-17 11 -37 18 -60 18c-43 0 -63 -25 -63 -51c0 -27 21 -46 55 -46zM215 454c-30 0 -54 -9 -74 -25c-1 -7 -2 -15 -2 -21
c0 -43 31 -64 76 -64c44 0 72 21 72 57c0 39 -34 53 -72 53zM559 344c44 0 75 21 75 67c0 5 0 11 -1 17c-20 17 -45 26 -76 26c-37 0 -71 -14 -71 -53c0 -36 28 -57 73 -57z" />
    <glyph glyph-name="knKU" horiz-adv-x="826" 
d="M600 513c70 0 166 -98 166 -271c0 -147 -80 -256 -189 -256c-69 0 -130 44 -163 123c-20 -70 -83 -123 -160 -123c-97 0 -170 78 -170 171c0 55 26 106 69 137h-113v66h194c8 12 13 26 13 43c0 11 -2 22 -6 31h-201v75h280c61 0 92 28 92 67c0 34 -22 59 -46 68l15 20
c43 -16 74 -57 74 -112c0 -72 -53 -118 -135 -118h-45c4 -11 6 -22 6 -33c0 -14 -3 -28 -9 -41h193v-66h-112c29 -22 50 -53 61 -88v1c37 -102 90 -136 156 -136c91 0 161 66 161 184c0 89 -47 152 -87 166c-11 4 -21 4 -32 5c-11 0 -22 1 -33 4c-16 5 -28 21 -28 40
c0 23 17 43 49 43zM254 71c71 0 120 46 120 111c0 70 -58 115 -120 115c-63 0 -122 -45 -122 -115c0 -65 50 -111 122 -111z" />
    <glyph glyph-name="knKHU" horiz-adv-x="1114" 
d="M888 513c70 0 166 -98 166 -271c0 -147 -80 -256 -189 -256c-72 0 -134 47 -166 131c-31 -80 -94 -131 -171 -131c-65 0 -115 40 -162 86c-41 -52 -99 -86 -172 -86c-94 0 -154 60 -154 133c0 68 52 112 128 112s131 -45 189 -87c26 37 40 85 40 141
c0 112 -61 170 -131 170c-49 0 -81 -29 -81 -66c0 -20 9 -38 22 -38c3 0 4 1 4 6c0 30 17 51 44 51c28 0 49 -23 49 -51c0 -29 -24 -57 -68 -57c-56 0 -90 50 -90 104c0 65 51 116 122 116c89 0 169 -75 169 -233c0 -59 -14 -120 -41 -170c39 -26 82 -46 134 -46
c86 0 157 66 157 181c0 92 -47 158 -83 168c-26 7 -46 4 -68 10c-18 5 -29 21 -29 40c0 23 16 43 48 43c70 0 167 -98 167 -271c0 -24 -2 -47 -6 -68c36 -77 84 -103 142 -103c91 0 161 66 161 184c0 89 -47 152 -87 166c-11 4 -21 4 -32 5c-11 0 -22 1 -33 4
c-16 5 -28 21 -28 40c0 23 17 43 49 43zM202 71c50 0 92 15 124 40c-47 45 -95 85 -156 85c-53 0 -76 -29 -76 -58c0 -34 31 -67 108 -67z" />
    <glyph glyph-name="knGU" horiz-adv-x="931" 
d="M705 513c70 0 166 -98 166 -271c0 -147 -80 -256 -189 -256c-64 0 -121 38 -155 106c1 -14 2 -28 2 -41v-51h-78v78c0 169 -54 360 -159 360s-159 -191 -159 -360v-78h-78v51c0 125 54 309 145 383h-140v75h328c61 0 92 27 92 67c0 34 -22 59 -46 68l15 20
c43 -16 74 -57 74 -112c0 -72 -54 -118 -135 -118h-4c45 -37 81 -101 106 -171c44 -118 93 -192 185 -192c91 0 161 66 161 184c0 89 -47 152 -87 166c-11 4 -21 4 -32 5c-11 0 -22 1 -33 4c-16 5 -28 21 -28 40c0 23 17 43 49 43z" />
    <glyph glyph-name="knGHU" horiz-adv-x="1088" 
d="M631 552c0 -72 -54 -118 -135 -118h-445v75h445c61 0 92 27 92 67c0 34 -22 59 -46 68l15 20c43 -16 74 -57 74 -112zM862 513c70 0 166 -98 166 -271c0 -147 -80 -256 -199 -256c-102 0 -162 77 -199 187c0 -90 -37 -187 -128 -187c-69 0 -138 57 -161 140h-2
c-23 -83 -98 -140 -166 -140c-74 0 -123 70 -123 161c0 85 43 140 102 140c49 0 73 -37 86 -79l-16 -15c-11 24 -36 34 -62 34c-41 0 -70 -26 -70 -72c0 -51 35 -84 86 -84c75 0 145 74 159 150h9c14 -76 79 -150 151 -150c69 0 99 70 99 131c0 68 -17 128 -37 170l23 18
c6 -9 11 -19 15 -30c37 -67 66 -85 97 -85c37 0 60 26 60 61c0 31 -18 63 -61 93l19 20c62 -38 91 -87 91 -139c0 -62 -40 -109 -100 -109c-23 0 -45 7 -67 33c45 -110 115 -163 198 -163c91 0 161 66 161 184c0 89 -47 152 -87 166c-11 4 -21 4 -32 5c-11 0 -22 1 -33 4
c-16 5 -28 21 -28 40c0 23 17 43 49 43zM279 331c0 32 25 59 59 59c33 0 60 -27 60 -59c0 -33 -27 -60 -60 -60c-34 0 -59 27 -59 60zM331 16h16c14 -120 43 -133 43 -177c0 -40 -25 -59 -50 -59c-28 0 -53 23 -53 59c0 44 31 57 44 177z" />
    <glyph glyph-name="knNGU" horiz-adv-x="1051" 
d="M824 513c71 0 167 -98 167 -271c0 -147 -80 -256 -193 -256c-62 0 -116 42 -148 95c-16 -58 -68 -95 -123 -95c-68 0 -136 57 -159 140h-2c-23 -83 -91 -140 -160 -140c-66 0 -127 52 -127 136c0 71 43 116 82 156c32 33 63 66 63 107c0 42 -34 67 -76 67
c-47 0 -70 -31 -70 -67c0 -13 3 -25 10 -40l-20 -15c-21 22 -29 50 -29 76c0 58 39 113 114 113c76 0 124 -53 124 -111c56 69 135 128 222 128c91 0 130 -64 130 -128c0 -48 -21 -76 -44 -100l-19 16c12 13 20 31 20 54c0 52 -41 89 -113 89c-79 0 -150 -44 -238 -160v1
c-15 -18 -31 -35 -47 -51c-34 -34 -58 -70 -58 -105c0 -38 27 -81 81 -81c72 0 137 74 151 150h9c13 -75 79 -150 153 -150c57 0 82 45 82 85c0 27 -12 56 -36 80l21 15c20 -17 37 -40 49 -68l1 1c31 -60 81 -113 157 -113c88 0 158 66 158 184c0 89 -47 152 -84 165
c-24 8 -45 3 -68 10c-16 5 -28 21 -28 40c0 23 17 43 48 43zM345 331c0 30 23 54 53 54s53 -24 53 -54c0 -29 -23 -53 -53 -53s-53 24 -53 53z" />
    <glyph glyph-name="knCU" horiz-adv-x="1056" 
d="M830 513c70 0 166 -98 166 -271c0 -147 -80 -256 -189 -256c-65 0 -123 39 -157 110c-14 -72 -67 -110 -123 -110c-68 0 -136 57 -159 140h-2c-23 -83 -91 -140 -160 -140c-66 0 -127 52 -127 136c0 71 43 116 82 156c32 33 63 66 63 107c0 42 -34 67 -76 67
c-47 0 -70 -31 -70 -67c0 -13 3 -25 10 -40l-20 -15c-21 22 -29 50 -29 76c0 58 39 113 114 113c76 0 124 -54 124 -112s-48 -109 -89 -150c-34 -34 -58 -70 -58 -105c0 -38 27 -81 81 -81c72 0 137 74 151 150h9c13 -75 78 -150 152 -150c58 0 83 45 83 92
c0 48 -28 101 -71 131h-146v71h150c7 9 10 19 10 30c0 14 -6 28 -18 39h-142v75h152c61 0 92 27 92 67c0 34 -22 59 -46 68l15 20c43 -16 74 -57 74 -112c0 -63 -41 -106 -106 -116c8 -13 13 -27 13 -42c0 -10 -2 -19 -6 -29h88v-71h-74c25 -22 43 -53 53 -88v1
c37 -102 90 -136 156 -136c91 0 161 66 161 184c0 89 -47 152 -87 166c-11 4 -21 4 -32 5c-11 0 -22 1 -33 4c-16 5 -28 21 -28 40c0 23 17 43 49 43z" />
    <glyph glyph-name="knCHU" horiz-adv-x="1117" 
d="M890 513c71 0 167 -98 167 -271c0 -147 -80 -256 -193 -256c-71 0 -128 56 -156 119c-25 -75 -76 -119 -146 -119c-80 0 -148 57 -171 140h-2c-23 -83 -91 -140 -170 -140c-102 0 -179 96 -179 266c0 140 68 267 170 267c71 0 107 -62 107 -125c0 -69 -42 -121 -108 -121
c-55 0 -98 35 -98 111v10c-21 -34 -31 -81 -31 -131c0 -114 57 -192 142 -192c81 0 149 74 163 150h9c13 -75 79 -150 161 -150c89 0 131 87 131 166c0 135 -79 197 -208 197h-48v75h161c61 0 92 27 92 67c0 34 -22 59 -46 68l15 20c43 -16 74 -57 74 -112
c0 -53 -37 -99 -95 -113c55 -47 94 -119 94 -215c0 -24 -2 -46 -5 -66c29 -50 73 -87 144 -87c88 0 158 66 158 184c0 89 -47 152 -84 165c-24 8 -45 3 -68 10c-16 5 -28 21 -28 40c0 23 17 43 48 43zM215 454c-30 0 -54 -9 -74 -25c-1 -7 -2 -15 -2 -21
c0 -43 31 -64 76 -64c44 0 72 21 72 57c0 39 -34 53 -72 53zM383 16h16c14 -120 43 -133 43 -177c0 -40 -25 -59 -50 -59c-28 0 -53 23 -53 59c0 44 31 57 44 177z" />
    <glyph glyph-name="knJU" horiz-adv-x="1051" 
d="M824 513c71 0 167 -98 167 -271c0 -147 -80 -256 -193 -256c-64 0 -117 45 -147 101c-14 -62 -67 -101 -124 -101c-68 0 -136 57 -159 140h-2c-23 -83 -91 -140 -160 -140c-66 0 -127 52 -127 136c0 71 43 116 82 156c32 33 63 66 63 107c0 42 -34 67 -76 67
c-47 0 -70 -31 -70 -67c0 -13 3 -25 10 -40l-20 -15c-21 22 -29 50 -29 76c0 58 39 113 114 113c43 0 77 -17 99 -43c77 -84 146 -116 211 -116c54 0 94 27 94 83c0 26 -11 51 -36 76l19 17c37 -33 59 -78 59 -122c0 -75 -53 -127 -128 -127c-63 0 -128 41 -194 114
c-3 -56 -49 -104 -89 -144c-34 -34 -58 -70 -58 -105c0 -38 27 -81 81 -81c72 0 137 74 151 150h9c13 -75 79 -150 153 -150c57 0 82 45 82 85c0 27 -12 56 -36 80l21 15c20 -17 38 -40 49 -68l1 1c28 -63 74 -113 157 -113c88 0 158 66 158 184c0 89 -47 152 -84 165
c-24 8 -45 3 -68 10c-16 5 -28 21 -28 40c0 23 17 43 48 43z" />
    <glyph glyph-name="knJHU" horiz-adv-x="1562" 
d="M1336 513c70 0 166 -98 166 -271c0 -147 -80 -256 -189 -256c-73 0 -136 49 -167 136c-31 -83 -94 -136 -173 -136c-70 0 -133 50 -163 136c-31 -82 -94 -136 -173 -136c-65 0 -123 42 -156 117c-37 -72 -110 -117 -201 -117c-136 0 -230 100 -230 240
c0 87 44 169 116 208h-116v75h325c61 0 92 27 92 67c0 34 -22 59 -46 68l15 20c43 -16 74 -57 74 -112c0 -67 -46 -111 -118 -117c73 -39 118 -121 118 -209c0 -25 -3 -49 -9 -71c35 -62 80 -84 136 -84c88 0 158 66 158 184c0 89 -48 150 -84 165c-24 10 -45 3 -68 10
c-16 5 -28 21 -28 40c0 23 17 43 49 43c70 0 166 -98 166 -271c0 -22 -2 -42 -5 -62c36 -81 86 -109 148 -109c88 0 158 66 158 184c0 89 -47 152 -84 165c-24 8 -45 3 -68 10c-16 5 -28 21 -28 40c0 23 17 43 48 43c71 0 167 -98 167 -271c0 -22 -2 -42 -5 -62
c36 -81 85 -109 145 -109c91 0 161 66 161 184c0 89 -47 152 -87 166c-11 4 -21 4 -32 5c-11 0 -22 1 -33 4c-16 5 -28 21 -28 40c0 23 17 43 49 43zM280 71c109 0 185 74 185 177c0 101 -84 185 -185 185s-185 -85 -185 -186c0 -103 75 -176 185 -176zM797 16h16
c14 -120 43 -133 43 -177c0 -40 -25 -59 -51 -59c-27 0 -52 23 -52 59c0 44 31 57 44 177z" />
    <glyph glyph-name="knNYU" horiz-adv-x="1315" 
d="M1088 513c71 0 167 -98 167 -271c0 -147 -76 -256 -206 -256c-119 0 -190 94 -190 191c0 64 13 126 13 180c0 45 -22 85 -87 85c-90 0 -140 -81 -155 -155c-6 -63 -30 -124 -66 -175c48 -55 74 -120 74 -165c0 -31 -12 -44 -28 -44c-21 0 -31 21 -31 52
c0 38 -14 84 -42 124c-52 -56 -122 -93 -196 -93c-91 0 -154 52 -154 119c0 63 57 111 151 111c80 0 145 -30 194 -72c39 39 63 93 63 156c0 90 -52 141 -116 141c-81 0 -137 -84 -149 -158h-10c-14 75 -64 159 -151 159c-61 0 -92 -40 -92 -85c0 -15 5 -29 13 -40l-31 -21
c-21 27 -29 60 -29 92c0 79 49 131 126 131c79 0 145 -58 168 -142h2c23 84 88 142 164 142c72 0 120 -51 136 -139c23 82 89 139 162 139c77 0 133 -63 133 -157c0 -63 -15 -111 -15 -184s52 -107 133 -107c112 0 181 66 181 184c0 89 -47 152 -84 165c-24 8 -45 3 -68 10
c-16 5 -28 21 -28 40c0 23 17 43 48 43zM240 124c0 -35 51 -53 111 -53c57 0 110 17 152 48c-39 38 -93 65 -160 65c-65 0 -103 -29 -103 -60z" />
    <glyph glyph-name="knTTU" horiz-adv-x="1136" 
d="M910 513c70 0 166 -98 166 -271c0 -147 -80 -256 -189 -256c-75 0 -140 52 -170 143l1 10c-19 -94 -77 -153 -166 -153c-70 0 -138 57 -161 140h-2c-23 -83 -91 -140 -161 -140c-111 0 -188 96 -188 255c0 107 45 197 117 227c-38 22 -67 56 -67 98c0 54 46 100 130 105
l9 -22c-52 -12 -75 -43 -75 -88c0 -32 14 -57 46 -82h10c71 0 107 -62 107 -128s-42 -118 -105 -118c-58 0 -101 35 -101 108c0 8 0 16 1 27c-22 -29 -32 -70 -32 -116c0 -103 57 -181 148 -181c75 0 143 74 157 150h9c13 -75 79 -150 152 -150c88 0 140 67 140 156
c0 75 -47 151 -145 159l-16 39c66 39 97 84 97 132c0 45 -29 79 -82 94l12 20c86 -8 131 -58 131 -117c0 -58 -46 -101 -103 -134c93 -24 145 -100 145 -206v-9c37 -101 90 -134 155 -134c91 0 161 66 161 184c0 89 -47 152 -87 166c-11 4 -21 4 -32 5c-11 0 -22 1 -33 4
c-16 5 -28 21 -28 40c0 23 17 43 49 43zM287 361c0 39 -34 53 -72 53c-29 0 -53 -7 -73 -19c-1 -9 -3 -20 -3 -27c0 -43 31 -64 73 -64c47 0 75 21 75 57z" />
    <glyph glyph-name="knTTHU" horiz-adv-x="907" 
d="M681 513c70 0 166 -98 166 -271c0 -147 -80 -256 -189 -256c-73 0 -137 49 -168 136c-34 -83 -111 -136 -210 -136c-136 0 -230 100 -230 240c0 87 44 169 116 208h-116v75h325c61 0 92 27 92 67c0 34 -22 59 -46 68l15 20c43 -16 74 -57 74 -112
c0 -67 -46 -111 -118 -117c73 -39 118 -121 118 -209c0 -16 -1 -32 -4 -47c36 -80 85 -108 145 -108c91 0 161 66 161 184c0 89 -47 152 -87 166c-11 4 -21 4 -32 5c-11 0 -22 1 -33 4c-16 5 -28 21 -28 40c0 23 17 43 49 43zM280 71c109 0 185 74 185 177
c0 101 -84 185 -185 185s-185 -85 -185 -186c0 -103 75 -176 185 -176zM280 321c34 0 59 -26 59 -60s-25 -58 -59 -58s-60 24 -60 58s26 60 60 60z" />
    <glyph glyph-name="knDDU" horiz-adv-x="1047" 
d="M821 513c70 0 166 -98 166 -271c0 -147 -80 -256 -189 -256c-65 0 -122 39 -156 109c-14 -74 -69 -109 -129 -109c-76 0 -144 57 -167 140h-2c-23 -83 -91 -140 -162 -140c-65 0 -127 47 -127 164c0 132 75 234 170 284h-170v75h444c61 0 92 27 92 67c0 34 -22 59 -46 68
l15 20c43 -16 74 -57 74 -112c0 -72 -54 -118 -135 -118h-12c59 -30 105 -79 109 -142c18 -25 31 -56 39 -87v2c37 -102 90 -136 156 -136c91 0 161 66 161 184c0 89 -47 152 -87 166c-11 4 -21 4 -32 5c-11 0 -22 1 -33 4c-16 5 -28 21 -28 40c0 23 17 43 49 43zM505 71
c59 0 94 42 94 109c0 21 -4 43 -10 62c-16 -39 -53 -57 -91 -57c-58 0 -100 44 -100 91c0 39 29 79 88 79c25 0 47 -7 66 -20c-29 52 -109 106 -198 106c-141 0 -250 -141 -250 -260c0 -67 34 -110 87 -110c70 0 136 74 150 150h9c14 -76 79 -150 155 -150zM563 288
c-18 23 -44 38 -74 38c-34 0 -52 -19 -52 -42c0 -22 17 -41 58 -41c45 0 65 23 68 45z" />
    <glyph glyph-name="knDDHU" horiz-adv-x="1047" 
d="M821 513c70 0 166 -98 166 -271c0 -147 -80 -256 -189 -256c-65 0 -122 39 -156 109c-14 -74 -69 -109 -129 -109c-76 0 -144 57 -167 140h-2c-23 -83 -91 -140 -162 -140c-65 0 -127 47 -127 164c0 132 75 234 170 284h-170v75h444c61 0 92 27 92 67c0 34 -22 59 -46 68
l15 20c43 -16 74 -57 74 -112c0 -72 -54 -118 -135 -118h-12c59 -30 105 -79 109 -142c18 -25 31 -56 39 -87v2c37 -102 90 -136 156 -136c91 0 161 66 161 184c0 89 -47 152 -87 166c-11 4 -21 4 -32 5c-11 0 -22 1 -33 4c-16 5 -28 21 -28 40c0 23 17 43 49 43zM505 71
c59 0 94 42 94 109c0 21 -4 43 -10 62c-16 -39 -53 -57 -91 -57c-58 0 -100 44 -100 91c0 39 29 79 88 79c25 0 47 -7 66 -20c-29 52 -109 106 -198 106c-140 0 -250 -141 -250 -260c0 -67 34 -110 87 -110c70 0 136 74 150 150h9c14 -76 79 -150 155 -150zM563 288
c-18 23 -44 38 -74 38c-34 0 -52 -19 -52 -42c0 -22 17 -41 58 -41c45 0 65 23 68 45zM336 16h16c14 -120 43 -133 43 -177c0 -40 -25 -59 -51 -59c-27 0 -52 23 -52 59c0 44 31 57 44 177z" />
    <glyph glyph-name="knNNU" horiz-adv-x="1136" 
d="M910 513c70 0 166 -98 166 -271c0 -147 -80 -256 -189 -256c-75 0 -140 52 -170 143l6 69c-12 -120 -81 -212 -176 -212c-81 0 -143 65 -143 162c0 89 43 139 101 139c50 0 74 -37 87 -79l-16 -15c-11 24 -32 34 -59 34c-44 0 -73 -26 -73 -71c0 -52 39 -85 98 -85
c76 0 148 57 148 174c0 112 -65 196 -164 196c-98 0 -163 -76 -176 -158h-9c-14 83 -73 158 -155 158c-55 0 -90 -34 -90 -79c0 -53 51 -96 132 -114v-24c-78 -11 -131 -52 -131 -101c0 -33 23 -57 68 -57c43 0 76 22 97 85l23 -12c-3 -61 -41 -153 -128 -153
c-64 0 -107 50 -107 114c0 63 42 114 102 136v4c-46 11 -102 74 -102 149s58 130 133 130c76 0 138 -58 161 -142h3c23 84 91 142 175 142c124 0 203 -127 203 -284c0 -10 0 -21 -1 -31v3c37 -102 90 -136 156 -136c91 0 161 66 161 184c0 89 -47 152 -87 166
c-11 4 -21 4 -32 5c-11 0 -22 1 -33 4c-16 5 -28 21 -28 40c0 23 17 43 49 43z" />
    <glyph glyph-name="knTU" horiz-adv-x="941" 
d="M715 513c70 0 166 -98 166 -271c0 -147 -80 -256 -189 -256c-72 0 -135 48 -166 133c-32 -79 -115 -133 -230 -133c-151 0 -236 90 -236 183c0 35 12 71 24 89l24 -4c-7 -14 -11 -32 -11 -49c0 -76 76 -134 196 -134c129 0 200 68 200 144c0 36 -16 67 -42 89
c-9 -69 -72 -115 -146 -115c-71 0 -127 41 -127 97s57 94 144 94c30 0 59 -5 85 -14c-13 32 -44 57 -77 68h-275v75h339c61 0 92 27 92 67c0 34 -22 59 -46 68l15 20c43 -16 74 -57 74 -112c0 -72 -54 -118 -135 -118h-3c27 -18 51 -49 58 -87c54 -32 90 -86 90 -156v-9
c36 -83 86 -111 146 -111c91 0 161 66 161 184c0 89 -47 152 -87 166c-11 4 -21 4 -32 5c-11 0 -22 1 -33 4c-16 5 -28 21 -28 40c0 23 17 43 49 43zM308 247c57 0 102 30 106 80c-25 11 -55 17 -87 17c-56 0 -94 -19 -94 -50c0 -29 30 -47 75 -47z" />
    <glyph glyph-name="knTHU" horiz-adv-x="1037" 
d="M811 513c70 0 166 -98 166 -271c0 -147 -80 -256 -189 -256c-66 0 -125 41 -158 113c-16 -80 -69 -113 -122 -113c-71 0 -139 57 -162 140h-2c-23 -83 -91 -140 -162 -140c-65 0 -127 47 -127 165c0 131 75 233 166 283h-166v75h444c61 0 92 27 92 67c0 34 -22 59 -46 68
l15 20c43 -16 74 -57 74 -112c0 -72 -54 -118 -135 -118h-30c84 -45 153 -134 164 -248c37 -86 87 -115 148 -115c91 0 161 66 161 184c0 89 -47 152 -87 166c-11 4 -21 4 -32 5c-11 0 -22 1 -33 4c-16 5 -28 21 -28 40c0 23 17 43 49 43zM499 71c53 0 87 43 87 109
c0 120 -109 261 -241 261s-241 -141 -241 -260c0 -67 34 -110 87 -110c70 0 136 74 150 150h9c14 -76 79 -150 149 -150zM346 375c33 0 59 -27 59 -60s-26 -59 -59 -59s-59 26 -59 59s26 60 59 60zM336 16h16c14 -120 43 -133 43 -177c0 -40 -25 -59 -51 -59
c-27 0 -52 23 -52 59c0 44 31 57 44 177z" />
    <glyph glyph-name="knDU" horiz-adv-x="1038" 
d="M812 513c70 0 166 -98 166 -271c0 -147 -80 -256 -189 -256c-67 0 -125 41 -159 114c-16 -81 -68 -114 -122 -114c-71 0 -139 57 -162 140h-2c-23 -83 -91 -140 -162 -140c-65 0 -127 47 -127 165c0 131 75 233 166 283h-166v75h444c61 0 92 27 92 67c0 34 -22 59 -46 68
l15 20c43 -16 74 -57 74 -112c0 -72 -54 -118 -135 -118h-30c83 -45 152 -132 164 -245c37 -88 87 -118 149 -118c91 0 161 66 161 184c0 89 -47 152 -87 166c-11 4 -21 4 -32 5c-11 0 -22 1 -33 4c-16 5 -28 21 -28 40c0 23 17 43 49 43zM499 71c53 0 87 43 87 109
c0 120 -109 261 -241 261s-241 -141 -241 -260c0 -67 34 -110 87 -110c70 0 136 74 150 150h9c14 -76 79 -150 149 -150z" />
    <glyph glyph-name="knDHU" horiz-adv-x="1037" 
d="M811 513c70 0 166 -98 166 -271c0 -147 -80 -256 -189 -256c-66 0 -125 41 -158 113c-16 -80 -69 -113 -122 -113c-71 0 -139 57 -162 140h-2c-23 -83 -91 -140 -162 -140c-65 0 -127 47 -127 165c0 131 75 233 166 283h-166v75h444c61 0 92 27 92 67c0 34 -22 59 -46 68
l15 20c43 -16 74 -57 74 -112c0 -72 -54 -118 -135 -118h-30c84 -45 153 -134 164 -248c37 -86 87 -115 148 -115c91 0 161 66 161 184c0 89 -47 152 -87 166c-11 4 -21 4 -32 5c-11 0 -22 1 -33 4c-16 5 -28 21 -28 40c0 23 17 43 49 43zM499 71c53 0 87 43 87 109
c0 120 -109 261 -241 261s-241 -141 -241 -260c0 -67 34 -110 87 -110c70 0 136 74 150 150h9c14 -76 79 -150 149 -150zM336 16h16c14 -120 43 -133 43 -177c0 -40 -25 -59 -51 -59c-27 0 -52 23 -52 59c0 44 31 57 44 177z" />
    <glyph glyph-name="knNU" horiz-adv-x="961" 
d="M735 513c70 0 166 -98 166 -271c0 -147 -80 -256 -189 -256c-69 0 -130 44 -162 123c-21 -72 -75 -123 -144 -123c-72 0 -90 56 -109 112c-19 57 -38 114 -113 114c-66 0 -99 -41 -99 -90s32 -95 77 -110c31 -11 47 -32 47 -52c0 -17 -11 -26 -28 -26
c-71 0 -131 112 -131 197c0 93 59 163 135 163c70 0 93 -57 117 -114c23 -55 45 -109 109 -109c57 0 100 45 100 123c0 117 -101 204 -247 238l-14 2h-200v75h365c61 0 92 28 92 68c0 33 -22 58 -46 67l15 20c43 -16 74 -57 74 -112c0 -72 -53 -118 -135 -118h-57
c127 -40 198 -138 201 -252c36 -83 86 -111 146 -111c91 0 161 66 161 184c0 89 -47 152 -87 166c-11 4 -21 4 -32 5c-11 0 -22 1 -33 4c-16 5 -28 21 -28 40c0 23 17 43 49 43z" />
    <glyph glyph-name="knPU" horiz-adv-x="999" 
d="M628 552c0 -72 -54 -118 -135 -118h-443v75h443c61 0 92 27 92 67c0 34 -22 59 -46 68l15 20c43 -16 74 -57 74 -112zM773 513c70 0 166 -98 166 -295c0 -213 -116 -402 -307 -402c-140 0 -254 103 -291 310h-2c-23 -83 -98 -140 -165 -140c-75 0 -124 70 -124 162
c0 84 43 139 102 139c49 0 73 -37 86 -79l-16 -15c-13 23 -36 34 -62 34c-41 0 -70 -26 -70 -72c0 -51 35 -84 86 -84c75 0 145 74 159 150h9c14 -76 78 -150 152 -150c67 0 103 60 103 140c0 39 -10 66 -26 83c-16 15 -36 18 -50 31c-9 8 -13 18 -13 29c0 23 17 40 42 40
c62 0 77 -103 77 -185c0 -125 -37 -223 -128 -223c-33 0 -66 13 -94 36c37 -70 115 -119 227 -119c186 0 270 134 270 309c0 132 -47 195 -84 208c-24 8 -45 3 -68 10c-16 5 -28 21 -28 40c0 23 17 43 49 43zM283 331c0 32 25 59 59 59c33 0 60 -27 60 -59
c0 -33 -27 -60 -60 -60c-34 0 -59 27 -59 60z" />
    <glyph glyph-name="knPHU" horiz-adv-x="999" 
d="M628 552c0 -72 -54 -118 -135 -118h-443v75h443c61 0 92 27 92 67c0 34 -22 59 -46 68l15 20c43 -16 74 -57 74 -112zM773 513c70 0 166 -98 166 -295c0 -213 -116 -402 -307 -402c-140 0 -254 103 -291 310h-2c-23 -83 -98 -140 -165 -140c-75 0 -124 70 -124 162
c0 84 43 139 102 139c49 0 73 -37 86 -79l-16 -15c-13 23 -36 34 -62 34c-41 0 -70 -26 -70 -72c0 -51 35 -84 86 -84c75 0 145 74 159 150h9c14 -76 78 -150 152 -150c67 0 103 60 103 140c0 39 -10 66 -26 83c-16 15 -36 18 -50 31c-9 8 -13 18 -13 29c0 23 17 40 42 40
c62 0 77 -103 77 -185c0 -125 -37 -223 -128 -223c-33 0 -66 13 -94 36c37 -70 115 -119 227 -119c186 0 270 134 270 309c0 132 -47 195 -84 208c-24 8 -45 3 -68 10c-16 5 -28 21 -28 40c0 23 17 43 49 43zM283 331c0 32 25 59 59 59c33 0 60 -27 60 -59
c0 -33 -27 -60 -60 -60c-34 0 -59 27 -59 60zM331 16h16c14 -120 43 -133 43 -177c0 -40 -25 -59 -51 -59c-27 0 -52 23 -52 59c0 44 31 57 44 177z" />
    <glyph glyph-name="knBU" horiz-adv-x="1087" 
d="M861 513c70 0 166 -98 166 -271c0 -147 -80 -256 -189 -256c-72 0 -135 48 -166 132c-20 -76 -66 -132 -146 -132c-67 0 -135 57 -158 140h-2c-23 -83 -91 -140 -160 -140c-66 0 -127 52 -127 136c0 71 43 116 82 156c32 33 63 66 63 107c0 42 -34 67 -76 67
c-47 0 -70 -31 -70 -67c0 -13 3 -25 10 -40l-20 -15c-21 22 -29 50 -29 76c0 58 39 113 114 113c76 0 124 -54 124 -112s-48 -109 -89 -150c-34 -34 -58 -70 -58 -105c0 -38 27 -81 81 -81c72 0 137 74 151 150h9c13 -75 79 -150 153 -150c72 0 125 58 125 164
c0 89 -46 172 -83 185c-24 8 -45 3 -68 10c-16 5 -28 21 -28 40c0 23 17 43 48 43c71 0 166 -118 166 -291c0 -12 0 -23 -1 -35c36 -86 86 -116 148 -116c91 0 161 66 161 184c0 89 -47 152 -87 166c-11 4 -21 4 -32 5c-11 0 -22 1 -33 4c-16 5 -28 21 -28 40
c0 23 17 43 49 43z" />
    <glyph glyph-name="knBHU" horiz-adv-x="1094" 
d="M868 513c70 0 166 -98 166 -271c0 -147 -80 -256 -189 -256c-73 0 -136 49 -167 134c-18 -75 -68 -134 -143 -134c-76 0 -144 57 -167 140h-2c-23 -83 -91 -140 -160 -140c-66 0 -127 52 -127 136c0 71 43 116 82 156c32 33 63 66 63 107c0 42 -34 67 -76 67
c-47 0 -70 -31 -70 -67c0 -13 3 -25 10 -40l-20 -15c-21 22 -29 50 -29 76c0 58 39 113 114 113c76 0 124 -54 124 -112s-48 -109 -89 -150c-34 -34 -58 -70 -58 -105c0 -38 27 -81 81 -81c72 0 137 74 151 150h9c13 -75 79 -150 161 -150c67 0 116 50 116 124
c0 106 -99 229 -251 239h-37v75h191c61 0 92 27 92 67c0 34 -22 59 -46 68l15 20c43 -16 74 -57 74 -112c0 -72 -54 -118 -135 -118h-9c80 -45 141 -128 144 -237c37 -94 88 -126 152 -126c91 0 161 66 161 184c0 89 -47 152 -87 166c-11 4 -21 4 -32 5c-11 0 -22 1 -33 4
c-16 5 -28 21 -28 40c0 23 17 43 49 43zM360 16h16c14 -120 43 -133 43 -177c0 -40 -25 -59 -51 -59c-27 0 -52 23 -52 59c0 44 31 57 44 177z" />
    <glyph glyph-name="knMU" horiz-adv-x="1384" 
d="M1158 513c70 0 166 -98 166 -271c0 -147 -80 -256 -189 -256c-75 0 -140 52 -170 143l3 29c-25 -103 -94 -172 -184 -172c-65 0 -124 47 -162 116c-16 -64 -54 -116 -120 -116c-69 0 -138 57 -161 140h-2c-23 -83 -98 -140 -165 -140c-75 0 -124 70 -124 161
c0 85 43 140 102 140c49 0 73 -37 86 -79l-16 -15c-11 24 -36 34 -61 34c-42 0 -71 -26 -71 -72c0 -51 35 -84 85 -84c76 0 146 74 160 150h9c14 -76 79 -150 151 -150c59 0 98 50 98 124c0 116 -99 229 -251 239h-292v75h443c61 0 92 27 92 67c0 34 -22 59 -46 68l15 20
c43 -16 74 -57 74 -112c0 -72 -54 -118 -135 -118h-2c80 -48 140 -138 140 -256v-2c37 -67 91 -105 155 -105c86 0 156 66 156 184c0 89 -47 151 -84 165c-21 8 -45 3 -68 10c-16 5 -28 21 -28 40c0 23 17 43 48 43c71 0 167 -98 167 -271c0 -14 -1 -29 -2 -42
c37 -97 89 -129 153 -129c91 0 161 66 161 184c0 89 -47 152 -87 166c-11 4 -21 4 -32 5c-11 0 -22 1 -33 4c-16 5 -28 21 -28 40c0 23 17 43 49 43z" />
    <glyph glyph-name="knYU" horiz-adv-x="1568" 
d="M1342 513c70 0 166 -98 166 -271c0 -147 -80 -256 -189 -256c-75 0 -140 52 -170 143v3c-29 -88 -93 -146 -173 -146c-72 0 -135 50 -166 136c-31 -82 -93 -136 -170 -136c-70 0 -128 47 -159 128c-37 -78 -108 -128 -201 -128c-139 0 -230 113 -230 264
c0 152 92 269 231 269s229 -117 229 -269c0 -29 -3 -57 -10 -83c34 -71 78 -96 134 -96c91 0 161 66 161 184c0 89 -65 156 -112 179h-148v75h192c61 0 92 27 92 67c0 34 -22 59 -46 68l15 20c43 -16 74 -57 74 -112c0 -57 -34 -98 -88 -112c32 -45 56 -112 56 -198
c0 -22 -2 -42 -5 -62c36 -81 85 -109 145 -109c91 0 161 66 161 184c0 89 -47 152 -84 165c-24 8 -45 3 -65 9c-19 6 -31 22 -31 41c0 23 17 43 48 43c71 0 167 -98 167 -271c0 -18 -1 -35 -3 -52c36 -89 87 -119 149 -119c91 0 161 66 161 184c0 89 -47 152 -87 166
c-11 4 -21 4 -32 5c-11 0 -22 1 -33 4c-16 5 -28 21 -28 40c0 23 17 43 49 43zM280 71c101 0 192 73 192 183c0 115 -80 187 -191 187s-191 -72 -191 -182c0 -115 89 -188 190 -188z" />
    <glyph glyph-name="knRU" horiz-adv-x="907" 
d="M681 513c70 0 166 -98 166 -271c0 -147 -80 -256 -189 -256c-73 0 -137 49 -168 136c-34 -83 -111 -136 -210 -136c-136 0 -230 100 -230 240c0 87 44 169 116 208h-116v75h325c61 0 92 27 92 67c0 34 -22 59 -46 68l15 20c43 -16 74 -57 74 -112
c0 -67 -46 -111 -118 -117c73 -39 118 -121 118 -209c0 -16 -1 -32 -4 -47c36 -80 85 -108 145 -108c91 0 161 66 161 184c0 89 -47 152 -87 166c-11 4 -21 4 -32 5c-11 0 -22 1 -33 4c-16 5 -28 21 -28 40c0 23 17 43 49 43zM280 71c109 0 185 74 185 177
c0 101 -84 185 -185 185s-185 -85 -185 -186c0 -103 75 -176 185 -176z" />
    <glyph glyph-name="knLU" horiz-adv-x="1021" 
d="M795 513c70 0 166 -98 166 -271c0 -147 -80 -256 -189 -256c-69 0 -130 44 -162 122c-49 -73 -134 -121 -253 -122c-177 0 -297 118 -297 297c0 131 68 236 166 236c75 0 111 -62 111 -125c0 -69 -42 -121 -108 -121c-55 0 -98 35 -98 108c0 9 0 17 2 29
c-22 -28 -33 -66 -33 -109c0 -129 99 -230 268 -230c152 0 254 85 254 216c0 78 -36 121 -73 134c-24 8 -45 3 -68 10c-16 5 -28 21 -28 39c0 24 20 44 51 44c68 0 153 -98 153 -239c0 -44 -8 -85 -23 -122c34 -60 78 -82 131 -82c91 0 161 66 161 184c0 89 -47 152 -87 166
c-11 4 -21 4 -32 5c-11 0 -22 1 -33 4c-16 5 -28 21 -28 40c0 23 17 43 49 43zM235 454c-29 0 -53 -7 -72 -18c-2 -10 -4 -21 -4 -28c0 -43 31 -64 76 -64c44 0 72 21 72 57c0 39 -34 53 -72 53z" />
    <glyph glyph-name="knVU" horiz-adv-x="998" 
d="M771 513c71 0 167 -98 167 -308c0 -200 -116 -389 -301 -389c-138 0 -248 93 -291 279c-4 10 -8 20 -11 31h-2c-23 -83 -92 -140 -159 -140c-75 0 -124 70 -124 161c0 85 44 140 102 140c50 0 74 -37 85 -79l-16 -15c-9 24 -32 34 -57 34c-42 0 -74 -23 -74 -72
c0 -51 35 -84 85 -84c76 0 140 74 154 150h9c14 -76 82 -150 154 -150c57 0 101 50 101 124c0 116 -99 229 -251 239h-292v75h443c61 0 92 27 92 67c0 34 -22 59 -46 68l15 20c43 -16 74 -57 74 -112c0 -72 -54 -118 -135 -118h-2c80 -48 140 -138 140 -256
c0 -94 -43 -192 -134 -192c-31 0 -62 11 -88 31c38 -68 115 -114 227 -114c183 0 267 134 267 309c0 132 -47 195 -84 208c-24 8 -45 3 -68 10c-16 5 -28 21 -28 40c0 23 17 43 48 43z" />
    <glyph glyph-name="knSHU" horiz-adv-x="913" 
d="M687 513c70 0 166 -98 166 -271c0 -147 -80 -256 -189 -256c-73 0 -137 50 -168 137c-38 -84 -120 -137 -226 -137c-137 0 -215 80 -215 168c0 68 47 107 154 107c62 0 121 12 121 82c0 56 -38 96 -85 96c-39 0 -73 -27 -73 -62c0 -17 8 -30 17 -30c4 0 5 4 5 7
c0 22 14 39 34 39c22 0 38 -18 38 -39c0 -23 -18 -46 -54 -46c-45 0 -71 34 -71 71c0 20 7 39 23 55h-106v75h345c61 0 92 27 92 67c0 34 -22 59 -46 68l15 20c43 -16 74 -57 74 -112c0 -69 -50 -114 -125 -118c66 -39 106 -108 106 -198c0 -21 -2 -40 -6 -59
c36 -79 85 -106 144 -106c91 0 161 66 161 184c0 89 -47 152 -87 166c-11 4 -21 4 -32 5c-11 0 -22 1 -33 4c-16 5 -28 21 -28 40c0 23 17 43 49 43zM270 71c120 0 199 67 199 186c0 116 -75 178 -156 183c32 -20 49 -57 49 -100c0 -66 -40 -109 -153 -109
c-84 0 -107 -22 -107 -53c0 -52 63 -107 168 -107z" />
    <glyph glyph-name="knSSU" horiz-adv-x="1068" 
d="M633 552c0 -72 -54 -118 -135 -118h-443v75h443c61 0 92 27 92 67c0 34 -22 59 -46 68l15 20c43 -16 74 -57 74 -112zM842 513c70 0 166 -98 166 -271c0 -147 -80 -256 -189 -256c-89 0 -165 83 -187 176c-3 -36 -10 -69 -21 -96c34 -35 68 -59 86 -80
c9 -11 14 -21 14 -34c0 -22 -15 -38 -37 -38c-16 0 -27 8 -37 21c-16 20 -30 54 -50 89c-20 -24 -47 -38 -81 -38c-69 0 -137 57 -160 140h-2c-23 -83 -98 -140 -165 -140c-75 0 -124 70 -124 162c0 84 43 139 102 139c49 0 73 -37 86 -79l-16 -15c-13 23 -36 34 -62 34
c-41 0 -70 -26 -70 -72c0 -51 35 -84 86 -84c75 0 145 74 159 150h9c14 -76 78 -150 152 -150c17 0 32 4 45 11l-125 160l21 18l132 -154c20 26 30 62 30 105c0 39 -10 66 -26 83c-16 15 -36 18 -50 31c-9 8 -13 18 -13 29c0 23 17 40 42 40c49 0 69 -66 75 -134
c27 -112 88 -189 180 -189c91 0 161 66 161 184c0 89 -47 152 -87 166c-11 4 -21 4 -32 5c-11 0 -22 1 -33 4c-16 5 -28 21 -28 40c0 23 17 43 49 43zM288 331c0 32 25 59 59 59c33 0 60 -27 60 -59c0 -33 -27 -60 -60 -60c-34 0 -59 27 -59 60z" />
    <glyph glyph-name="knSU" horiz-adv-x="1032" 
d="M614 552c0 -72 -54 -118 -135 -118h-434v75h434c61 0 92 27 92 67c0 34 -22 59 -46 68l15 20c43 -16 74 -57 74 -112zM805 513c71 0 167 -98 167 -271c0 -147 -80 -256 -193 -256c-70 0 -134 54 -170 133c-8 -74 -41 -133 -111 -133c-111 0 -133 184 -280 184
c-66 0 -118 -50 -125 -184l-29 8c0 150 60 253 155 253c133 0 150 -176 263 -176c54 0 84 43 84 117c0 61 -26 122 -68 172l23 17c40 -39 67 -89 80 -144c35 -102 99 -162 178 -162c88 0 158 66 158 184c0 89 -47 152 -84 165c-24 8 -45 3 -68 10c-16 5 -28 21 -28 40
c0 23 17 43 48 43zM251 347c0 33 22 57 58 57s58 -24 58 -57s-22 -59 -58 -59s-58 26 -58 59z" />
    <glyph glyph-name="knHU" horiz-adv-x="1075" 
d="M849 513c70 0 166 -98 166 -271c0 -147 -80 -256 -189 -256c-70 0 -131 45 -164 125c-19 -73 -81 -125 -159 -125c-67 0 -114 40 -141 104c-27 -64 -75 -104 -141 -104c-95 0 -166 78 -166 176c0 104 71 178 166 178c55 0 92 -20 119 -53c-4 81 -32 136 -103 147h-182v75
h478c61 0 92 27 92 67c0 34 -22 59 -46 68l15 20c43 -16 74 -57 74 -112c0 -72 -54 -118 -135 -118h-216c39 -31 57 -80 62 -154c27 37 65 60 124 60c83 0 148 -57 163 -140c37 -97 89 -129 153 -129c91 0 161 66 161 184c0 89 -47 152 -87 166c-11 4 -21 4 -32 5
c-11 0 -22 1 -33 4c-16 5 -28 21 -28 40c0 23 17 43 49 43zM221 71c67 0 120 42 120 116c0 72 -52 115 -120 115c-62 0 -116 -46 -116 -115c0 -74 54 -116 116 -116zM497 71c67 0 122 42 122 116c0 69 -54 115 -122 115c-62 0 -114 -43 -114 -115c0 -74 52 -116 114 -116z
" />
    <glyph glyph-name="knRRU" horiz-adv-x="1144" 
d="M563 519c102 0 170 -127 170 -276c0 -161 -77 -257 -176 -257c-77 0 -147 57 -170 140h-2c-23 -83 -87 -140 -166 -140c-102 0 -179 96 -179 256c0 150 68 277 170 277c71 0 107 -62 107 -125c0 -18 -3 -35 -8 -50h155c-5 15 -8 32 -8 50c0 63 36 125 107 125zM918 513
c70 0 166 -98 166 -271c0 -147 -80 -256 -189 -256c-75 0 -140 52 -170 143l7 78c37 -102 90 -136 156 -136c91 0 161 66 161 184c0 89 -47 152 -87 166c-11 4 -21 4 -32 5c-11 0 -22 1 -33 4c-16 5 -28 21 -28 40c0 23 17 43 49 43zM552 71c84 0 141 78 141 194
c0 100 -42 189 -135 189c-38 0 -72 -15 -72 -54c0 -35 28 -56 75 -56h50v-71h-448v71h49c47 0 75 21 75 56c0 39 -34 54 -72 54c-93 0 -135 -89 -135 -188c0 -117 57 -195 141 -195c82 0 146 74 160 150h9c13 -75 80 -150 162 -150z" />
    <glyph glyph-name="knLLU" horiz-adv-x="933" 
d="M706 513c71 0 167 -98 167 -271c0 -147 -80 -256 -223 -256c-97 0 -172 52 -223 111c-3 -66 -46 -111 -116 -111c-66 0 -111 42 -111 101c0 37 18 63 45 84c-101 16 -215 48 -215 192c0 97 65 156 150 156c82 0 115 -52 115 -108c0 -48 -24 -101 -90 -101
c-56 0 -92 40 -92 100c0 9 1 17 2 25c-29 -16 -50 -42 -50 -79c0 -76 84 -93 171 -111c36 -8 72 -15 103 -27c10 4 20 7 30 11c79 28 157 56 157 124c0 47 -37 81 -107 81h-35v75h81c61 0 92 27 92 67c0 34 -22 59 -46 68l15 20c43 -16 74 -57 74 -112
c0 -54 -31 -94 -81 -110c26 -19 44 -48 44 -88c0 -93 -97 -129 -182 -158c6 -5 12 -10 17 -15c74 -71 145 -110 272 -110c98 0 168 66 168 184c0 89 -47 152 -84 165c-24 8 -45 3 -68 10c-16 5 -28 21 -28 40c0 23 17 43 48 43zM194 454c-17 0 -33 -2 -49 -7
c-1 -6 -2 -13 -2 -20c0 -33 20 -54 63 -54c39 0 59 17 59 39c0 19 -15 42 -71 42zM320 71c38 0 71 12 71 41c0 32 -42 42 -97 51c-27 -13 -45 -29 -45 -50c0 -28 29 -42 71 -42z" />
    <glyph glyph-name="knLLLU" horiz-adv-x="1144" 
d="M563 519c102 0 170 -127 170 -265c0 -172 -77 -268 -177 -268c-76 0 -146 57 -169 140h-2c-23 -83 -87 -140 -166 -140c-102 0 -179 96 -179 263c0 143 68 270 170 270c71 0 107 -62 107 -125c0 -69 -42 -121 -108 -121c-55 0 -98 35 -98 108v14
c-21 -34 -31 -80 -31 -129c0 -117 57 -195 141 -195c82 0 146 74 160 150h9c13 -75 80 -150 162 -150c84 0 141 78 141 194c0 49 -10 95 -31 130v-14c0 -73 -43 -108 -97 -108c-67 0 -109 52 -109 121c0 63 36 125 107 125zM918 513c70 0 166 -98 166 -271
c0 -147 -80 -256 -189 -256c-75 0 -140 52 -170 143l7 78c37 -102 90 -136 156 -136c91 0 161 66 161 184c0 89 -47 152 -87 166c-11 4 -21 4 -32 5c-11 0 -22 1 -33 4c-16 5 -28 21 -28 40c0 23 17 43 49 43zM215 454c-30 0 -54 -9 -74 -25c-1 -7 -2 -15 -2 -21
c0 -43 31 -64 76 -64c44 0 72 21 72 57c0 39 -34 53 -72 53zM559 344c44 0 75 21 75 64c0 5 -1 13 -2 21c-20 16 -45 25 -75 25c-37 0 -71 -14 -71 -53c0 -36 28 -57 73 -57z" />
    <glyph glyph-name="knKUU" horiz-adv-x="1192" 
d="M889 519c148 0 258 -117 258 -281c0 -146 -74 -252 -186 -252c-96 0 -156 72 -157 171c1 78 41 142 113 142c55 0 80 -37 80 -70c0 -35 -26 -64 -61 -64c-33 0 -54 26 -54 62c0 6 -2 10 -7 10c-12 0 -33 -25 -33 -65c0 -59 44 -104 118 -104c90 0 152 61 152 167
c0 128 -99 206 -214 206c-107 0 -183 -70 -183 -210c0 -158 -33 -245 -123 -245c-79 0 -144 65 -175 136c-15 -77 -81 -136 -163 -136c-97 0 -170 78 -170 171c0 55 26 106 69 137h-113v66h194c8 12 13 26 13 43c0 11 -2 22 -6 31h-201v75h280c61 0 92 28 92 67
c0 34 -22 59 -46 68l15 20c43 -16 74 -57 74 -112c0 -72 -53 -118 -135 -118h-45c4 -11 6 -22 6 -33c0 -14 -3 -28 -9 -41h193v-66h-112c25 -19 44 -44 56 -74v2c31 -77 79 -151 165 -151c68 0 104 45 104 177c0 175 89 271 211 271zM254 71c71 0 120 46 120 111
c0 70 -58 115 -120 115c-63 0 -122 -45 -122 -115c0 -65 50 -111 122 -111z" />
    <glyph glyph-name="knKHUU" horiz-adv-x="1470" 
d="M1167 519c148 0 258 -117 258 -281c0 -146 -74 -252 -186 -252c-96 0 -156 72 -157 171c1 78 41 142 113 142c55 0 80 -37 80 -70c0 -35 -26 -64 -61 -64c-33 0 -54 26 -54 62c0 6 -2 10 -7 10c-12 0 -33 -25 -33 -65c0 -59 44 -104 118 -104c90 0 152 61 152 167
c0 128 -99 206 -214 206c-107 0 -183 -70 -183 -210c0 -158 -33 -245 -123 -245c-76 0 -140 60 -171 129c-32 -79 -94 -129 -171 -129c-65 0 -115 40 -162 86c-41 -52 -99 -86 -172 -86c-94 0 -154 60 -154 133c0 68 52 112 128 112s131 -45 189 -87c26 37 40 85 40 141
c0 112 -61 170 -131 170c-49 0 -81 -29 -81 -66c0 -20 9 -38 22 -38c3 0 4 1 4 6c0 30 17 51 44 51c28 0 49 -23 49 -51c0 -29 -24 -57 -68 -57c-56 0 -90 50 -90 104c0 65 51 116 122 116c89 0 169 -75 169 -233c0 -59 -14 -120 -41 -170c39 -26 82 -46 134 -46
c86 0 157 66 157 181c0 92 -47 158 -83 168c-26 7 -46 4 -68 10c-18 5 -29 21 -29 40c0 23 16 43 48 43c70 0 167 -98 167 -271c0 -27 -3 -53 -8 -77c31 -53 74 -94 138 -94c68 0 104 45 104 177c0 175 89 271 211 271zM202 71c50 0 92 15 124 40c-47 45 -95 85 -156 85
c-53 0 -76 -29 -76 -58c0 -34 31 -67 108 -67z" />
    <glyph glyph-name="knGUU" horiz-adv-x="1288" 
d="M985 519c148 0 258 -117 258 -281c0 -146 -74 -252 -186 -252c-96 0 -156 72 -157 171c1 78 41 142 113 142c55 0 80 -37 80 -70c0 -35 -26 -64 -61 -64c-33 0 -54 26 -54 62c0 6 -2 10 -7 10c-12 0 -33 -25 -33 -65c0 -59 44 -104 118 -104c90 0 152 61 152 167
c0 128 -99 206 -214 206c-107 0 -183 -70 -183 -210c0 -158 -33 -245 -123 -245c-68 0 -127 49 -161 109c1 -15 2 -30 2 -44v-51h-78v78c0 169 -54 360 -159 360s-159 -191 -159 -360v-78h-78v51c0 125 54 309 145 383h-140v75h328c61 0 92 27 92 67c0 34 -22 59 -46 68
l15 20c43 -16 74 -57 74 -112c0 -72 -54 -118 -135 -118h-4c55 -45 97 -131 121 -219v7c31 -77 79 -151 165 -151c68 0 104 45 104 177c0 175 89 271 211 271z" />
    <glyph glyph-name="knGHUU" horiz-adv-x="1404" 
d="M631 552c0 -72 -54 -118 -135 -118h-445v75h445c61 0 92 27 92 67c0 34 -22 59 -46 68l15 20c43 -16 74 -57 74 -112zM1101 519c148 0 258 -117 258 -281c0 -146 -74 -252 -186 -252c-96 0 -156 72 -157 171c1 78 41 142 113 142c55 0 80 -37 80 -70
c0 -35 -26 -64 -61 -64c-33 0 -54 26 -54 62c0 6 -2 10 -7 10c-12 0 -33 -25 -33 -65c0 -59 44 -104 118 -104c90 0 152 61 152 167c0 128 -99 206 -214 206c-107 0 -183 -70 -183 -210c0 -158 -33 -245 -123 -245c-81 0 -148 69 -177 143c-11 -75 -49 -143 -125 -143
c-69 0 -138 57 -161 140h-2c-23 -83 -98 -140 -166 -140c-74 0 -123 70 -123 161c0 85 43 140 102 140c49 0 73 -37 86 -79l-16 -15c-11 24 -36 34 -62 34c-41 0 -70 -26 -70 -72c0 -51 35 -84 86 -84c75 0 145 74 159 150h9c14 -76 79 -150 151 -150c69 0 99 70 99 131
c0 68 -17 128 -37 170l23 18c6 -9 11 -19 15 -30c37 -67 66 -85 97 -85c37 0 60 26 60 61c0 31 -18 63 -61 93l19 20c62 -38 91 -87 91 -139c0 -62 -40 -109 -100 -109c-27 0 -52 9 -76 45c2 -15 3 -29 4 -43c31 -70 78 -132 157 -132c68 0 104 45 104 177
c0 175 89 271 211 271zM279 331c0 32 25 59 59 59c33 0 60 -27 60 -59c0 -33 -27 -60 -60 -60c-34 0 -59 27 -59 60zM331 16h16c14 -120 43 -133 43 -177c0 -40 -25 -59 -50 -59c-28 0 -53 23 -53 59c0 44 31 57 44 177z" />
    <glyph glyph-name="knNGUU" horiz-adv-x="1408" 
d="M1105 519c148 0 258 -117 258 -281c0 -146 -74 -252 -186 -252c-96 0 -156 72 -157 171c1 78 41 142 113 142c55 0 80 -37 80 -70c0 -35 -26 -64 -61 -64c-33 0 -54 26 -54 62c0 6 -2 10 -7 10c-12 0 -33 -25 -33 -65c0 -59 44 -104 118 -104c90 0 152 61 152 167
c0 128 -99 206 -214 206c-107 0 -183 -70 -183 -210c0 -158 -33 -245 -123 -245c-66 0 -122 45 -157 102c-13 -63 -67 -102 -124 -102c-68 0 -136 57 -159 140h-2c-23 -83 -91 -140 -160 -140c-66 0 -127 52 -127 136c0 71 43 116 82 156c32 33 63 66 63 107
c0 42 -34 67 -76 67c-47 0 -70 -31 -70 -67c0 -13 3 -25 10 -40l-20 -15c-21 22 -29 50 -29 76c0 58 39 113 114 113c76 0 124 -53 124 -111c56 69 135 128 222 128c91 0 130 -64 130 -128c0 -48 -21 -76 -44 -100l-19 16c12 13 20 31 20 54c0 52 -41 89 -113 89
c-79 0 -150 -44 -238 -160v1c-15 -18 -31 -35 -47 -51c-34 -34 -58 -70 -58 -105c0 -38 27 -81 81 -81c72 0 137 74 151 150h9c13 -75 79 -150 153 -150c57 0 82 45 82 85c0 27 -12 56 -36 80l21 15c21 -18 40 -43 51 -73l1 2c30 -57 79 -109 147 -109s104 45 104 177
c0 175 89 271 211 271zM345 331c0 30 23 54 53 54s53 -24 53 -54c0 -29 -23 -53 -53 -53s-53 24 -53 53z" />
    <glyph glyph-name="knCUU" horiz-adv-x="1415" 
d="M1112 519c148 0 258 -117 258 -281c0 -146 -74 -252 -186 -252c-96 0 -156 72 -157 171c1 78 41 142 113 142c55 0 80 -37 80 -70c0 -35 -26 -64 -61 -64c-33 0 -54 26 -54 62c0 6 -2 10 -7 10c-12 0 -33 -25 -33 -65c0 -59 44 -104 118 -104c90 0 152 61 152 167
c0 128 -99 206 -214 206c-107 0 -183 -70 -183 -210c0 -158 -33 -245 -123 -245c-70 0 -130 52 -164 114c-13 -74 -66 -114 -124 -114c-68 0 -136 57 -159 140h-2c-23 -83 -91 -140 -160 -140c-66 0 -127 52 -127 136c0 71 43 116 82 156c32 33 63 66 63 107
c0 42 -34 67 -76 67c-47 0 -70 -31 -70 -67c0 -13 3 -25 10 -40l-20 -15c-21 22 -29 50 -29 76c0 58 39 113 114 113c76 0 124 -54 124 -112s-48 -109 -89 -150c-34 -34 -58 -70 -58 -105c0 -38 27 -81 81 -81c72 0 137 74 151 150h9c13 -75 78 -150 152 -150
c58 0 83 45 83 92c0 48 -28 101 -71 131h-146v71h150c7 9 10 19 10 30c0 14 -6 28 -18 39h-142v75h152c61 0 92 27 92 67c0 34 -22 59 -46 68l15 20c43 -16 74 -57 74 -112c0 -63 -41 -106 -106 -116c8 -13 13 -27 13 -42c0 -10 -2 -19 -6 -29h88v-71h-74
c30 -27 50 -67 59 -111c31 -61 76 -112 147 -112c68 0 104 45 104 177c0 175 89 271 211 271z" />
    <glyph glyph-name="knCHUU" horiz-adv-x="1482" 
d="M1179 519c148 0 258 -117 258 -281c0 -146 -74 -252 -186 -252c-96 0 -156 72 -157 171c1 78 41 142 113 142c55 0 80 -37 80 -70c0 -35 -26 -64 -61 -64c-33 0 -54 26 -54 62c0 6 -2 10 -7 10c-12 0 -33 -25 -33 -65c0 -59 44 -104 118 -104c90 0 152 61 152 167
c0 128 -99 206 -214 206c-107 0 -183 -70 -183 -210c0 -158 -33 -245 -123 -245c-76 0 -140 60 -171 128c-24 -80 -76 -128 -149 -128c-80 0 -148 57 -171 140h-2c-23 -83 -91 -140 -170 -140c-102 0 -179 96 -179 266c0 140 68 267 170 267c71 0 107 -62 107 -125
c0 -69 -42 -121 -108 -121c-55 0 -98 35 -98 111v10c-21 -34 -31 -81 -31 -131c0 -114 57 -192 142 -192c81 0 149 74 163 150h9c13 -75 79 -150 161 -150c89 0 131 87 131 166c0 135 -79 197 -208 197h-48v75h161c61 0 92 27 92 67c0 34 -22 59 -46 68l15 20
c43 -16 74 -57 74 -112c0 -59 -36 -101 -94 -114c55 -47 93 -118 93 -214c0 -18 -1 -35 -3 -52c31 -56 75 -101 142 -101c68 0 104 45 104 177c0 175 89 271 211 271zM215 454c-30 0 -54 -9 -74 -25c-1 -7 -2 -15 -2 -21c0 -43 31 -64 76 -64c44 0 72 21 72 57
c0 39 -34 53 -72 53zM383 16h16c14 -120 43 -133 43 -177c0 -40 -25 -59 -50 -59c-28 0 -53 23 -53 59c0 44 31 57 44 177z" />
    <glyph glyph-name="knJUU" horiz-adv-x="1408" 
d="M1105 519c148 0 258 -117 258 -281c0 -146 -74 -252 -186 -252c-96 0 -156 72 -157 171c1 78 41 142 113 142c55 0 80 -37 80 -70c0 -35 -26 -64 -61 -64c-33 0 -54 26 -54 62c0 6 -2 10 -7 10c-12 0 -33 -25 -33 -65c0 -59 44 -104 118 -104c90 0 152 61 152 167
c0 128 -99 206 -214 206c-107 0 -183 -70 -183 -210c0 -158 -33 -245 -123 -245c-66 0 -122 45 -157 102c-13 -63 -67 -102 -124 -102c-68 0 -136 57 -159 140h-2c-23 -83 -91 -140 -160 -140c-66 0 -127 52 -127 136c0 71 43 116 82 156c32 33 63 66 63 107
c0 42 -34 67 -76 67c-47 0 -70 -31 -70 -67c0 -13 3 -25 10 -40l-20 -15c-21 22 -29 50 -29 76c0 58 39 113 114 113c43 0 77 -17 99 -43c77 -84 146 -116 211 -116c54 0 94 27 94 83c0 26 -11 51 -36 76l19 17c37 -33 59 -78 59 -122c0 -75 -53 -127 -128 -127
c-63 0 -128 41 -194 114c-3 -56 -49 -104 -89 -144c-34 -34 -58 -70 -58 -105c0 -38 27 -81 81 -81c72 0 137 74 151 150h9c13 -75 79 -150 153 -150c57 0 82 45 82 85c0 27 -12 56 -36 80l21 15c21 -18 40 -43 51 -73l1 2c30 -57 79 -109 147 -109s104 45 104 177
c0 175 89 271 211 271z" />
    <glyph glyph-name="knJHUU" horiz-adv-x="1924" 
d="M1621 519c148 0 258 -117 258 -281c0 -146 -74 -252 -186 -252c-96 0 -156 72 -157 171c1 78 41 142 113 142c55 0 80 -37 80 -70c0 -35 -26 -64 -61 -64c-33 0 -54 26 -54 62c0 6 -2 10 -7 10c-12 0 -33 -25 -33 -65c0 -59 44 -104 118 -104c90 0 152 61 152 167
c0 128 -99 206 -214 206c-107 0 -183 -70 -183 -210c0 -158 -33 -245 -123 -245c-80 0 -147 67 -177 141c-29 -85 -93 -141 -174 -141c-70 0 -133 50 -163 136c-31 -82 -94 -136 -173 -136c-65 0 -123 42 -156 117c-37 -72 -110 -117 -201 -117c-136 0 -230 100 -230 240
c0 87 44 169 116 208h-116v75h325c61 0 92 27 92 67c0 34 -22 59 -46 68l15 20c43 -16 74 -57 74 -112c0 -67 -46 -111 -118 -117c73 -39 118 -121 118 -209c0 -25 -3 -49 -9 -71c35 -62 80 -84 136 -84c88 0 158 66 158 184c0 89 -48 150 -84 165c-24 10 -45 3 -68 10
c-16 5 -28 21 -28 40c0 23 17 43 49 43c70 0 166 -98 166 -271c0 -22 -2 -42 -5 -62c36 -81 86 -109 148 -109c88 0 158 66 158 184c0 89 -47 152 -84 165c-24 8 -45 3 -68 10c-16 5 -28 21 -28 40c0 23 17 43 48 43c71 0 167 -98 167 -271c0 -22 -2 -43 -5 -63
c31 -60 75 -108 145 -108c68 0 104 45 104 177c0 175 89 271 211 271zM280 71c109 0 185 74 185 177c0 101 -84 185 -185 185s-185 -85 -185 -186c0 -103 75 -176 185 -176zM797 16h16c14 -120 43 -133 43 -177c0 -40 -25 -59 -51 -59c-27 0 -52 23 -52 59
c0 44 31 57 44 177z" />
    <glyph glyph-name="knNYUU" horiz-adv-x="1654" 
d="M1351 519c148 0 258 -117 258 -281c0 -146 -74 -252 -186 -252c-96 0 -156 72 -157 171c1 78 41 142 113 142c55 0 80 -37 80 -70c0 -35 -26 -64 -61 -64c-33 0 -54 26 -54 62c0 6 -2 10 -7 10c-12 0 -33 -25 -33 -65c0 -59 44 -104 118 -104c90 0 152 61 152 167
c0 128 -99 206 -214 206c-107 0 -183 -70 -183 -210c0 -158 -33 -245 -129 -245c-89 0 -190 75 -190 206c0 49 14 113 14 152c0 58 -31 100 -97 100c-83 0 -136 -67 -144 -136c-2 -71 -27 -140 -67 -196c48 -55 74 -120 74 -165c0 -31 -12 -44 -28 -44c-21 0 -31 21 -31 52
c0 38 -14 84 -42 124c-52 -56 -122 -93 -196 -93c-91 0 -154 52 -154 119c0 63 57 111 151 111c80 0 145 -30 194 -72c39 39 63 93 63 156c0 90 -52 141 -113 141c-84 0 -140 -84 -152 -158h-10c-14 75 -64 159 -154 159c-58 0 -89 -40 -89 -84c0 -18 5 -33 13 -41l-31 -21
c-21 27 -29 60 -29 92c0 79 49 131 123 131c82 0 148 -58 171 -142h2c23 84 88 142 161 142s122 -50 138 -135c18 77 82 135 156 135s130 -63 130 -161c0 -52 -14 -94 -14 -143c0 -108 73 -144 136 -144c71 0 107 45 107 177c0 175 89 271 211 271zM240 124
c0 -35 51 -53 111 -53c57 0 110 17 152 48c-39 38 -93 65 -160 65c-65 0 -103 -29 -103 -60z" />
    <glyph glyph-name="knTTUU" horiz-adv-x="1492" 
d="M1189 519c148 0 258 -117 258 -281c0 -146 -74 -252 -186 -252c-96 0 -156 72 -157 171c1 78 41 142 113 142c55 0 80 -37 80 -70c0 -35 -26 -64 -61 -64c-33 0 -54 26 -54 62c0 6 -2 10 -7 10c-12 0 -33 -25 -33 -65c0 -59 44 -104 118 -104c90 0 152 61 152 167
c0 128 -99 206 -214 206c-107 0 -183 -70 -183 -210c0 -158 -33 -245 -123 -245c-81 0 -147 68 -177 141c-21 -87 -78 -141 -163 -141c-70 0 -138 57 -161 140h-2c-23 -83 -91 -140 -161 -140c-111 0 -188 96 -188 255c0 107 45 197 117 227c-38 22 -67 56 -67 98
c0 54 46 100 130 105l9 -22c-52 -12 -75 -43 -75 -88c0 -32 14 -57 46 -82h10c71 0 107 -62 107 -128s-42 -118 -105 -118c-58 0 -101 35 -101 108c0 8 0 16 1 27c-22 -29 -32 -70 -32 -116c0 -103 57 -181 148 -181c75 0 143 74 157 150h9c13 -75 79 -150 152 -150
c88 0 140 67 140 156c0 75 -47 151 -145 159l-16 39c66 39 97 84 97 132c0 45 -29 79 -82 94l12 20c86 -8 131 -58 131 -117c0 -58 -46 -101 -103 -134c93 -24 145 -100 145 -206c0 -9 0 -18 -1 -26c31 -64 77 -117 150 -117c68 0 104 45 104 177c0 175 89 271 211 271z
M287 361c0 39 -34 53 -72 53c-29 0 -53 -7 -73 -19c-1 -9 -3 -20 -3 -27c0 -43 31 -64 73 -64c47 0 75 21 75 57z" />
    <glyph glyph-name="knTTHUU" horiz-adv-x="1273" 
d="M970 519c148 0 258 -117 258 -281c0 -146 -74 -252 -186 -252c-96 0 -156 72 -157 171c1 78 41 142 113 142c55 0 80 -37 80 -70c0 -35 -26 -64 -61 -64c-33 0 -54 26 -54 62c0 6 -2 10 -7 10c-12 0 -33 -25 -33 -65c0 -59 44 -104 118 -104c90 0 152 61 152 167
c0 128 -99 206 -214 206c-107 0 -183 -70 -183 -210c0 -158 -33 -245 -123 -245c-82 0 -151 71 -179 146c-32 -88 -111 -146 -214 -146c-136 0 -230 100 -230 240c0 87 44 169 116 208h-116v75h325c61 0 92 27 92 67c0 34 -22 59 -46 68l15 20c43 -16 74 -57 74 -112
c0 -67 -46 -111 -118 -117c73 -39 118 -121 118 -209c0 -14 -1 -28 -3 -42c31 -62 76 -113 148 -113c68 0 104 45 104 177c0 175 89 271 211 271zM280 71c109 0 185 74 185 177c0 101 -84 185 -185 185s-185 -85 -185 -186c0 -103 75 -176 185 -176zM280 321
c34 0 59 -26 59 -60s-25 -58 -59 -58s-60 24 -60 58s26 60 60 60z" />
    <glyph glyph-name="knDDUU" horiz-adv-x="1403" 
d="M1100 519c148 0 258 -117 258 -281c0 -146 -74 -252 -186 -252c-96 0 -156 72 -157 171c1 78 41 142 113 142c55 0 80 -37 80 -70c0 -35 -26 -64 -61 -64c-33 0 -54 26 -54 62c0 6 -2 10 -7 10c-12 0 -33 -25 -33 -65c0 -59 44 -104 118 -104c90 0 152 61 152 167
c0 128 -99 206 -214 206c-107 0 -183 -70 -183 -210c0 -158 -33 -245 -123 -245c-69 0 -127 49 -161 109c-14 -74 -69 -109 -129 -109c-76 0 -144 57 -167 140h-2c-23 -83 -91 -140 -162 -140c-65 0 -127 47 -127 164c0 132 75 234 170 284h-170v75h444c61 0 92 27 92 67
c0 34 -22 59 -46 68l15 20c43 -16 74 -57 74 -112c0 -72 -54 -118 -135 -118h-12c59 -30 105 -79 109 -142c24 -34 38 -76 45 -116c31 -58 75 -105 144 -105c68 0 104 45 104 177c0 175 89 271 211 271zM505 71c59 0 94 42 94 109c0 21 -4 43 -10 62
c-16 -39 -53 -57 -91 -57c-58 0 -100 44 -100 91c0 39 29 79 88 79c25 0 47 -7 66 -20c-29 52 -109 106 -198 106c-141 0 -250 -141 -250 -260c0 -67 34 -110 87 -110c70 0 136 74 150 150h9c14 -76 79 -150 155 -150zM563 288c-18 23 -44 38 -74 38c-34 0 -52 -19 -52 -42
c0 -22 17 -41 58 -41c45 0 65 23 68 45z" />
    <glyph glyph-name="knDDHUU" horiz-adv-x="1403" 
d="M1100 519c148 0 258 -117 258 -281c0 -146 -74 -252 -186 -252c-96 0 -156 72 -157 171c1 78 41 142 113 142c55 0 80 -37 80 -70c0 -35 -26 -64 -61 -64c-33 0 -54 26 -54 62c0 6 -2 10 -7 10c-12 0 -33 -25 -33 -65c0 -59 44 -104 118 -104c90 0 152 61 152 167
c0 128 -99 206 -214 206c-107 0 -183 -70 -183 -210c0 -158 -33 -245 -123 -245c-69 0 -127 49 -161 109c-14 -74 -69 -109 -129 -109c-76 0 -144 57 -167 140h-2c-23 -83 -91 -140 -162 -140c-65 0 -127 47 -127 164c0 132 75 234 170 284h-170v75h444c61 0 92 27 92 67
c0 34 -22 59 -46 68l15 20c43 -16 74 -57 74 -112c0 -72 -54 -118 -135 -118h-12c59 -30 105 -79 109 -142c24 -34 38 -76 45 -116c31 -58 75 -105 144 -105c68 0 104 45 104 177c0 175 89 271 211 271zM505 71c59 0 94 42 94 109c0 21 -4 43 -10 62
c-16 -39 -53 -57 -91 -57c-58 0 -100 44 -100 91c0 39 29 79 88 79c25 0 47 -7 66 -20c-29 52 -109 106 -198 106c-140 0 -250 -141 -250 -260c0 -67 34 -110 87 -110c70 0 136 74 150 150h9c14 -76 79 -150 155 -150zM563 288c-18 23 -44 38 -74 38c-34 0 -52 -19 -52 -42
c0 -22 17 -41 58 -41c45 0 65 23 68 45zM336 16h16c14 -120 43 -133 43 -177c0 -40 -25 -59 -51 -59c-27 0 -52 23 -52 59c0 44 31 57 44 177z" />
    <glyph glyph-name="knNNUU" horiz-adv-x="1492" 
d="M1189 519c148 0 258 -117 258 -281c0 -146 -74 -252 -186 -252c-96 0 -156 72 -157 171c1 78 41 142 113 142c55 0 80 -37 80 -70c0 -35 -26 -64 -61 -64c-33 0 -54 26 -54 62c0 6 -2 10 -7 10c-12 0 -33 -25 -33 -65c0 -59 44 -104 118 -104c90 0 152 61 152 167
c0 128 -99 206 -214 206c-107 0 -183 -70 -183 -210c0 -158 -33 -245 -123 -245c-84 0 -153 74 -180 151c-26 -89 -87 -151 -165 -151c-81 0 -143 65 -143 162c0 89 43 139 101 139c50 0 74 -37 87 -79l-16 -15c-11 24 -32 34 -59 34c-44 0 -73 -26 -73 -71
c0 -52 39 -85 98 -85c76 0 148 57 148 174c0 112 -65 196 -164 196c-98 0 -163 -76 -176 -158h-9c-14 83 -73 158 -155 158c-55 0 -90 -34 -90 -79c0 -53 51 -96 132 -114v-24c-78 -11 -131 -52 -131 -101c0 -33 23 -57 68 -57c43 0 76 22 97 85l23 -12
c-3 -61 -41 -153 -128 -153c-64 0 -107 50 -107 114c0 63 42 114 102 136v4c-46 11 -102 74 -102 149s58 130 133 130c76 0 138 -58 161 -142h3c23 84 91 142 175 142c124 0 203 -127 203 -284c0 -15 -1 -30 -3 -44c32 -65 78 -120 152 -120c68 0 104 45 104 177
c0 175 89 271 211 271z" />
    <glyph glyph-name="knTUU" horiz-adv-x="1297" 
d="M994 519c148 0 258 -117 258 -281c0 -146 -74 -252 -186 -252c-96 0 -156 72 -157 171c1 78 41 142 113 142c55 0 80 -37 80 -70c0 -35 -26 -64 -61 -64c-33 0 -54 26 -54 62c0 6 -2 10 -7 10c-12 0 -33 -25 -33 -65c0 -59 44 -104 118 -104c90 0 152 61 152 167
c0 128 -99 206 -214 206c-107 0 -183 -70 -183 -210c0 -158 -33 -245 -123 -245c-77 0 -141 61 -172 131c-32 -78 -115 -131 -229 -131c-151 0 -236 90 -236 183c0 35 12 71 24 89l24 -4c-7 -14 -11 -32 -11 -49c0 -76 76 -134 196 -134c129 0 200 68 200 144
c0 36 -16 67 -42 89c-9 -69 -72 -115 -146 -115c-71 0 -127 41 -127 97s57 94 144 94c30 0 59 -5 85 -14c-13 32 -44 57 -77 68h-275v75h339c61 0 92 27 92 67c0 34 -22 59 -46 68l15 20c43 -16 74 -57 74 -112c0 -72 -54 -118 -135 -118h-3c27 -18 51 -49 58 -87
c54 -32 90 -86 90 -156c0 -7 0 -14 -1 -20c31 -56 75 -100 141 -100c68 0 104 45 104 177c0 175 89 271 211 271zM308 247c57 0 102 30 106 80c-25 11 -55 17 -87 17c-56 0 -94 -19 -94 -50c0 -29 30 -47 75 -47z" />
    <glyph glyph-name="knTHUU" horiz-adv-x="1393" 
d="M1090 519c148 0 258 -117 258 -281c0 -146 -74 -252 -186 -252c-96 0 -156 72 -157 171c1 78 41 142 113 142c55 0 80 -37 80 -70c0 -35 -26 -64 -61 -64c-33 0 -54 26 -54 62c0 6 -2 10 -7 10c-12 0 -33 -25 -33 -65c0 -59 44 -104 118 -104c90 0 152 61 152 167
c0 128 -99 206 -214 206c-107 0 -183 -70 -183 -210c0 -158 -33 -245 -123 -245c-70 0 -129 51 -163 112c-16 -80 -69 -112 -122 -112c-71 0 -139 57 -162 140h-2c-23 -83 -91 -140 -162 -140c-65 0 -127 47 -127 165c0 131 75 233 166 283h-166v75h444c61 0 92 27 92 67
c0 34 -22 59 -46 68l15 20c43 -16 74 -57 74 -112c0 -72 -54 -118 -135 -118h-30c87 -47 159 -142 166 -264c30 -55 74 -99 140 -99c68 0 104 45 104 177c0 175 89 271 211 271zM499 71c53 0 87 43 87 109c0 120 -109 261 -241 261s-241 -141 -241 -260
c0 -67 34 -110 87 -110c70 0 136 74 150 150h9c14 -76 79 -150 149 -150zM346 375c33 0 59 -27 59 -60s-26 -59 -59 -59s-59 26 -59 59s26 60 59 60zM336 16h16c14 -120 43 -133 43 -177c0 -40 -25 -59 -51 -59c-27 0 -52 23 -52 59c0 44 31 57 44 177z" />
    <glyph glyph-name="knDUU" horiz-adv-x="1394" 
d="M1091 519c148 0 258 -117 258 -281c0 -146 -74 -252 -186 -252c-96 0 -156 72 -157 171c1 78 41 142 113 142c55 0 80 -37 80 -70c0 -35 -26 -64 -61 -64c-33 0 -54 26 -54 62c0 6 -2 10 -7 10c-12 0 -33 -25 -33 -65c0 -59 44 -104 118 -104c90 0 152 61 152 167
c0 128 -99 206 -214 206c-107 0 -183 -70 -183 -210c0 -158 -33 -245 -123 -245c-70 0 -130 52 -164 114c-16 -81 -68 -114 -122 -114c-71 0 -139 57 -162 140h-2c-23 -83 -91 -140 -162 -140c-65 0 -127 47 -127 165c0 131 75 233 166 283h-166v75h444c61 0 92 27 92 67
c0 34 -22 59 -46 68l15 20c43 -16 74 -57 74 -112c0 -72 -54 -118 -135 -118h-30c87 -47 159 -141 165 -262c31 -56 75 -101 142 -101c68 0 104 45 104 177c0 175 89 271 211 271zM499 71c53 0 87 43 87 109c0 120 -109 261 -241 261s-241 -141 -241 -260
c0 -67 34 -110 87 -110c70 0 136 74 150 150h9c14 -76 79 -150 149 -150z" />
    <glyph glyph-name="knDHUU" horiz-adv-x="1393" 
d="M1090 519c148 0 258 -117 258 -281c0 -146 -74 -252 -186 -252c-96 0 -156 72 -157 171c1 78 41 142 113 142c55 0 80 -37 80 -70c0 -35 -26 -64 -61 -64c-33 0 -54 26 -54 62c0 6 -2 10 -7 10c-12 0 -33 -25 -33 -65c0 -59 44 -104 118 -104c90 0 152 61 152 167
c0 128 -99 206 -214 206c-107 0 -183 -70 -183 -210c0 -158 -33 -245 -123 -245c-70 0 -129 51 -163 112c-16 -80 -69 -112 -122 -112c-71 0 -139 57 -162 140h-2c-23 -83 -91 -140 -162 -140c-65 0 -127 47 -127 165c0 131 75 233 166 283h-166v75h444c61 0 92 27 92 67
c0 34 -22 59 -46 68l15 20c43 -16 74 -57 74 -112c0 -72 -54 -118 -135 -118h-30c87 -47 159 -142 166 -264c30 -55 74 -99 140 -99c68 0 104 45 104 177c0 175 89 271 211 271zM499 71c53 0 87 43 87 109c0 120 -109 261 -241 261s-241 -141 -241 -260
c0 -67 34 -110 87 -110c70 0 136 74 150 150h9c14 -76 79 -150 149 -150zM336 16h16c14 -120 43 -133 43 -177c0 -40 -25 -59 -51 -59c-27 0 -52 23 -52 59c0 44 31 57 44 177z" />
    <glyph glyph-name="knNUU" horiz-adv-x="1317" 
d="M1014 519c148 0 258 -117 258 -281c0 -146 -74 -252 -186 -252c-96 0 -156 72 -157 171c1 78 41 142 113 142c55 0 80 -37 80 -70c0 -35 -26 -64 -61 -64c-33 0 -54 26 -54 62c0 6 -2 10 -7 10c-12 0 -33 -25 -33 -65c0 -59 44 -104 118 -104c90 0 152 61 152 167
c0 128 -99 206 -214 206c-107 0 -183 -70 -183 -210c0 -158 -33 -245 -123 -245c-73 0 -135 56 -168 121c-21 -70 -74 -121 -143 -121c-72 0 -90 56 -109 112c-19 57 -38 114 -113 114c-66 0 -99 -41 -99 -90s32 -95 77 -110c31 -11 47 -32 47 -52c0 -17 -11 -26 -28 -26
c-71 0 -131 112 -131 197c0 93 59 163 135 163c70 0 93 -57 117 -114c23 -55 45 -109 109 -109c57 0 100 45 100 123c0 117 -101 204 -247 238l-14 2h-200v75h365c61 0 92 28 92 68c0 33 -22 58 -46 67l15 20c43 -16 74 -57 74 -112c0 -72 -53 -118 -135 -118h-57
c129 -40 201 -142 201 -258v-7c31 -55 74 -98 140 -98c68 0 104 45 104 177c0 175 89 271 211 271z" />
    <glyph glyph-name="knPUU" horiz-adv-x="1347" 
d="M628 552c0 -72 -54 -118 -135 -118h-443v75h443c61 0 92 27 92 67c0 34 -22 59 -46 68l15 20c43 -16 74 -57 74 -112zM1047 519c117 0 255 -95 255 -281c0 -156 -86 -252 -197 -252c-86 0 -149 70 -149 169c0 78 37 144 116 144c53 0 78 -37 78 -69
c0 -36 -25 -65 -60 -65c-33 0 -55 26 -55 62c0 5 -1 10 -6 10c-12 0 -21 -26 -21 -68c0 -57 42 -98 113 -98c92 0 142 69 142 164c0 122 -122 202 -216 202c-88 0 -170 -58 -170 -221c0 -255 -107 -400 -256 -400c-110 0 -227 86 -269 280c-4 9 -8 20 -11 30h-2
c-23 -83 -98 -140 -165 -140c-75 0 -124 70 -124 162c0 84 43 139 102 139c49 0 73 -37 86 -79l-16 -15c-13 23 -36 34 -62 34c-41 0 -70 -26 -70 -72c0 -51 35 -84 86 -84c75 0 145 74 159 150h9c14 -76 78 -150 152 -150c67 0 103 60 103 140c0 39 -10 66 -26 83
c-16 15 -36 18 -50 31c-9 8 -13 18 -13 29c0 23 17 40 42 40c62 0 77 -103 77 -185c0 -125 -37 -223 -128 -223c-30 0 -60 11 -86 30c34 -58 105 -112 190 -112c135 0 228 77 228 327c0 211 111 288 214 288zM283 331c0 32 25 59 59 59c33 0 60 -27 60 -59
c0 -33 -27 -60 -60 -60c-34 0 -59 27 -59 60z" />
    <glyph glyph-name="knPHUU" horiz-adv-x="1347" 
d="M628 552c0 -72 -54 -118 -135 -118h-443v75h443c61 0 92 27 92 67c0 34 -22 59 -46 68l15 20c43 -16 74 -57 74 -112zM1047 519c117 0 255 -95 255 -281c0 -156 -86 -252 -197 -252c-86 0 -149 70 -149 169c0 78 37 144 116 144c53 0 78 -37 78 -69
c0 -36 -25 -65 -60 -65c-33 0 -55 26 -55 62c0 5 -1 10 -6 10c-12 0 -21 -26 -21 -68c0 -57 42 -98 113 -98c92 0 142 69 142 164c0 122 -122 202 -216 202c-88 0 -170 -58 -170 -221c0 -255 -107 -400 -256 -400c-110 0 -227 86 -269 280c-4 9 -8 20 -11 30h-2
c-23 -83 -98 -140 -165 -140c-75 0 -124 70 -124 162c0 84 43 139 102 139c49 0 73 -37 86 -79l-16 -15c-13 23 -36 34 -62 34c-41 0 -70 -26 -70 -72c0 -51 35 -84 86 -84c75 0 145 74 159 150h9c14 -76 78 -150 152 -150c67 0 103 60 103 140c0 39 -10 66 -26 83
c-16 15 -36 18 -50 31c-9 8 -13 18 -13 29c0 23 17 40 42 40c62 0 77 -103 77 -185c0 -125 -37 -223 -128 -223c-30 0 -60 11 -86 30c34 -58 105 -112 190 -112c135 0 228 77 228 327c0 211 111 288 214 288zM283 331c0 32 25 59 59 59c33 0 60 -27 60 -59
c0 -33 -27 -60 -60 -60c-34 0 -59 27 -59 60zM336 16h16c14 -120 43 -133 43 -177c0 -40 -25 -59 -51 -59c-27 0 -52 23 -52 59c0 44 31 57 44 177z" />
    <glyph glyph-name="knBUU" horiz-adv-x="1443" 
d="M1140 519c148 0 258 -117 258 -281c0 -146 -74 -252 -186 -252c-96 0 -156 72 -157 171c1 78 41 142 113 142c55 0 80 -37 80 -70c0 -35 -26 -64 -61 -64c-33 0 -54 26 -54 62c0 6 -2 10 -7 10c-12 0 -33 -25 -33 -65c0 -59 44 -104 118 -104c90 0 152 61 152 167
c0 128 -99 206 -214 206c-107 0 -183 -70 -183 -210c0 -158 -33 -245 -123 -245c-76 0 -141 61 -172 130c-20 -75 -66 -130 -145 -130c-67 0 -135 57 -158 140h-2c-23 -83 -91 -140 -160 -140c-66 0 -127 52 -127 136c0 71 43 116 82 156c32 33 63 66 63 107
c0 42 -34 67 -76 67c-47 0 -70 -31 -70 -67c0 -13 3 -25 10 -40l-20 -15c-21 22 -29 50 -29 76c0 58 39 113 114 113c76 0 124 -54 124 -112s-48 -109 -89 -150c-34 -34 -58 -70 -58 -105c0 -38 27 -81 81 -81c72 0 137 74 151 150h9c13 -75 79 -150 153 -150
c72 0 125 58 125 164c0 89 -46 172 -83 185c-24 8 -45 3 -68 10c-16 5 -28 21 -28 40c0 23 17 43 48 43c71 0 166 -118 166 -291c0 -16 -1 -32 -2 -47c31 -58 75 -104 143 -104s104 45 104 177c0 175 89 271 211 271z" />
    <glyph glyph-name="knBHUU" horiz-adv-x="1450" 
d="M1147 519c148 0 258 -117 258 -281c0 -146 -74 -252 -186 -252c-96 0 -156 72 -157 171c1 78 41 142 113 142c55 0 80 -37 80 -70c0 -35 -26 -64 -61 -64c-33 0 -54 26 -54 62c0 6 -2 10 -7 10c-12 0 -33 -25 -33 -65c0 -59 44 -104 118 -104c90 0 152 61 152 167
c0 128 -99 206 -214 206c-107 0 -183 -70 -183 -210c0 -158 -33 -245 -123 -245c-77 0 -142 62 -173 132c-19 -74 -68 -132 -142 -132c-76 0 -144 57 -167 140h-2c-23 -83 -91 -140 -160 -140c-66 0 -127 52 -127 136c0 71 43 116 82 156c32 33 63 66 63 107
c0 42 -34 67 -76 67c-47 0 -70 -31 -70 -67c0 -13 3 -25 10 -40l-20 -15c-21 22 -29 50 -29 76c0 58 39 113 114 113c76 0 124 -54 124 -112s-48 -109 -89 -150c-34 -34 -58 -70 -58 -105c0 -38 27 -81 81 -81c72 0 137 74 151 150h9c13 -75 79 -150 161 -150
c67 0 116 50 116 124c0 106 -99 229 -251 239h-37v75h191c61 0 92 27 92 67c0 34 -22 59 -46 68l15 20c43 -16 74 -57 74 -112c0 -72 -54 -118 -135 -118h-9c82 -46 144 -132 144 -245v-9c31 -60 76 -109 146 -109c68 0 104 45 104 177c0 175 89 271 211 271zM360 16h16
c14 -120 43 -133 43 -177c0 -40 -25 -59 -51 -59c-27 0 -52 23 -52 59c0 44 31 57 44 177z" />
    <glyph glyph-name="knMUU" horiz-adv-x="1740" 
d="M1437 519c148 0 258 -117 258 -281c0 -146 -74 -252 -186 -252c-96 0 -156 72 -157 171c1 78 41 142 113 142c55 0 80 -37 80 -70c0 -35 -26 -64 -61 -64c-33 0 -54 26 -54 62c0 6 -2 10 -7 10c-12 0 -33 -25 -33 -65c0 -59 44 -104 118 -104c90 0 152 61 152 167
c0 128 -99 206 -214 206c-107 0 -183 -70 -183 -210c0 -158 -33 -245 -123 -245c-83 0 -151 72 -179 148c-29 -89 -94 -148 -177 -148c-65 0 -124 47 -162 116c-16 -64 -54 -116 -120 -116c-69 0 -138 57 -161 140h-2c-23 -83 -98 -140 -165 -140c-75 0 -124 70 -124 161
c0 85 43 140 102 140c49 0 73 -37 86 -79l-16 -15c-11 24 -36 34 -61 34c-42 0 -71 -26 -71 -72c0 -51 35 -84 85 -84c76 0 146 74 160 150h9c14 -76 79 -150 151 -150c59 0 98 50 98 124c0 116 -99 229 -251 239h-292v75h443c61 0 92 27 92 67c0 34 -22 59 -46 68l15 20
c43 -16 74 -57 74 -112c0 -72 -54 -118 -135 -118h-2c80 -48 140 -138 140 -256v-2c37 -67 91 -105 155 -105c86 0 156 66 156 184c0 89 -47 151 -84 165c-21 8 -45 3 -68 10c-16 5 -28 21 -28 40c0 23 17 43 48 43c71 0 167 -98 167 -271c0 -19 -1 -38 -4 -56
c31 -62 77 -115 149 -115c68 0 104 45 104 177c0 175 89 271 211 271z" />
    <glyph glyph-name="knYUU" horiz-adv-x="1924" 
d="M1621 519c148 0 258 -117 258 -281c0 -146 -74 -252 -186 -252c-96 0 -156 72 -157 171c1 78 41 142 113 142c55 0 80 -37 80 -70c0 -35 -26 -64 -61 -64c-33 0 -54 26 -54 62c0 6 -2 10 -7 10c-12 0 -33 -25 -33 -65c0 -59 44 -104 118 -104c90 0 152 61 152 167
c0 128 -99 206 -214 206c-107 0 -183 -70 -183 -210c0 -158 -33 -245 -123 -245c-80 0 -147 67 -176 141c-30 -85 -93 -141 -172 -141c-72 0 -135 50 -166 136c-31 -82 -93 -136 -170 -136c-70 0 -128 47 -159 128c-37 -78 -108 -128 -201 -128c-139 0 -230 113 -230 264
c0 152 92 269 231 269s229 -117 229 -269c0 -29 -3 -57 -10 -83c34 -71 78 -96 134 -96c91 0 161 66 161 184c0 89 -65 156 -112 179h-148v75h192c61 0 92 27 92 67c0 34 -22 59 -46 68l15 20c43 -16 74 -57 74 -112c0 -57 -34 -98 -88 -112c32 -45 56 -112 56 -198
c0 -22 -2 -42 -5 -62c36 -81 85 -109 145 -109c91 0 161 66 161 184c0 89 -47 152 -84 165c-24 8 -45 3 -65 9c-19 6 -31 22 -31 41c0 23 17 43 48 43c71 0 167 -98 167 -271c0 -22 -2 -43 -5 -63c31 -60 75 -108 145 -108c68 0 104 45 104 177c0 175 89 271 211 271z
M280 71c101 0 192 73 192 183c0 115 -80 187 -191 187s-191 -72 -191 -182c0 -115 89 -188 190 -188z" />
    <glyph glyph-name="knRUU" horiz-adv-x="1263" 
d="M960 519c148 0 258 -117 258 -281c0 -146 -74 -252 -186 -252c-96 0 -156 72 -157 171c1 78 41 142 113 142c55 0 80 -37 80 -70c0 -35 -26 -64 -61 -64c-33 0 -54 26 -54 62c0 6 -2 10 -7 10c-12 0 -33 -25 -33 -65c0 -59 44 -104 118 -104c90 0 152 61 152 167
c0 128 -99 206 -214 206c-107 0 -183 -70 -183 -210c0 -158 -33 -245 -123 -245c-78 0 -143 63 -174 134c-34 -82 -111 -134 -209 -134c-136 0 -230 100 -230 240c0 87 44 169 116 208h-116v75h325c61 0 92 27 92 67c0 34 -22 59 -46 68l15 20c43 -16 74 -57 74 -112
c0 -67 -46 -111 -118 -117c73 -39 118 -121 118 -209c0 -20 -2 -38 -5 -56c30 -55 74 -99 140 -99c68 0 104 45 104 177c0 175 89 271 211 271zM280 71c109 0 185 74 185 177c0 101 -84 185 -185 185s-185 -85 -185 -186c0 -103 75 -176 185 -176z" />
    <glyph glyph-name="knLUU" horiz-adv-x="1394" 
d="M1091 519c148 0 258 -117 258 -281c0 -146 -74 -252 -186 -252c-96 0 -156 72 -157 171c1 78 41 142 113 142c55 0 80 -37 80 -70c0 -35 -26 -64 -61 -64c-33 0 -54 26 -54 62c0 6 -2 10 -7 10c-12 0 -33 -25 -33 -65c0 -59 44 -104 118 -104c90 0 152 61 152 167
c0 128 -99 206 -214 206c-107 0 -183 -70 -183 -210c0 -158 -33 -245 -123 -245c-79 0 -145 65 -175 137c-47 -82 -135 -136 -262 -137c-177 0 -297 118 -297 297c0 131 68 236 166 236c75 0 111 -62 111 -125c0 -69 -42 -121 -108 -121c-55 0 -98 35 -98 108c0 9 0 17 2 29
c-22 -28 -33 -66 -33 -109c0 -129 99 -230 268 -230c152 0 254 85 254 216c0 78 -36 121 -73 134c-24 8 -45 3 -68 10c-16 5 -28 21 -28 39c0 24 20 44 51 44c68 0 153 -98 153 -239c0 -39 -6 -77 -19 -111c31 -52 74 -93 138 -93c68 0 104 45 104 177c0 175 89 271 211 271
zM235 454c-29 0 -53 -7 -72 -18c-2 -10 -4 -21 -4 -28c0 -43 31 -64 76 -64c44 0 72 21 72 57c0 39 -34 53 -72 53z" />
    <glyph glyph-name="knVUU" horiz-adv-x="1347" 
d="M1047 519c117 0 255 -95 255 -281c0 -156 -86 -252 -197 -252c-86 0 -149 70 -149 169c0 78 37 144 116 144c53 0 78 -37 78 -69c0 -36 -25 -65 -60 -65c-33 0 -55 26 -55 62c0 5 -1 10 -6 10c-12 0 -21 -26 -21 -68c0 -57 42 -98 113 -98c92 0 142 69 142 164
c0 122 -122 202 -216 202c-88 0 -170 -58 -170 -221c0 -255 -107 -400 -256 -400c-106 0 -219 80 -264 259c-9 15 -17 33 -22 51h-2c-23 -83 -92 -140 -159 -140c-75 0 -124 70 -124 161c0 85 44 140 102 140c50 0 74 -37 85 -79l-16 -15c-9 24 -32 34 -57 34
c-42 0 -74 -23 -74 -72c0 -51 35 -84 85 -84c76 0 140 74 154 150h9c14 -76 82 -150 154 -150c57 0 101 50 101 124c0 116 -99 229 -251 239h-292v75h443c61 0 92 27 92 67c0 34 -22 59 -46 68l15 20c43 -16 74 -57 74 -112c0 -72 -54 -118 -135 -118h-2
c80 -48 140 -138 140 -256c0 -94 -43 -192 -134 -192c-27 0 -54 9 -79 24c36 -55 105 -106 187 -106c135 0 228 77 228 327c0 211 111 288 214 288z" />
    <glyph glyph-name="knSHUU" horiz-adv-x="1281" 
d="M978 519c148 0 258 -117 258 -281c0 -146 -74 -252 -186 -252c-96 0 -156 72 -157 171c1 78 41 142 113 142c55 0 80 -37 80 -70c0 -35 -26 -64 -61 -64c-33 0 -54 26 -54 62c0 6 -2 10 -7 10c-12 0 -33 -25 -33 -65c0 -59 44 -104 118 -104c90 0 152 61 152 167
c0 128 -99 206 -214 206c-107 0 -183 -70 -183 -210c0 -158 -33 -245 -123 -245c-84 0 -153 73 -180 150c-35 -91 -120 -150 -231 -150c-137 0 -215 80 -215 168c0 68 47 107 154 107c62 0 121 12 121 82c0 56 -38 96 -85 96c-39 0 -73 -27 -73 -62c0 -17 8 -30 17 -30
c4 0 5 4 5 7c0 22 14 39 34 39c22 0 38 -18 38 -39c0 -23 -18 -46 -54 -46c-45 0 -71 34 -71 71c0 20 7 39 23 55h-106v75h345c61 0 92 27 92 67c0 34 -22 59 -46 68l15 20c43 -16 74 -57 74 -112c0 -69 -50 -114 -125 -118c66 -39 106 -108 106 -198c0 -18 -1 -35 -4 -51
c31 -62 76 -114 148 -114c68 0 104 45 104 177c0 175 89 271 211 271zM270 71c120 0 199 67 199 186c0 116 -75 178 -156 183c32 -20 49 -57 49 -100c0 -66 -40 -109 -153 -109c-84 0 -107 -22 -107 -53c0 -52 63 -107 168 -107z" />
    <glyph glyph-name="knSSUU" horiz-adv-x="1402" 
d="M633 552c0 -72 -54 -118 -135 -118h-443v75h443c61 0 92 27 92 67c0 34 -22 59 -46 68l15 20c43 -16 74 -57 74 -112zM1099 519c148 0 258 -117 258 -281c0 -146 -74 -252 -186 -252c-96 0 -156 72 -157 171c1 78 41 142 113 142c55 0 80 -37 80 -70
c0 -35 -26 -64 -61 -64c-33 0 -54 26 -54 62c0 6 -2 10 -7 10c-12 0 -33 -25 -33 -65c0 -59 44 -104 118 -104c90 0 152 61 152 167c0 128 -99 206 -214 206c-107 0 -183 -70 -183 -210c0 -158 -33 -245 -123 -245c-79 0 -145 65 -175 137c-4 -21 -9 -40 -16 -57
c34 -35 68 -59 86 -80c9 -11 14 -21 14 -34c0 -22 -15 -38 -37 -38c-16 0 -27 8 -37 21c-16 20 -30 54 -50 89c-20 -24 -47 -38 -81 -38c-69 0 -137 57 -160 140h-2c-23 -83 -98 -140 -165 -140c-75 0 -124 70 -124 162c0 84 43 139 102 139c49 0 73 -37 86 -79l-16 -15
c-13 23 -36 34 -62 34c-41 0 -70 -26 -70 -72c0 -51 35 -84 86 -84c75 0 145 74 159 150h9c14 -76 78 -150 152 -150c17 0 32 4 45 11l-125 160l21 18l132 -154c20 26 30 62 30 105c0 39 -10 66 -26 83c-16 15 -36 18 -50 31c-9 8 -13 18 -13 29c0 23 17 40 42 40
c62 0 77 -103 77 -185v-20c31 -64 77 -118 150 -118c68 0 104 45 104 177c0 175 89 271 211 271zM288 331c0 32 25 59 59 59c33 0 60 -27 60 -59c0 -33 -27 -60 -60 -60c-34 0 -59 27 -59 60z" />
    <glyph glyph-name="knSUU" horiz-adv-x="1367" 
d="M614 552c0 -72 -54 -118 -135 -118h-434v75h434c61 0 92 27 92 67c0 34 -22 59 -46 68l15 20c43 -16 74 -57 74 -112zM1064 519c148 0 258 -117 258 -281c0 -146 -74 -252 -186 -252c-96 0 -156 72 -157 171c1 78 41 142 113 142c55 0 80 -37 80 -70
c0 -35 -26 -64 -61 -64c-33 0 -54 26 -54 62c0 6 -2 10 -7 10c-12 0 -33 -25 -33 -65c0 -59 44 -104 118 -104c90 0 152 61 152 167c0 128 -99 206 -214 206c-107 0 -183 -70 -183 -210c0 -158 -33 -245 -123 -245c-69 0 -128 50 -162 110c-11 -63 -45 -110 -107 -110
c-111 0 -133 184 -280 184c-66 0 -118 -50 -125 -184l-29 8c0 150 60 253 155 253c133 0 150 -176 263 -176c54 0 84 43 84 117c0 61 -26 122 -68 172l23 17c56 -54 85 -129 89 -209c30 -54 74 -97 139 -97c68 0 104 45 104 177c0 175 89 271 211 271zM251 347
c0 33 22 57 58 57s58 -24 58 -57s-22 -59 -58 -59s-58 26 -58 59z" />
    <glyph glyph-name="knHUU" horiz-adv-x="1437" 
d="M1134 519c148 0 258 -117 258 -281c0 -146 -74 -252 -186 -252c-96 0 -156 72 -157 171c1 78 41 142 113 142c55 0 80 -37 80 -70c0 -35 -26 -64 -61 -64c-33 0 -54 26 -54 62c0 6 -2 10 -7 10c-12 0 -33 -25 -33 -65c0 -59 44 -104 118 -104c90 0 152 61 152 167
c0 128 -99 206 -214 206c-107 0 -183 -70 -183 -210c0 -158 -33 -245 -123 -245c-77 0 -142 62 -173 132c-17 -76 -81 -132 -161 -132c-67 0 -114 40 -141 104c-27 -64 -75 -104 -141 -104c-95 0 -166 78 -166 176c0 104 71 178 166 178c55 0 92 -20 119 -53
c-4 81 -32 136 -103 147h-182v75h478c61 0 92 27 92 67c0 34 -22 59 -46 68l15 20c43 -16 74 -57 74 -112c0 -72 -54 -118 -135 -118h-216c39 -31 57 -80 62 -154c27 37 65 60 124 60c85 0 151 -60 164 -147c31 -66 77 -122 152 -122c68 0 104 45 104 177
c0 175 89 271 211 271zM221 71c67 0 120 42 120 116c0 72 -52 115 -120 115c-62 0 -116 -46 -116 -115c0 -74 54 -116 116 -116zM497 71c67 0 122 42 122 116c0 69 -54 115 -122 115c-62 0 -114 -43 -114 -115c0 -74 52 -116 114 -116z" />
    <glyph glyph-name="knRRUU" horiz-adv-x="1500" 
d="M1197 519c148 0 258 -117 258 -281c0 -146 -74 -252 -186 -252c-96 0 -156 72 -157 171c1 78 41 142 113 142c55 0 80 -37 80 -70c0 -35 -26 -64 -61 -64c-33 0 -54 26 -54 62c0 6 -2 10 -7 10c-12 0 -33 -25 -33 -65c0 -59 44 -104 118 -104c90 0 152 61 152 167
c0 128 -99 206 -214 206c-107 0 -183 -70 -183 -210c0 -158 -33 -245 -123 -245c-84 0 -153 73 -180 150c-26 -95 -88 -150 -163 -150c-77 0 -147 57 -170 140h-2c-23 -83 -87 -140 -166 -140c-102 0 -179 96 -179 256c0 150 68 277 170 277c71 0 107 -62 107 -125
c0 -18 -3 -35 -8 -50h155c-5 15 -8 32 -8 50c0 63 36 125 107 125c102 0 170 -127 170 -276c0 -18 -1 -35 -3 -51c31 -65 77 -121 152 -121c68 0 104 45 104 177c0 175 89 271 211 271zM552 71c84 0 141 78 141 194c0 100 -42 189 -135 189c-38 0 -72 -15 -72 -54
c0 -35 28 -56 75 -56h50v-71h-448v71h49c47 0 75 21 75 56c0 39 -34 54 -72 54c-93 0 -135 -89 -135 -188c0 -117 57 -195 141 -195c82 0 146 74 160 150h9c13 -75 80 -150 162 -150z" />
    <glyph glyph-name="knLLUU" horiz-adv-x="1164" 
d="M861 519c148 0 258 -117 258 -281c0 -146 -74 -252 -186 -252c-96 0 -156 72 -157 171c1 78 41 142 113 142c55 0 80 -37 80 -70c0 -35 -26 -64 -61 -64c-33 0 -54 26 -54 62c0 6 -2 10 -7 10c-12 0 -33 -25 -33 -65c0 -59 44 -104 118 -104c90 0 152 61 152 167
c0 128 -99 206 -214 206c-107 0 -183 -70 -183 -210c0 -158 -33 -245 -123 -245c-60 0 -108 34 -142 80c-13 -48 -53 -80 -111 -80c-66 0 -111 42 -111 101c0 37 18 63 45 84c-101 16 -215 48 -215 192c0 97 65 156 150 156c82 0 115 -52 115 -108c0 -48 -24 -101 -90 -101
c-56 0 -92 40 -92 100c0 9 1 17 2 25c-29 -16 -50 -42 -50 -79c0 -76 84 -93 171 -111c36 -8 72 -15 103 -27c10 4 20 7 30 11c79 28 157 56 157 124c0 47 -37 81 -107 81h-35v75h81c61 0 92 27 92 67c0 34 -22 59 -46 68l15 20c43 -16 74 -57 74 -112
c0 -54 -31 -94 -81 -110c26 -19 44 -48 44 -88c0 -93 -97 -129 -182 -158c17 -13 31 -29 39 -49c33 -49 75 -76 126 -76c68 0 104 45 104 177c0 175 89 271 211 271zM194 454c-17 0 -33 -2 -49 -7c-1 -6 -2 -13 -2 -20c0 -33 20 -54 63 -54c39 0 59 17 59 39
c0 19 -15 42 -71 42zM320 71c38 0 71 12 71 41c0 32 -42 42 -97 51c-27 -13 -45 -29 -45 -50c0 -28 29 -42 71 -42z" />
    <glyph glyph-name="knLLLUU" horiz-adv-x="1529" 
d="M1226 519c148 0 258 -117 258 -281c0 -146 -74 -252 -186 -252c-96 0 -156 72 -157 171c1 78 41 142 113 142c55 0 80 -37 80 -70c0 -35 -26 -64 -61 -64c-33 0 -54 26 -54 62c0 6 -2 10 -7 10c-12 0 -33 -25 -33 -65c0 -59 44 -104 118 -104c90 0 152 61 152 167
c0 128 -99 206 -214 206c-107 0 -183 -70 -183 -210c0 -158 -33 -245 -123 -245c-102 0 -173 98 -202 192c-19 -124 -87 -192 -171 -192c-76 0 -146 57 -169 140h-2c-23 -83 -87 -140 -166 -140c-102 0 -179 96 -179 263c0 143 68 270 170 270c71 0 107 -62 107 -125
c0 -69 -42 -121 -108 -121c-55 0 -98 35 -98 108v14c-21 -34 -31 -80 -31 -129c0 -117 57 -195 141 -195c82 0 146 74 160 150h9c13 -75 80 -150 162 -150c84 0 141 78 141 194c0 49 -10 95 -31 130v-14c0 -73 -43 -108 -97 -108c-67 0 -109 52 -109 121
c0 63 36 125 107 125c101 0 169 -125 170 -263c43 -122 97 -185 178 -185c68 0 104 45 104 177c0 175 89 271 211 271zM215 454c-30 0 -54 -9 -74 -25c-1 -7 -2 -15 -2 -21c0 -43 31 -64 76 -64c44 0 72 21 72 57c0 39 -34 53 -72 53zM559 344c44 0 75 21 75 64
c0 5 -1 13 -2 21c-20 16 -45 25 -75 25c-37 0 -71 -14 -71 -53c0 -36 28 -57 73 -57z" />
    <glyph glyph-name="knKE" horiz-adv-x="505" 
d="M465 360v-66h-112c42 -31 68 -82 68 -137c0 -93 -73 -171 -167 -171c-97 0 -170 78 -170 171c0 55 26 106 69 137h-113v66h194c8 12 13 26 13 43c0 11 -2 22 -6 31h-201v75h280c30 0 53 7 68 19c15 11 24 27 24 49c0 20 -8 37 -20 50c-13 12 -30 16 -37 16
c-4 0 -6 -4 -6 -10c0 -36 -21 -62 -57 -62c-32 0 -55 21 -55 52c0 34 28 62 81 62c59 0 137 -34 137 -128v-3v-2c0 -72 -53 -118 -135 -118h-45c4 -11 6 -22 6 -33c0 -14 -3 -28 -9 -41h193zM374 182c0 70 -58 115 -120 115c-63 0 -122 -45 -122 -115
c0 -65 50 -111 122 -111c71 0 120 46 120 111z" />
    <glyph glyph-name="knKHE" horiz-adv-x="769" 
d="M724 553c0 -49 -24 -86 -65 -105c36 -45 62 -114 63 -206c0 -147 -81 -256 -194 -256c-65 0 -115 40 -162 86c-41 -52 -99 -86 -172 -86c-94 0 -154 60 -154 133c0 68 52 112 128 112s131 -45 189 -87c26 37 40 85 40 141c0 112 -61 170 -131 170c-49 0 -81 -29 -81 -66
c0 -20 9 -38 22 -38c3 0 4 1 4 6c0 30 17 51 44 51c28 0 49 -23 49 -51c0 -29 -24 -57 -68 -57c-56 0 -90 50 -90 104c0 65 51 116 122 116c89 0 169 -75 169 -233c0 -59 -14 -120 -41 -170c39 -26 82 -46 134 -46c86 0 157 66 157 181c-2 88 -41 167 -118 182h-23v75h44
c51 0 91 21 91 68c0 52 -44 66 -57 66c-4 0 -6 -4 -6 -10c0 -36 -21 -62 -55 -62s-57 21 -57 54c0 32 28 60 83 60c57 0 135 -34 135 -132zM202 71c50 0 92 15 124 40c-47 45 -95 85 -156 85c-53 0 -76 -29 -76 -58c0 -34 31 -67 108 -67z" />
    <glyph glyph-name="knGE" horiz-adv-x="585" 
d="M384 434c91 -74 145 -258 145 -383v-51h-78v78c0 169 -54 360 -159 360s-159 -191 -159 -360v-78h-78v51c0 125 54 309 145 383h-140v75h328c9 0 18 1 26 2c38 6 66 27 66 66c0 20 -8 37 -20 50c-13 12 -30 16 -37 16c-4 0 -6 -4 -6 -10c0 -36 -21 -62 -57 -62
c-32 0 -55 21 -55 52c0 34 28 62 81 62c59 0 137 -34 137 -128v-3v-2c0 -72 -54 -118 -134 -118h-1h-4z" />
    <glyph glyph-name="knGHE" horiz-adv-x="836" 
d="M497 434h-1h-445v75h445c9 0 18 1 26 2c38 6 66 27 66 66c0 20 -8 37 -20 50c-13 12 -30 16 -37 16c-4 0 -6 -4 -6 -10c0 -36 -21 -62 -57 -62c-32 0 -55 21 -55 52c0 34 28 62 81 62c59 0 137 -34 137 -128v-3v-2c0 -72 -54 -118 -134 -118zM710 449
c62 -38 91 -87 91 -139c0 -62 -40 -109 -100 -109c-27 0 -52 9 -76 45c3 -24 5 -48 5 -72c0 -90 -37 -188 -128 -188c-69 0 -138 57 -161 140h-2c-23 -83 -98 -140 -166 -140c-74 0 -123 70 -123 161c0 85 43 140 102 140c49 0 73 -37 86 -79l-16 -15c-11 24 -36 34 -62 34
c-41 0 -70 -26 -70 -72c0 -51 35 -84 86 -84c75 0 145 74 159 150h9c14 -76 79 -150 151 -150c69 0 99 70 99 131c0 68 -17 128 -37 170l23 18c6 -9 11 -19 15 -30c37 -67 66 -85 97 -85c37 0 60 26 60 61c0 31 -18 63 -61 93zM279 331c0 32 25 59 59 59c33 0 60 -27 60 -59
c0 -33 -27 -60 -60 -60c-34 0 -59 27 -59 60zM331 16h16c14 -120 43 -133 43 -177c0 -40 -25 -59 -50 -59c-28 0 -53 23 -53 59c0 44 31 57 44 177z" />
    </font>
</defs>
</svg>
